<?xml version="1.0" encoding="UTF-8"?>
<svg id="Layer_1" xmlns="http://www.w3.org/2000/svg" version="1.1" viewBox="0 0 130 152">
  <!-- Generator: Adobe Illustrator 29.8.1, SVG Export Plug-In . SVG Version: 2.1.1 Build 2)  -->
  <defs>
    <style>
      .st0 {
        fill: #b08c68;
        fill-rule: evenodd;
      }
    </style>
  </defs>
  <path class="st0" d="M65,.8c1.9,0,3.8.8,5.1,2.1,1.4,1.4,2.1,3.2,2.1,5.1v1.4c9.1,3.7,14.5,14,14.5,24s-8.3,25.4-21.8,25.4-21.8-13-21.8-25.4,5.4-20.3,14.5-24v-1.4c0-1.9.8-3.8,2.1-5.1,1.4-1.4,3.2-2.1,5.1-2.1ZM112.8,26.4c-2.8.1-5.5.9-7.9,2.2-4.4,2.4-8.1,6.4-10.4,11.3-2.3,4.9-3,10.3-2,15.2,1,4.9,4,9.7,9.2,12.2,5.2,2.5,10.8,1.6,15.2-.8,4.4-2.4,8.1-6.4,10.4-11.3,2.3-4.9,3-10.3,2-15.2-.6-2.7-1.7-5.3-3.4-7.5.8-1.7.8-3.7.1-5.5-.7-1.8-2-3.2-3.7-4-1.7-.8-3.7-.9-5.5-.3-1.8.6-3.3,1.9-4.1,3.6ZM4,32.6c-1.7,2.2-2.8,4.9-3.4,7.5-1,4.9-.3,10.3,2,15.2,2.3,4.9,6,8.9,10.4,11.3,4.4,2.4,10,3.2,15.2.8,5.2-2.5,8.2-7.3,9.2-12.2,1-4.9.3-10.3-2-15.2-2.3-4.9-6-8.9-10.4-11.3-2.4-1.3-5.2-2.1-7.9-2.2-.8-1.7-2.3-3.1-4.1-3.8-1.8-.7-3.8-.6-5.5.2-1.7.8-3.1,2.3-3.8,4.1-.7,1.8-.6,3.8.2,5.5h0ZM29.8,77.7c10.1-7.6,22.5-11.7,35.2-11.7,13.7,0,26.1,4.8,35.2,11.7,8.8,6.7,15.6,16.3,15.6,26.5s-8.6,16.9-17,20.7c-9,4-21,6.3-33.7,6.3s-24.7-2.2-33.7-6.3c-8.4-3.8-17-10.5-17-20.7s6.8-19.8,15.6-26.5h0Z"/>
</svg>