<?xml version="1.0" encoding="UTF-8"?>
<svg id="Layer_2" xmlns="http://www.w3.org/2000/svg" version="1.1" viewBox="0 0 417.6 417.2">
  <!-- Generator: Adobe Illustrator 29.8.1, SVG Export Plug-In . SVG Version: 2.1.1 Build 2)  -->
  <defs>
    <style>
      .st0 {
        fill: #8b7355;
      }
    </style>
  </defs>
  <g id="Layer_1-2">
    <path class="st0" d="M64.3.2l287.6-.2c35.4,4.4,62.5,33.2,65.6,68.5v279.4c-3,37.2-32.7,66.8-70,69.3H70.1c-36.8-2.3-66.4-31.3-70.1-67.8V67C3.5,32.7,30.2,5,64.3.2ZM397.3,178.2c.3-1.3-.6-2-1.2-2.9-43.3-70.1-166.4-88.7-241.2-77.1-18,2.8-37.3,8.1-53.7,16,21.6,10.1,42.7,21.3,62,35.5,51.4-17.9,102-17,154.6-5.5,18.5,4,36.9,8.6,53.7,17.5,9,4.7,17.3,11.1,25.7,16.6h0ZM256.4,173.8h-34.1l-29.2,44.9c-9.4-11.8-18.6-23.7-29.6-34.1-39-36.8-91-58.3-143.9-65.5-.4,2.2.6,1.2,1.6,1.7,3.5,1.7,7.1,2.8,10.6,4.4,54.9,25.5,106.2,62.6,139.1,114.1h42.8c0-.1,41.8-62.3,41.8-62.3l.9-3.2h0ZM107.2,301.8c.9-.9-2.7-5.5-3.4-6.7-16.4-30.9-18.3-69.7-1.2-100.6-.4-2.4-35-25.7-39.7-28.5-3.5-2.1-11.5-7.1-14.9-8.3-.7-.3-1.5-.5-2.2-.3-14.4,24.6-16.3,58.9-5.7,85.3,9,22.3,27.2,38.7,47.8,50.3,2.1,1.2,18.5,9.6,19.2,8.9h0ZM340,173.8h-80.9l-1.1,1.1v134.4l-44.6-62.2c-.6-.6-1.4-.6-2.3-.7-6.8-.9-31.5-.9-38.3,0-1.1.1-1.9.1-2.6,1.1l-46.4,67.8h35.6l32.2-46.4,31.5,46.4h66.3c-.2-.7.8-1.6.8-1.9v-52.8h37.1c.9,0,7.1,2.9,8.2,3.8,13.2,9.6,6.2,37.1,13.1,50.6,7.1.8,14.3.1,21.4.3,3,0,6.5,2.1,9.4-.4-1.1-4.7-3-8.6-3.7-13.5-1.3-8.3-.4-17-1.7-25.3-1.7-10.6-7.2-24-18.6-26.7-1.2-1.4,4.5-3.2,5.5-3.9,29.3-19.4,15.1-68.3-20.9-71.8h0Z"/>
    <path class="st0" d="M289.4,237.4l.8-38.9c8.8.4,17.8-.4,26.6,0,5.1.2,15.8.8,20,3.2,10.5,5.9,10.5,27.3-.2,33.1-1.5.8-6.4,2.7-7.8,2.7h-39.4Z"/>
  </g>
</svg>