<?xml version="1.0" encoding="UTF-8"?>
<svg id="Layer_1" xmlns="http://www.w3.org/2000/svg" version="1.1" viewBox="0 0 120 120">
  <!-- Generator: Adobe Illustrator 29.8.1, SVG Export Plug-In . SVG Version: 2.1.1 Build 2)  -->
  <defs>
    <style>
      .st0 {
        fill: #fff;
      }

      .st1 {
        fill: #f4d1a8;
      }

      .st2 {
        fill: #caa170;
      }
    </style>
  </defs>
  <path class="st0" d="M71.7,110.5c1.6,1,3.8,2.2,6.8,3,3.6,1,6.6,1,9.5,1s5.8,0,9.5-1c2.8-.8,7.5-2.4,12.5-6.8,1-1,2.4-2.4,3.4-4.6.8-1.4,1.2-2.4,2.2-6.4,1.6-5.4,2.4-8.1,2.6-9.3.6-3.8.8-6.6.8-7.3,0-2,0-4.2-.6-7.7-.4-2.6-1-8.1-2.4-12.1-2.4-7.7-7.1-13.3-10.7-17.3-8.1-8.9-19.5-21-38.7-24-20.1-3.4-35.9,5.4-41.1,8.5-6.8,4.2-10.7,8.5-11.7,9.7C9.8,40.8.3,52.9.7,70.2c.2,10.1,3.8,17.5,5.2,20.6,1.8,3.6,6.6,13.3,17.7,20.5,11.7,7.5,23.8,8.1,26.8,7.3.2,0,2.2-.6,5-.8,2-.2,3.4-.2,3.8-.2,2.2,0,6-1.4,12.5-7.3h0l.2.2Z"/>
  <g>
    <path class="st2" d="M48.1,119.8c-3.4,0-6.8-.4-10.3-1.4-12.9-3.4-22.8-10.5-29.4-21-.2-.4,0-1,.4-1.4.4-.2,1,0,1.4.4,6.2,10.1,15.7,16.9,28.2,20.3,5.6,1.6,11.3,1.8,16.7.6.6,0,1,.2,1.2.8s-.2,1-.8,1.2c-2.4.4-5,.8-7.3.8v-.2Z"/>
    <path class="st2" d="M4.6,89.2c-.4,0-.8-.2-.8-.6C0,80.1-.9,71.2.9,62c1.2-6.8,3.8-13.5,7.7-19.9.2-.4.8-.6,1.4-.4.4.2.6.8.4,1.4-3.8,6.4-6.4,12.9-7.5,19.3-1.6,8.7-.6,17.3,3,25.4.2.4,0,1-.6,1.2h-.4l-.2.2Z"/>
    <path class="st2" d="M107.3,44.9c-.2,0-.6,0-.8-.4-1-1-1.8-2-2.8-3.2-1.8-2.2-3.8-4.2-5.8-6.2-8.7-8.1-18.9-13.7-30.4-16.5-.6,0-.8-.6-.8-1.2s.6-.8,1.2-.8c11.7,2.8,22.2,8.5,31.2,16.9,2.2,2,4,4.2,6,6.4,1,1,1.8,2,2.8,3.2.4.4.4,1,0,1.4,0,0-.4.2-.6.2v.2Z"/>
    <path class="st2" d="M114.6,102.1l-2-.4c0-.6.2-1.4.6-2.2,2.6-6.6,5.2-14.3,5-22.6,0-3.2-.6-6.6-1.2-9.9-.2-1.4-.4-2.8-.6-4.4,0-.6.4-1,.8-1,.6,0,1,.4,1,.8,0,1.4.4,2.8.6,4.2.6,3.4,1,6.8,1.2,10.1.2,8.7-2.4,16.7-5.2,23.4-.2.6-.4,1.2-.4,1.8l.2.2Z"/>
    <path class="st2" d="M16.7,34.2c-.2,0-.6,0-.8-.4-.4-.4-.2-1,0-1.4.4-.2.6-.4,1-.6.8-.6,1.6-1.2,2.2-1.8,4.2-3.6,8.5-6.4,13.3-8.5,7.5-3.4,15.1-5.2,23.2-5.6.6,0,1,.4,1,1s-.4,1-1,1c-7.9.2-15.3,2-22.4,5.4-4.6,2-8.9,4.8-12.9,8.1-.8.6-1.6,1.2-2.4,1.8-.4.2-.6.4-1,.6h-.6l.4.4Z"/>
    <path class="st2" d="M89,115.2c-2.6,0-5.2,0-7.7-.4h0c-.6,0-1.2,0-1.8-.2-.4,0-.8,0-1.2-.2-.6,0-1-.6-.8-1,0-.6.6-1,1-.8.4,0,.8,0,1.4.2.6,0,1,.2,1.6.2,7.5.6,14.1,1,20.5-2.4,1.8-1,3.6-2.2,5.4-3.4.8-.6,1.6-1,2.4-1.6.4-.2,1,0,1.4.2.2.4,0,1-.2,1.4-.8.4-1.6,1-2.4,1.6-1.8,1.2-3.8,2.6-5.6,3.6-4.4,2.4-8.9,3-13.7,3l-.2-.2Z"/>
    <path class="st2" d="M61.2,117.8c-.4,0-.8-.2-.8-.6-.2-.4,0-1,.4-1.2.6-.2,1.2-.6,1.6-.8,1.4-.6,2.6-1.2,4-2,1.2-.6,2.2-1.4,3.2-2.4.6-.4,1-.8,1.6-1.4.4-.4,1-.2,1.4,0,.4.4.2,1,0,1.4-.6.4-1,.8-1.6,1.2-1,.8-2.2,1.8-3.4,2.6-1.4.8-2.8,1.4-4,2-.6.2-1.2.4-1.6.8h-.4l-.4.4Z"/>
    <path class="st2" d="M87.6,113.1h0c-1.2,0-2.4,0-3.6-.2-1.2,0-2.2,0-3.4-.2-.6,0-1-.4-1-1s.4-1,1-1c1.2,0,2.4,0,3.6.2,1.2,0,2.4,0,3.4.2.6,0,1,.4,1,1s-.4,1-1,1Z"/>
    <path class="st2" d="M86.4,108.7h0c-2-.2-4.2-.8-6-1s-.8-.6-.8-1.2.6-.8,1.2-.8c1.6.4,3.8.8,5.8,1,.6,0,1,.6.8,1,0,.4-.4.8-1,.8v.2Z"/>
    <path class="st2" d="M110.1,100.3c-.2,0-.6,0-.8-.4-.4-.4-.2-1,0-1.4.6-.4,1-.8,1.6-1.2s1-.6,1.6-1c.4-.4,1-.2,1.4,0,.4.4.2,1,0,1.4-.6.4-1.2.8-1.6,1.2-.6.4-1,.6-1.6,1h-.6v.4Z"/>
    <path class="st2" d="M87.4,111.5h0c-.6,0-1.2,0-1.8-.2-.6,0-1.4-.2-2-.2s-1-.6-.8-1,.6-1,1-.8c.8,0,1.4,0,2.2.2.6,0,1.2,0,1.6.2.6,0,1,.6.8,1,0,.4-.4.8-1,.8Z"/>
    <path class="st2" d="M34.4,63.2c-.2,0-.4,0-.6-.2-.4-.4-.8-.8-1.4-1-.4-.4-1-.8-1.4-1.2-.4-.4-.4-1,0-1.4s1-.4,1.4,0,.8.8,1.4,1c.4.4,1,.8,1.4,1.2.4.4.4,1,0,1.4,0,.2-.4.4-.8.4v-.2Z"/>
    <path class="st2" d="M109.1,103.5c-.4,0-.6,0-.8-.6-.2-.4,0-1,.4-1.4l3.2-1.6c.4-.2,1,0,1.4.4.2.4,0,1-.4,1.4l-3.2,1.6h-.4l-.2.2Z"/>
    <g>
      <path class="st1" d="M80.1,68c-.4,0-.6,0-.8-.4-5.6-8.7-12.7-13.5-22-14.5-.4,0-1,0-1.4-.4h-.6c-.6,0-.8-.6-.8-1.2s.6-.8,1.2-.8.6,0,1,.2c.4,0,.6.2.8.2,10.1,1.2,17.7,6.2,23.6,15.5.2.4,0,1-.2,1.4h-.8Z"/>
      <path class="st1" d="M25.7,63.6c-.2,0-.4,0-.6-.2-.4-.4-.4-1,0-1.4.6-.6,1-1,1.4-1.6s1-1.2,1.6-1.6c4.6-4.6,10.3-7.1,17.7-8.1h.4c.8,0,2.8-.6,3.4,1.8,0,.6-.2,1-.8,1.2-.6,0-1-.2-1.2-.8q0-.6-1.2-.4h-.6c-6.9,1-12.5,3.4-16.7,7.7s-1,1-1.4,1.6-1,1.2-1.6,1.6c0,0-.4.2-.6.2h.2Z"/>
      <path class="st1" d="M30,102.3c-.2,0-.4,0-.6-.2-6.4-6-9.7-12.7-10.7-20.5,0-.6.4-1,.8-1,.6,0,1,.4,1,.8,1,7.3,4.4,13.7,10.3,19.3.4.4.4,1,0,1.4,0,0-.4.2-.8.2Z"/>
      <path class="st1" d="M47.3,107.3h-4.4c-1.4,0-2.8-.4-4.2-.6-.6,0-1-.2-1.6-.4-.6,0-.8-.6-.8-1.2s.6-.8,1.2-.8,1,.2,1.6.4c1.2.4,2.4.6,3.6.6h2.2c4,0,7.7,0,10.9-2.6.4-.4,1-.2,1.4,0s.2,1,0,1.4c-3.2,2.6-6.6,3-9.9,3v.2Z"/>
      <path class="st1" d="M34,93.2c-.4,0-.8-.2-1-.6-1.2-3-1-6,.6-8.3,1.4-2.2,4-3.4,6.9-3.4s6.8,1.8,9.1,5.6c.2.4,0,1-.4,1.4-.4.2-1,0-1.4-.4-2-3.2-4.4-4.8-7.5-4.8s-4.4.8-5.4,2.6c-1.2,1.8-1.2,4-.4,6.6,0,.4,0,1-.6,1.2h-.4l.4.2Z"/>
      <path class="st1" d="M63.6,92.2c-.6,0-1-.4-1-1,0-9.1-2.8-13.3-10.3-16.3-3-1-5.4-1.6-7.9-1-.6,0-1,0-1.2-.6,0-.6,0-1,.6-1.2,3.4-.8,6.6,0,9.1,1,8.5,3.2,11.7,8.1,11.7,18.1s-.4,1-1,1Z"/>
      <path class="st1" d="M84.4,91h0c-.6,0-.8-.6-.8-1,0-.8.2-1.8.2-2.6h0c.6-4.4.2-8.3-1.2-11.7-.2-.4,0-1,.6-1.2.4-.2,1,0,1.2.6,1.6,3.8,2,7.9,1.4,12.5,0,1,0,1.8-.2,2.8,0,.4-.4.8-1,.8l-.2-.2Z"/>
      <path class="st1" d="M42.2,102.1c-3.4,0-6.4-1.2-8.3-3.6-.4-.4-.2-1,0-1.4.4-.4,1-.2,1.4,0,2,2.4,4.8,2.8,6.8,2.8,3.8,0,6.4-1.4,7.1-8.3,0-.6,0-1.4-.2-2.2,0-.6.2-1,.8-1.2.6,0,1,.2,1.2.8,0,.8.2,1.8.2,2.6-.8,7.1-3.6,10.1-9.1,10.1l.2.4Z"/>
      <path class="st1" d="M42.2,97c-.2,0-.4,0-.6-.2-.4-.4-.4-1,0-1.4,1.2-1.4,1.8-2.4,1.6-3,0-.6-.8-1-2.2-1.8-.4-.2-.6-.8-.4-1.4.2-.4.8-.6,1.4-.4,1.4.6,2.8,1.6,3.2,3.2.4,1.6-.8,3.2-2,4.6,0,.2-.4.4-.8.4h-.2Z"/>
      <path class="st1" d="M32.2,96.4c-.2,0-.6,0-.8-.4-2.6-3.2-3.4-6.9-2.6-11.7,0-.6.6-.8,1.2-.8s.8.6.8,1.2c-.6,4.4,0,7.5,2.2,10.3.4.4.2,1,0,1.4,0,0-.4.2-.6.2l-.2-.2Z"/>
      <path class="st1" d="M29.7,84.7h-.4c-.4-.2-.6-.8-.4-1.4.4-1,1-1.8,1.4-2.8.2-.6.6-1.2.8-1.8l.6-1.4,1,1.2c.4.4.4.6.6,1v.2c.4.4.4,1,0,1.4s-1,.4-1.4,0h0v.4c-.6,1-1,2-1.4,3,0,.4-.6.6-.8.6v-.4Z"/>
      <path class="st1" d="M57.6,105.3h-.4c-.4,0-1-.4-1-.4l-1-.6.6-1c.6-.8,1-1.4,1.4-1.8.4-.4.6-.8,1-1.2s1-.6,1.4-.2c.4.4.6,1,.2,1.4-.4.4-.6.8-1,1.4,0,.2-.4.6-.6.8.4.2.4.6.4,1s-.6.6-1,.6Z"/>
      <path class="st1" d="M32,79.7h-.4c-.6,0-.8-.8-.6-1.2,0-.4.4-1,.6-1.4.2-.8.6-1.6.8-2.2,0-.6.6-.8,1.2-.6.6,0,.8.6.6,1.2-.2.8-.6,1.6-.8,2.4,0,.4-.4,1-.4,1.4s-.6.6-1,.6v-.2Z"/>
    </g>
    <path class="st2" d="M109.5,57.3h0c-.6,0-.8-.6-.8-1s0-1,.2-1.4c0-.4,0-.8.2-1.2,0-.6.6-1,1-.8.6,0,.8.6.8,1s0,1-.2,1.4c0,.4,0,.8-.2,1.2,0,.4-.4.8-1,.8Z"/>
    <path class="st2" d="M104.1,49.7h0c-.6,0-.8-.6-.8-1s0-1,.2-1.4c0-.4,0-.8.2-1.2,0-.6.6-.8,1-.8.6,0,.8.6.8,1s0,1-.2,1.4c0,.4,0,.8-.2,1.2,0,.4-.4.8-1,.8Z"/>
    <path class="st2" d="M10,53.3c-.2,0-.4,0-.6-.2-.4-.4-.8-.6-1.2-1-.4-.4-.8-.6-1.2-1-.4-.4-.4-1,0-1.4s1-.4,1.4,0,.8.6,1.2,1c.4.4.8.6,1.2,1,.4.4.4,1,0,1.4,0,.2-.4.4-.8.4v-.2Z"/>
    <path class="st2" d="M19.9,41.8c-.2,0-.4,0-.6-.2-.8-.6-1.4-1.2-2.2-1.6-.4-.2-.6-.8-.2-1.4.2-.4.8-.6,1.4-.2.8.6,1.4,1,2.2,1.8.4.4.4,1,0,1.4,0,.2-.4.4-.8.4l.2-.2Z"/>
    <path class="st2" d="M66,97h-2.2c-.6,0-1-.4-1-1s.4-1,1-1h2.2c.6,0,1,.4,1,1s-.4,1-1,1Z"/>
    <path class="st2" d="M112,60.4h0c-.6,0-.8-.6-.8-1.2v-.4c0-.6.2-1.2.2-1.8s.4-1,1-1,1,.4,1,1,0,1.4-.2,2h0c0,.8-.4,1.2-1,1.2l-.2.2Z"/>
    <path class="st2" d="M62.8,83.7c-.4,0-.8-.4-1-.8,0-.6.2-1,.8-1.2.4,0,.6,0,1-.2.4,0,.8-.2,1.2-.2.6,0,1,.2,1.2.8,0,.6-.2,1-.8,1.2-.4,0-.6,0-1,.2-.4,0-.8.2-1.2.2h-.2Z"/>
    <path class="st2" d="M106.5,52.7h-.4c-.4,0-.8-.8-.6-1.2l.8-2c0-.4.8-.8,1.2-.6.4,0,.8.8.6,1.2l-.8,2c0,.4-.6.6-.8.6Z"/>
    <path class="st2" d="M65,99.5h0c-.4,0-.8,0-1.2-.2-.4,0-.6,0-1-.2-.6,0-.8-.6-.8-1.2s.6-.8,1.2-.8.8,0,1.2.2c.4,0,.6,0,1,.2.6,0,.8.6.8,1.2s-.4.8-1,.8h-.2Z"/>
    <path class="st2" d="M85.4,103.1c-.8,0-1.4,0-2-.2h-.4c-.6,0-.8-.6-.8-1.2s.6-.8,1.2-.8h.4c.6,0,1.2.2,1.8.2s1,.4,1,1-.4,1-1,1h-.2Z"/>
    <path class="st2" d="M84.4,106.1h0c-.4,0-.8,0-1.2-.2-.4,0-.6,0-1-.2-.6,0-.8-.6-.8-1.2s.6-.8,1.2-.8.8,0,1.2.2c.4,0,.6,0,1,.2.6,0,.8.6.8,1.2s-.4.8-1,.8h-.2Z"/>
    <path class="st2" d="M7.6,58.3c-.2,0-.4,0-.6-.2-.8-.6-1.4-1.2-2.2-1.6-.4-.2-.6-.8-.2-1.4.2-.4.8-.6,1.4-.2.8.6,1.4,1,2.2,1.8.4.4.4,1,0,1.4,0,.2-.4.4-.8.4l.2-.2Z"/>
    <path class="st2" d="M6.4,64.2h-.4c-.6-.2-1.2-.4-1.8-.8h-.6c-.4-.6-.6-1.2-.4-1.6s.8-.6,1.2-.4l.6.4c.6.2,1,.6,1.4.6.6,0,.8.8.6,1.2,0,.4-.6.6-1,.6h.4Z"/>
    <path class="st2" d="M31.8,64.8c-.2,0-.4,0-.6-.2-.8-.6-1.4-1.2-2.2-1.6-.4-.2-.6-.8-.2-1.4.2-.4.8-.6,1.4-.2.8.6,1.4,1,2.2,1.8.4.4.4,1,0,1.4,0,.2-.4.4-.8.4l.2-.2Z"/>
    <path class="st2" d="M27.5,71.4c-.2,0-.4,0-.6-.2l-1.6-1.6c-.4-.4-.4-1,0-1.4s1-.4,1.4,0l1.6,1.6c.4.4.4,1,0,1.4s-.4.2-.6.2h-.2Z"/>
    <path class="st2" d="M29.1,67.6c-.2,0-.4,0-.6-.2l-1.6-1.6c-.4-.4-.4-1,0-1.4s1-.4,1.4,0l1.6,1.6c.4.4.4,1,0,1.4s-.4.2-.6.2h-.2Z"/>
    <path class="st2" d="M15.6,44.9c-.2,0-.4,0-.6-.2l-1.6-1.6c-.4-.4-.4-1,0-1.4s1-.4,1.4,0l1.6,1.6c.4.4.4,1,0,1.4s-.4.2-.6.2h-.2Z"/>
    <path class="st2" d="M66.6,91.6h-1.6c-.6,0-1-.4-1-1s.4-1,1-1h1.6c.6,0,1,.4,1,1s-.4,1-1,1Z"/>
    <path class="st2" d="M25.9,73.3h-.4c-.8-.4-1.4-.8-2-1.2-.4-.4-.6-1,0-1.4.4-.4,1-.6,1.4,0,.4.4,1,.6,1.4,1,.4,0,.8.8.6,1.2,0,.4-.6.6-.8.6l-.2-.2Z"/>
    <path class="st2" d="M41.4,56.7c-.2,0-.4,0-.6-.2l-1-1c-.4-.4-.4-1,0-1.4s1-.4,1.4,0l1,1c.4.4.4,1,0,1.4,0,0-.4.2-.6.2h-.2Z"/>
    <path class="st2" d="M64.2,85.5c-.4,0-.8-.2-1-.6,0-.6,0-1,.6-1.2.4,0,1-.4,1.6-.4s1,.4,1,1-.4,1-1,1-.6,0-1,.2h-.4.2Z"/>
    <path class="st2" d="M39.2,57.7c-.2,0-.4,0-.6-.2l-1-1c-.4-.4-.4-1,0-1.4s1-.4,1.4,0l1,1c.4.4.4,1,0,1.4s-.4.2-.6.2h-.2Z"/>
    <path class="st2" d="M46.7,76.1c-.4,0-.6,0-.8-.6-.2-.4,0-1,.4-1.2h.2c.2,0,.6-.4,1-.4.6,0,1,0,1.2.6,0,.6,0,1-.6,1.2-.2,0-.4,0-.6.2h-.8v.2Z"/>
    <path class="st2" d="M11.8,48.5c-.2,0-.4,0-.6-.2l-1-1c-.4-.4-.4-1,0-1.4s1-.4,1.4,0l1,1c.4.4.4,1,0,1.4,0,0-.4.2-.6.2h-.2Z"/>
    <path class="st2" d="M31,85.9h-.6c-.8-.6-1.8-1.2-2.6-1.6-.4-.2-.6-.8-.4-1.4.2-.4.8-.6,1.4-.4,1,.6,1.8,1,2.8,1.8.4.4.6,1,.2,1.4,0,.2-.4.4-.8.4v-.2Z"/>
    <path class="st2" d="M32.8,27.7c-.4,0-.6,0-.8-.6v-.2c0-.2-.4-.6-.4-1,0-.6,0-1,.6-1.2.6,0,1,0,1.2.6,0,.2,0,.4.2.6v.4c.2.4,0,1-.4,1.4,0,0-.2,0-.4,0Z"/>
    <path class="st2" d="M94,36.2c-.2,0-.4,0-.6-.2l-.6-.6c-.4-.4-.4-1,0-1.4s1-.4,1.4,0l.6.6c.4.4.4,1,0,1.4,0,0-.4.2-.6.2h-.2Z"/>
    <path class="st2" d="M77.3,61.6c-.2,0-.4,0-.6-.2l-.6-.6c-.4-.4-.4-1,0-1.4s1-.4,1.4,0l.6.6c.4.4.4,1,0,1.4s-.4.2-.6.2h-.2Z"/>
    <path class="st2" d="M27.9,91.6c-.2,0-.4,0-.6-.2-.4-.4-.4-1,0-1.4l.6-.6c.4-.4,1-.4,1.4,0s.4,1,0,1.4l-.6.6s-.4.2-.6.2h-.2Z"/>
    <path class="st2" d="M100.9,43.8c-.2,0-.4,0-.6-.2-.4-.4-.4-1,0-1.4l.6-.6c.4-.4,1-.4,1.4,0s.4,1,0,1.4l-.6.6s-.4.2-.6.2h-.2Z"/>
    <path class="st2" d="M114.8,67.4c-.2,0-.4,0-.6-.2-.4-.4-.4-1,0-1.4l.6-.6c.4-.4,1-.4,1.4,0s.4,1,0,1.4l-.6.6s-.4.2-.6.2h-.2Z"/>
    <path class="st2" d="M24.7,92c-.2,0-.4,0-.6-.2-.4-.4-.4-1,0-1.4l.6-.6c.4-.4,1-.4,1.4,0s.4,1,0,1.4l-.6.6s-.4.2-.6.2h-.2Z"/>
    <path class="st2" d="M88.6,97c-.2,0-.4,0-.6-.2-.4-.4-.4-1,0-1.4l.6-.6c.4-.4,1-.4,1.4,0s.4,1,0,1.4l-.6.6s-.4.2-.6.2h-.2Z"/>
    <path class="st2" d="M85.4,100.1c-.2,0-.4,0-.6-.2l-.6-.6c-.4-.4-.4-1,0-1.4s1-.4,1.4,0l.6.6c.4.4.4,1,0,1.4,0,0-.4.2-.6.2h-.2Z"/>
    <path class="st2" d="M88,101.3c-.2,0-.4,0-.6-.2l-.6-.6c-.4-.4-.4-1,0-1.4s1-.4,1.4,0l.6.6c.4.4.4,1,0,1.4,0,0-.4.2-.6.2h-.2Z"/>
    <path class="st2" d="M64.4,103.9c-.2,0-.4,0-.6-.2l-.6-.6c-.4-.4-.4-1,0-1.4s1-.4,1.4,0l.6.6c.4.4.4,1,0,1.4s-.4.2-.6.2h-.2Z"/>
    <path class="st2" d="M45.5,55.1c-.2,0-.4,0-.6-.2l-.6-.6c-.4-.4-.4-1,0-1.4s1-.4,1.4,0l.6.6c.4.4.4,1,0,1.4s-.4.2-.6.2h-.2Z"/>
    <path class="st2" d="M82.7,28.3c-.2,0-.4,0-.6-.2l-.6-.6c-.4-.4-.4-1,0-1.4s1-.4,1.4,0l.6.6c.4.4.4,1,0,1.4,0,0-.4.2-.6.2h-.2Z"/>
    <path class="st2" d="M81.1,110.5c-.2,0-.4,0-.6-.2l-.6-.6c-.4-.4-.4-1,0-1.4s1-.4,1.4,0l.6.6c.4.4.4,1,0,1.4s-.4.2-.6.2h-.2Z"/>
    <path class="st2" d="M57.4,107.7c-.2,0-.4,0-.6-.2l-.6-.6c-.4-.4-.4-1,0-1.4s1-.4,1.4,0l.6.6c.4.4.4,1,0,1.4,0,0-.4.2-.6.2h-.2Z"/>
    <path class="st2" d="M49.7,87.6c-.4,0-.6,0-.8-.6-.2-.4,0-1,.4-1.2.4,0,.8-.4,1.2-.4s1,.4,1,1-.4,1-1,1h-.8v.2Z"/>
    <path class="st2" d="M87.4,104.5c-.2,0-.4,0-.6-.2l-.6-.6c-.4-.4-.4-1,0-1.4s1-.4,1.4,0l.6.6c.4.4.4,1,0,1.4,0,0-.4.2-.6.2h-.2Z"/>
  </g>
</svg>