<?xml version="1.0" encoding="UTF-8"?>
<svg id="Layer_1" xmlns="http://www.w3.org/2000/svg" version="1.1" viewBox="0 0 120 120">
  <!-- Generator: Adobe Illustrator 29.8.1, SVG Export Plug-In . SVG Version: 2.1.1 Build 2)  -->
  <defs>
    <style>
      .st0 {
        fill: #fff;
      }

      .st1 {
        fill: #f4d1a8;
      }

      .st2 {
        fill: #caa170;
      }
    </style>
  </defs>
  <path class="st0" d="M69.9,112c1.3.8,3.2,1.8,5.7,2.5,3,.8,5.5.8,8,.8s4.8,0,8-.8c2.3-.7,6.4-2,10.5-5.7.8-.8,2-2,2.8-3.8.7-1.2,1-2,1.8-5.3,1.3-4.5,2-6.9,2.2-7.9.5-3.2.7-5.5.7-6.2,0-1.7,0-3.5-.5-6.5-.3-2.2-.8-6.9-2-10.2-2-6.5-6-11.2-9-14.5-6.9-7.5-16.4-17.7-32.6-20.2-16.9-2.8-30.3,4.5-34.6,7.2-5.7,3.5-9,7.2-9.9,8.2-3.3,3.8-11.4,14-11,28.6.2,8.5,3.2,14.7,4.3,17.4,1.5,3,5.5,11.2,14.9,17.2,9.9,6.4,20.1,6.9,22.6,6.2.2,0,1.8-.5,4.2-.7,1.7-.2,2.8-.2,3.2-.2,1.8,0,5-1.2,10.5-6.2h0l.2.2Z"/>
  <g>
    <path class="st2" d="M50,119.8c-2.8,0-5.7-.3-8.7-1.2-10.9-2.8-19.2-8.9-24.7-17.7-.2-.3,0-.8.3-1.2.3-.2.8,0,1.2.3,5.2,8.5,13.2,14.2,23.7,17,4.7,1.3,9.5,1.5,14,.5.5,0,.8.2,1,.7s-.2.8-.7,1c-2,.3-4.2.7-6.2.7v-.2Z"/>
    <path class="st2" d="M13.4,94.1c-.3,0-.7-.2-.7-.5-3.2-7.2-4-14.7-2.5-22.4,1-5.7,3.2-11.4,6.5-16.7.2-.3.7-.5,1.2-.3.3.2.5.7.3,1.2-3.2,5.3-5.3,10.9-6.4,16.2-1.3,7.4-.5,14.5,2.5,21.4.2.3,0,.8-.5,1h-.3l-.2.2Z"/>
    <path class="st2" d="M99.8,56.8c-.2,0-.5,0-.7-.3-.8-.8-1.5-1.7-2.3-2.7-1.5-1.8-3.2-3.5-4.8-5.2-7.4-6.9-15.9-11.5-25.6-13.9-.5,0-.7-.5-.7-1s.5-.7,1-.7c9.9,2.3,18.7,7.2,26.2,14.2,1.8,1.7,3.3,3.5,5,5.3.8.8,1.5,1.7,2.3,2.7.3.3.3.8,0,1.2,0,0-.3.2-.5.2v.2Z"/>
    <path class="st2" d="M106,105l-1.7-.3c0-.5.2-1.2.5-1.8,2.2-5.5,4.3-12,4.2-19.1,0-2.7-.5-5.5-1-8.4-.2-1.2-.3-2.3-.5-3.7,0-.5.3-.8.7-.8.5,0,.8.3.8.7,0,1.2.3,2.3.5,3.5.5,2.8.8,5.7,1,8.5.2,7.4-2,14-4.3,19.7-.2.5-.3,1-.3,1.5l.2.2Z"/>
    <path class="st2" d="M23.6,47.8c-.2,0-.5,0-.7-.3-.3-.3-.2-.8,0-1.2.3-.2.5-.3.8-.5.7-.5,1.3-1,1.8-1.5,3.5-3,7.2-5.3,11.2-7.2,6.4-2.8,12.7-4.3,19.6-4.7.5,0,.8.3.8.8s-.3.8-.8.8c-6.7.2-12.9,1.7-18.9,4.5-3.8,1.7-7.5,4-10.9,6.9-.7.5-1.3,1-2,1.5-.3.2-.5.3-.8.5h-.5l.3.3Z"/>
    <path class="st2" d="M84.4,116c-2.2,0-4.3,0-6.5-.3h0c-.5,0-1,0-1.5-.2-.3,0-.7,0-1-.2-.5,0-.8-.5-.7-.8,0-.5.5-.8.8-.7.3,0,.7,0,1.2.2.5,0,.8.2,1.3.2,6.4.5,11.9.8,17.2-2,1.5-.8,3-1.8,4.5-2.8.7-.5,1.3-.8,2-1.3.3-.2.8,0,1.2.2.2.3,0,.8-.2,1.2-.7.3-1.3.8-2,1.3-1.5,1-3.2,2.2-4.7,3-3.7,2-7.5,2.5-11.5,2.5l-.2-.2Z"/>
    <path class="st2" d="M61,118.2c-.3,0-.7-.2-.7-.5-.2-.3,0-.8.3-1,.5-.2,1-.5,1.3-.7,1.2-.5,2.2-1,3.3-1.7,1-.5,1.8-1.2,2.7-2,.5-.3.8-.7,1.3-1.2.3-.3.8-.2,1.2,0,.3.3.2.8,0,1.2-.5.3-.8.7-1.3,1-.8.7-1.8,1.5-2.8,2.2-1.2.7-2.3,1.2-3.3,1.7-.5.2-1,.3-1.3.7h-.3l-.3.3Z"/>
    <path class="st2" d="M83.3,114.2h0c-1,0-2,0-3-.2-1,0-1.8,0-2.8-.2-.5,0-.8-.3-.8-.8s.3-.8.8-.8c1,0,2,0,3,.2,1,0,2,0,2.8.2.5,0,.8.3.8.8s-.3.8-.8.8Z"/>
    <path class="st2" d="M82.3,110.5h0c-1.7-.2-3.5-.7-5-.8s-.7-.5-.7-1,.5-.7,1-.7c1.3.3,3.2.7,4.8.8.5,0,.8.5.7.8,0,.3-.3.7-.8.7v.2Z"/>
    <path class="st2" d="M102.1,103.5c-.2,0-.5,0-.7-.3-.3-.3-.2-.8,0-1.2.5-.3.8-.7,1.3-1s.8-.5,1.3-.8c.3-.3.8-.2,1.2,0,.3.3.2.8,0,1.2-.5.3-1,.7-1.3,1-.5.3-.8.5-1.3.8h-.5v.3Z"/>
    <path class="st2" d="M83.1,112.8h0c-.5,0-1,0-1.5-.2-.5,0-1.2-.2-1.7-.2s-.8-.5-.7-.8.5-.8.8-.7c.7,0,1.2,0,1.8.2.5,0,1,0,1.3.2.5,0,.8.5.7.8,0,.3-.3.7-.8.7Z"/>
    <path class="st2" d="M38.5,72.2c-.2,0-.3,0-.5-.2-.3-.3-.7-.7-1.2-.8-.3-.3-.8-.7-1.2-1-.3-.3-.3-.8,0-1.2s.8-.3,1.2,0,.7.7,1.2.8c.3.3.8.7,1.2,1,.3.3.3.8,0,1.2,0,.2-.3.3-.7.3v-.2Z"/>
    <path class="st2" d="M101.3,106.1c-.3,0-.5,0-.7-.5-.2-.3,0-.8.3-1.2l2.7-1.3c.3-.2.8,0,1.2.3.2.3,0,.8-.3,1.2l-2.7,1.3h-.3l-.2.2Z"/>
    <g>
      <path class="st1" d="M76.9,76.2c-.3,0-.5,0-.7-.3-4.7-7.4-10.7-11.4-18.6-12.2-.3,0-.8,0-1.2-.3h-.5c-.5,0-.7-.5-.7-1s.5-.7,1-.7.5,0,.8.2c.3,0,.5.2.7.2,8.5,1,14.9,5.2,19.9,13,.2.3,0,.8-.2,1.2h-.7Z"/>
      <path class="st1" d="M31.1,72.5c-.2,0-.3,0-.5-.2-.3-.3-.3-.8,0-1.2.5-.5.8-.8,1.2-1.3s.8-1,1.3-1.3c3.8-3.8,8.7-6,14.9-6.9h.3c.7,0,2.3-.5,2.8,1.5,0,.5-.2.8-.7,1-.5,0-.8-.2-1-.7q0-.5-1-.3h-.5c-5.8.8-10.5,2.8-14,6.5s-.8.8-1.2,1.3-.8,1-1.3,1.3c0,0-.3.2-.5.2h.2Z"/>
      <path class="st1" d="M34.8,105.1c-.2,0-.3,0-.5-.2-5.3-5-8.2-10.7-9-17.2,0-.5.3-.8.7-.8.5,0,.8.3.8.7.8,6.2,3.7,11.5,8.7,16.2.3.3.3.8,0,1.2,0,0-.3.2-.7.2Z"/>
      <path class="st1" d="M49.3,109.3h-3.7c-1.2,0-2.3-.3-3.5-.5-.5,0-.8-.2-1.3-.3-.5,0-.7-.5-.7-1s.5-.7,1-.7.8.2,1.3.3c1,.3,2,.5,3,.5h1.8c3.3,0,6.5,0,9.2-2.2.3-.3.8-.2,1.2,0s.2.8,0,1.2c-2.7,2.2-5.5,2.5-8.4,2.5v.2Z"/>
      <path class="st1" d="M38.1,97.4c-.3,0-.7-.2-.8-.5-1-2.5-.8-5,.5-7,1.2-1.8,3.3-2.8,5.8-2.8s5.7,1.5,7.7,4.7c.2.3,0,.8-.3,1.2-.3.2-.8,0-1.2-.3-1.7-2.7-3.7-4-6.4-4s-3.7.7-4.5,2.2c-1,1.5-1,3.3-.3,5.5,0,.3,0,.8-.5,1h-.3l.3.2Z"/>
      <path class="st1" d="M63,96.6c-.5,0-.8-.3-.8-.8,0-7.7-2.3-11.2-8.7-13.7-2.5-.8-4.5-1.3-6.7-.8-.5,0-.8,0-1-.5,0-.5,0-.8.5-1,2.8-.7,5.5,0,7.7.8,7.2,2.7,9.9,6.9,9.9,15.2s-.3.8-.8.8Z"/>
      <path class="st1" d="M80.6,95.6h0c-.5,0-.7-.5-.7-.8,0-.7.2-1.5.2-2.2h0c.5-3.7.2-7-1-9.9-.2-.3,0-.8.5-1,.3-.2.8,0,1,.5,1.3,3.2,1.7,6.7,1.2,10.5,0,.8,0,1.5-.2,2.3,0,.3-.3.7-.8.7l-.2-.2Z"/>
      <path class="st1" d="M45,105c-2.8,0-5.3-1-7-3-.3-.3-.2-.8,0-1.2.3-.3.8-.2,1.2,0,1.7,2,4,2.3,5.7,2.3,3.2,0,5.3-1.2,6-7,0-.5,0-1.2-.2-1.8,0-.5.2-.8.7-1,.5,0,.8.2,1,.7,0,.7.2,1.5.2,2.2-.7,6-3,8.5-7.7,8.5l.2.3Z"/>
      <path class="st1" d="M45,100.6c-.2,0-.3,0-.5-.2-.3-.3-.3-.8,0-1.2,1-1.2,1.5-2,1.3-2.5,0-.5-.7-.8-1.8-1.5-.3-.2-.5-.7-.3-1.2.2-.3.7-.5,1.2-.3,1.2.5,2.3,1.3,2.7,2.7.3,1.3-.7,2.7-1.7,3.8,0,.2-.3.3-.7.3h-.2Z"/>
      <path class="st1" d="M36.6,100.1c-.2,0-.5,0-.7-.3-2.2-2.7-2.8-5.8-2.2-9.9,0-.5.5-.7,1-.7s.7.5.7,1c-.5,3.7,0,6.4,1.8,8.7.3.3.2.8,0,1.2,0,0-.3.2-.5.2l-.2-.2Z"/>
      <path class="st1" d="M34.5,90.3h-.3c-.3-.2-.5-.7-.3-1.2.3-.8.8-1.5,1.2-2.3.2-.5.5-1,.7-1.5l.5-1.2.8,1c.3.3.3.5.5.8v.2c.3.3.3.8,0,1.2s-.8.3-1.2,0h0v.3c-.5.8-.8,1.7-1.2,2.5,0,.3-.5.5-.7.5v-.3Z"/>
      <path class="st1" d="M58,107.6h-.3c-.3,0-.8-.3-.8-.3l-.8-.5.5-.8c.5-.7.8-1.2,1.2-1.5.3-.3.5-.7.8-1s.8-.5,1.2-.2c.3.3.5.8.2,1.2-.3.3-.5.7-.8,1.2,0,.2-.3.5-.5.7.3.2.3.5.3.8s-.5.5-.8.5Z"/>
      <path class="st1" d="M36.5,86.1h-.3c-.5,0-.7-.7-.5-1,0-.3.3-.8.5-1.2.2-.7.5-1.3.7-1.8,0-.5.5-.7,1-.5.5,0,.7.5.5,1-.2.7-.5,1.3-.7,2,0,.3-.3.8-.3,1.2s-.5.5-.8.5v-.2Z"/>
    </g>
    <path class="st2" d="M101.6,67.2h0c-.5,0-.7-.5-.7-.8s0-.8.2-1.2c0-.3,0-.7.2-1,0-.5.5-.8.8-.7.5,0,.7.5.7.8s0,.8-.2,1.2c0,.3,0,.7-.2,1,0,.3-.3.7-.8.7Z"/>
    <path class="st2" d="M97.1,60.8h0c-.5,0-.7-.5-.7-.8s0-.8.2-1.2c0-.3,0-.7.2-1,0-.5.5-.7.8-.7.5,0,.7.5.7.8s0,.8-.2,1.2c0,.3,0,.7-.2,1,0,.3-.3.7-.8.7Z"/>
    <path class="st2" d="M17.9,63.8c-.2,0-.3,0-.5-.2-.3-.3-.7-.5-1-.8-.3-.3-.7-.5-1-.8-.3-.3-.3-.8,0-1.2s.8-.3,1.2,0,.7.5,1,.8c.3.3.7.5,1,.8.3.3.3.8,0,1.2,0,.2-.3.3-.7.3v-.2Z"/>
    <path class="st2" d="M26.3,54.2c-.2,0-.3,0-.5-.2-.7-.5-1.2-1-1.8-1.3-.3-.2-.5-.7-.2-1.2.2-.3.7-.5,1.2-.2.7.5,1.2.8,1.8,1.5.3.3.3.8,0,1.2,0,.2-.3.3-.7.3l.2-.2Z"/>
    <path class="st2" d="M65,100.6h-1.8c-.5,0-.8-.3-.8-.8s.3-.8.8-.8h1.8c.5,0,.8.3.8.8s-.3.8-.8.8Z"/>
    <path class="st2" d="M103.8,69.9h0c-.5,0-.7-.5-.7-1v-.3c0-.5.2-1,.2-1.5s.3-.8.8-.8.8.3.8.8,0,1.2-.2,1.7h0c0,.7-.3,1-.8,1l-.2.2Z"/>
    <path class="st2" d="M62.4,89.4c-.3,0-.7-.3-.8-.7,0-.5.2-.8.7-1,.3,0,.5,0,.8-.2.3,0,.7-.2,1-.2.5,0,.8.2,1,.7,0,.5-.2.8-.7,1-.3,0-.5,0-.8.2-.3,0-.7.2-1,.2h-.2Z"/>
    <path class="st2" d="M99.1,63.3h-.3c-.3,0-.7-.7-.5-1l.7-1.7c0-.3.7-.7,1-.5.3,0,.7.7.5,1l-.7,1.7c0,.3-.5.5-.7.5Z"/>
    <path class="st2" d="M64.2,102.8h0c-.3,0-.7,0-1-.2-.3,0-.5,0-.8-.2-.5,0-.7-.5-.7-1s.5-.7,1-.7.7,0,1,.2c.3,0,.5,0,.8.2.5,0,.7.5.7,1s-.3.7-.8.7h-.2Z"/>
    <path class="st2" d="M81.4,105.8c-.7,0-1.2,0-1.7-.2h-.3c-.5,0-.7-.5-.7-1s.5-.7,1-.7h.3c.5,0,1,.2,1.5.2s.8.3.8.8-.3.8-.8.8h-.2Z"/>
    <path class="st2" d="M80.6,108.3h0c-.3,0-.7,0-1-.2-.3,0-.5,0-.8-.2-.5,0-.7-.5-.7-1s.5-.7,1-.7.7,0,1,.2c.3,0,.5,0,.8.2.5,0,.7.5.7,1s-.3.7-.8.7h-.2Z"/>
    <path class="st2" d="M15.9,68c-.2,0-.3,0-.5-.2-.7-.5-1.2-1-1.8-1.3-.3-.2-.5-.7-.2-1.2.2-.3.7-.5,1.2-.2.7.5,1.2.8,1.8,1.5.3.3.3.8,0,1.2,0,.2-.3.3-.7.3l.2-.2Z"/>
    <path class="st2" d="M14.9,73h-.3c-.5-.2-1-.3-1.5-.7h-.5c-.3-.5-.5-1-.3-1.3s.7-.5,1-.3l.5.3c.5.2.8.5,1.2.5.5,0,.7.7.5,1,0,.3-.5.5-.8.5h.3Z"/>
    <path class="st2" d="M36.3,73.5c-.2,0-.3,0-.5-.2-.7-.5-1.2-1-1.8-1.3-.3-.2-.5-.7-.2-1.2.2-.3.7-.5,1.2-.2.7.5,1.2.8,1.8,1.5.3.3.3.8,0,1.2,0,.2-.3.3-.7.3l.2-.2Z"/>
    <path class="st2" d="M32.6,79.1c-.2,0-.3,0-.5-.2l-1.3-1.3c-.3-.3-.3-.8,0-1.2s.8-.3,1.2,0l1.3,1.3c.3.3.3.8,0,1.2s-.3.2-.5.2h-.2Z"/>
    <path class="st2" d="M34,75.9c-.2,0-.3,0-.5-.2l-1.3-1.3c-.3-.3-.3-.8,0-1.2s.8-.3,1.2,0l1.3,1.3c.3.3.3.8,0,1.2s-.3.2-.5.2h-.2Z"/>
    <path class="st2" d="M22.6,56.8c-.2,0-.3,0-.5-.2l-1.3-1.3c-.3-.3-.3-.8,0-1.2s.8-.3,1.2,0l1.3,1.3c.3.3.3.8,0,1.2s-.3.2-.5.2h-.2Z"/>
    <path class="st2" d="M65.5,96.1h-1.3c-.5,0-.8-.3-.8-.8s.3-.8.8-.8h1.3c.5,0,.8.3.8.8s-.3.8-.8.8Z"/>
    <path class="st2" d="M31.3,80.7h-.3c-.7-.3-1.2-.7-1.7-1-.3-.3-.5-.8,0-1.2.3-.3.8-.5,1.2,0,.3.3.8.5,1.2.8.3,0,.7.7.5,1,0,.3-.5.5-.7.5l-.2-.2Z"/>
    <path class="st2" d="M44.3,66.7c-.2,0-.3,0-.5-.2l-.8-.8c-.3-.3-.3-.8,0-1.2s.8-.3,1.2,0l.8.8c.3.3.3.8,0,1.2,0,0-.3.2-.5.2h-.2Z"/>
    <path class="st2" d="M63.5,90.9c-.3,0-.7-.2-.8-.5,0-.5,0-.8.5-1,.3,0,.8-.3,1.3-.3s.8.3.8.8-.3.8-.8.8-.5,0-.8.2h-.3.2Z"/>
    <path class="st2" d="M42.5,67.5c-.2,0-.3,0-.5-.2l-.8-.8c-.3-.3-.3-.8,0-1.2s.8-.3,1.2,0l.8.8c.3.3.3.8,0,1.2s-.3.2-.5.2h-.2Z"/>
    <path class="st2" d="M48.8,83.1c-.3,0-.5,0-.7-.5-.2-.3,0-.8.3-1h.2c.2,0,.5-.3.8-.3.5,0,.8,0,1,.5,0,.5,0,.8-.5,1-.2,0-.3,0-.5.2h-.7v.2Z"/>
    <path class="st2" d="M19.4,59.8c-.2,0-.3,0-.5-.2l-.8-.8c-.3-.3-.3-.8,0-1.2s.8-.3,1.2,0l.8.8c.3.3.3.8,0,1.2,0,0-.3.2-.5.2h-.2Z"/>
    <path class="st2" d="M35.6,91.3h-.5c-.7-.5-1.5-1-2.2-1.3-.3-.2-.5-.7-.3-1.2.2-.3.7-.5,1.2-.3.8.5,1.5.8,2.3,1.5.3.3.5.8.2,1.2,0,.2-.3.3-.7.3v-.2Z"/>
    <path class="st2" d="M37.1,42.3c-.3,0-.5,0-.7-.5v-.2c0-.2-.3-.5-.3-.8,0-.5,0-.8.5-1,.5,0,.8,0,1,.5,0,.2,0,.3.2.5v.3c.2.3,0,.8-.3,1.2,0,0-.2,0-.3,0Z"/>
    <path class="st2" d="M88.6,49.5c-.2,0-.3,0-.5-.2l-.5-.5c-.3-.3-.3-.8,0-1.2s.8-.3,1.2,0l.5.5c.3.3.3.8,0,1.2,0,0-.3.2-.5.2h-.2Z"/>
    <path class="st2" d="M74.6,70.9c-.2,0-.3,0-.5-.2l-.5-.5c-.3-.3-.3-.8,0-1.2s.8-.3,1.2,0l.5.5c.3.3.3.8,0,1.2s-.3.2-.5.2h-.2Z"/>
    <path class="st2" d="M32.9,96.1c-.2,0-.3,0-.5-.2-.3-.3-.3-.8,0-1.2l.5-.5c.3-.3.8-.3,1.2,0s.3.8,0,1.2l-.5.5s-.3.2-.5.2h-.2Z"/>
    <path class="st2" d="M94.5,55.8c-.2,0-.3,0-.5-.2-.3-.3-.3-.8,0-1.2l.5-.5c.3-.3.8-.3,1.2,0s.3.8,0,1.2l-.5.5s-.3.2-.5.2h-.2Z"/>
    <path class="st2" d="M106.2,75.7c-.2,0-.3,0-.5-.2-.3-.3-.3-.8,0-1.2l.5-.5c.3-.3.8-.3,1.2,0s.3.8,0,1.2l-.5.5s-.3.2-.5.2h-.2Z"/>
    <path class="st2" d="M30.3,96.4c-.2,0-.3,0-.5-.2-.3-.3-.3-.8,0-1.2l.5-.5c.3-.3.8-.3,1.2,0s.3.8,0,1.2l-.5.5s-.3.2-.5.2h-.2Z"/>
    <path class="st2" d="M84.1,100.6c-.2,0-.3,0-.5-.2-.3-.3-.3-.8,0-1.2l.5-.5c.3-.3.8-.3,1.2,0s.3.8,0,1.2l-.5.5s-.3.2-.5.2h-.2Z"/>
    <path class="st2" d="M81.4,103.3c-.2,0-.3,0-.5-.2l-.5-.5c-.3-.3-.3-.8,0-1.2s.8-.3,1.2,0l.5.5c.3.3.3.8,0,1.2,0,0-.3.2-.5.2h-.2Z"/>
    <path class="st2" d="M83.6,104.3c-.2,0-.3,0-.5-.2l-.5-.5c-.3-.3-.3-.8,0-1.2s.8-.3,1.2,0l.5.5c.3.3.3.8,0,1.2,0,0-.3.2-.5.2h-.2Z"/>
    <path class="st2" d="M63.7,106.5c-.2,0-.3,0-.5-.2l-.5-.5c-.3-.3-.3-.8,0-1.2s.8-.3,1.2,0l.5.5c.3.3.3.8,0,1.2s-.3.2-.5.2h-.2Z"/>
    <path class="st2" d="M47.8,65.3c-.2,0-.3,0-.5-.2l-.5-.5c-.3-.3-.3-.8,0-1.2s.8-.3,1.2,0l.5.5c.3.3.3.8,0,1.2s-.3.2-.5.2h-.2Z"/>
    <path class="st2" d="M79.1,42.8c-.2,0-.3,0-.5-.2l-.5-.5c-.3-.3-.3-.8,0-1.2s.8-.3,1.2,0l.5.5c.3.3.3.8,0,1.2,0,0-.3.2-.5.2h-.2Z"/>
    <path class="st2" d="M77.7,112c-.2,0-.3,0-.5-.2l-.5-.5c-.3-.3-.3-.8,0-1.2s.8-.3,1.2,0l.5.5c.3.3.3.8,0,1.2s-.3.2-.5.2h-.2Z"/>
    <path class="st2" d="M57.9,109.6c-.2,0-.3,0-.5-.2l-.5-.5c-.3-.3-.3-.8,0-1.2s.8-.3,1.2,0l.5.5c.3.3.3.8,0,1.2,0,0-.3.2-.5.2h-.2Z"/>
    <path class="st2" d="M51.3,92.8c-.3,0-.5,0-.7-.5-.2-.3,0-.8.3-1,.3,0,.7-.3,1-.3s.8.3.8.8-.3.8-.8.8h-.7v.2Z"/>
    <path class="st2" d="M83.1,107c-.2,0-.3,0-.5-.2l-.5-.5c-.3-.3-.3-.8,0-1.2s.8-.3,1.2,0l.5.5c.3.3.3.8,0,1.2,0,0-.3.2-.5.2h-.2Z"/>
  </g>
</svg>