<?xml version="1.0" encoding="UTF-8"?>
<svg id="Layer_1" xmlns="http://www.w3.org/2000/svg" version="1.1" viewBox="0 0 120 120">
  <!-- Generator: Adobe Illustrator 29.8.1, SVG Export Plug-In . SVG Version: 2.1.1 Build 2)  -->
  <defs>
    <style>
      .st0 {
        fill: #fff;
      }

      .st1 {
        fill: #f4d1a8;
      }

      .st2 {
        fill: #caa170;
      }
    </style>
  </defs>
  <path class="st0" d="M73.5,115.1c-2.4-1-4.6-1.7-6.1-2-2-.5-3.9-.7-4.7-.7h-3.7c-.3,0-.7-.2-1-.5-3.2,2.7-6.3,4.2-8.3,5.3-3.6,1.7-5.9,2.7-8,1.9-1.4-.5-2.5-2.2-4.9-5.6-1.7-2.5-2.7-3.7-3.1-4.6-2.4-5.4-.3-11,0-12.2,2.2-6.4,7.5-9.5,9-10.3-1.5-7,0-13.6,4.2-17.1,1-.8,2.5-1.7,4.7-2.2-.2-.7-2.2-6.1,1-11,2-3.2,5.1-4.4,6.3-4.7-2.4-3.9-3.4-8.3-1.9-10.5.7-1,2.4-2.5,3.9-3.6.7-.5,1.4-.8,1.7-1-.2-.5-1.4-2.9-.2-5.6,1.2-3.2,4.2-4.2,4.6-4.4-.2-.5-1.5-3.6,0-7,1.4-2.9,3.9-4.1,4.4-4.2-.3-.7-1-1.9-.7-3.1.2-2.2,2.2-2.4,3.4-5.3.8-2.2.2-3.1,1.4-4.2,1-1,2.5-1.4,3.1-1.4,1.9-.2,3.2.3,3.9.7.7.3,2.7,1.2,3.4,3.4,1,2.7-.7,5.1-.8,5.4.3.3,2.7,2.9,2.4,6.4-.2,2.7-1.9,4.4-2.2,4.9.3.5,2.5,3.2,1.9,7.1-.7,3.1-2.7,4.7-3.1,5.1.7.8,1.9,3.1,1.9,6.3s-2.7,7-3.4,7.5c3.2,5.1,3.7,10.5,1.2,13.9-.7.7-1.4,1.7-3.1,2.4.5.7,5.1,8,1.9,15.1-1.2,2.5-2.9,4.1-4.2,5.1.8,1,4.1,5.9,3.2,12.7-.8,6.1-4.4,9.8-5.4,10.9.2.2,1.4,1.5,1.4,3.4s-1.5,3.7-3.7,4.4h0l-.2-.5Z"/>
  <g>
    <path class="st2" d="M42.8,119.8c-3.1,0-4.7-2-6.3-4.9-.7-1.5-1.4-2.7-2.5-4.1-1.5-1.9-2.2-4.9-2-7.1,0-5.9,1.7-10.7,5.1-14.2,1-1.2,2.4-2.2,3.7-3.1.5-.3.8-.7,1.4-1-2.2-10.2.5-16.5,8.5-19.3-1-2.2-1-5.1,0-7.6,1.2-3.4,3.7-6.3,6.8-7.5.5-.2,1,0,1.2.5s0,1-.5,1.2c-2.5,1-4.7,3.6-5.8,6.4-.8,2.5-.7,5.3.5,7.1l.5,1-1,.3c-7.8,2.4-10.5,8.1-8.1,18.1v.5l-.3.3c-.7.5-1.2,1-1.9,1.4-1.2.8-2.4,1.7-3.4,2.9-3.1,3.2-4.6,7.6-4.6,13.1s.5,4.6,1.5,5.9c1.4,1.5,2,2.9,2.9,4.6,1.7,3.6,3.4,4.4,6.8,3.6.3,0,.7,0,.8-.2.3,0,.5,0,.8-.2.5,0,1,.2,1,.7s-.2,1-.7,1-.5,0-.8.2c-.3,0-.5,0-.8.2-1,.2-1.9.3-2.5.3l-.2-.2Z"/>
    <path class="st2" d="M66.9,25.4c-.3,0-.7-.3-.8-.7-.7-2.7-.5-5.3.7-7.3.7-1,1.7-1.9,2.7-2.5.2,0,.5-.3.7-.5-1.5-2.9.7-5.4,2.4-7.5.5-.5.7-1,.7-1.2.3-2.5,1-4.1,2.4-4.9s3.1-1,5.4-.3h1.2c.5,0,.8.7.7,1,0,.5-.7.8-1,.7h-1.2c-1.9-.5-3.1-.5-3.9,0s-1.4,1.7-1.5,3.6c0,1-.8,2-1.2,2.4-2,2.4-3.2,4.1-1.9,5.9l.5.7-.7.5c-.5.3-1,.7-1.5,1-1,.7-1.9,1.2-2.2,1.9-.8,1.7-1,3.7-.5,5.9,0,.5,0,1-.7,1h-.2v.3Z"/>
    <path class="st2" d="M80.9,64c-.3,0-.7,0-.8-.5-.3-.3,0-1,.3-1.2,1.7-1,2.7-1.9,3.1-3.6.8-3.6.2-7-2.2-10.9l-.3-.7.5-.5c3.1-2.9,4.4-8.3,1.5-12.6-.3-.3-.2-1,.2-1.2.3-.3,1-.2,1.2.2,3.4,4.9,2,10.9-1.2,14.4,2.4,4.1,3.1,7.8,2,11.7-.5,2.4-2.4,3.6-3.9,4.6h-.5l.2.2Z"/>
    <path class="st2" d="M75.7,108.5c-.2,0-.3,0-.5-.2-.3-.3-.5-.8-.2-1.2,0-.2.2-.3.3-.5.2-.3.3-.7.7-1,3.7-4.2,5.3-9.2,4.2-14.6-.5-2.5-1.4-5.3-3.9-6.6-.5-.2-.7-.8-.3-1.2.2-.5.8-.7,1.2-.3,3.2,1.7,4.1,4.9,4.7,8,1.2,6.1-.5,11.5-4.6,16.3,0,0-.3.3-.5.7,0,.2-.3.5-.5.7-.2.2-.5.3-.7.3v-.3Z"/>
    <path class="st2" d="M78,84.7c-.2,0-.5,0-.7-.2-.3-.3-.3-.8,0-1.2.3-.5.8-.8,1.4-1.4.8-.8,1.7-1.7,2.2-2.5,1.9-3.2,1.9-6.8.3-11,0-.5-.3-.8-.3-1.4-.3-1.4-.7-2.7-1.9-3.4-.3-.3-.5-.8-.3-1.2.3-.3.8-.5,1.2-.3,1.9,1.2,2.2,2.9,2.7,4.4,0,.3.2.8.3,1.2,1.7,4.6,1.5,8.8-.5,12.6-.7,1-1.5,2-2.5,2.9-.5.3-.8.8-1.2,1.2s-.3.3-.7.3h0Z"/>
    <path class="st2" d="M59,51.8c-.3,0-.7-.2-.8-.5-.2-.5-.5-1-.8-1.4-.7-1.2-1.4-2.2-1.7-3.6-1.2-4.9,1-9,6.1-10.9-.8-2.2-.8-4.6,0-6.4.8-2,2.5-3.4,5.1-4.2.5,0,1,0,1.2.5,0,.5,0,1-.5,1.2-1.9.7-3.2,1.7-3.9,3.2s-.7,3.6.2,5.6v.7c0,.3-.5,1-1,1-4.2,1.5-6.1,4.7-5.1,8.7.3,1,.8,2,1.5,3.1.3.5.7,1,.8,1.5.2.5,0,1-.3,1.2h-.5l-.2.3Z"/>
    <path class="st2" d="M85.3,22.1c-.2,0-.3,0-.5-.2-.3-.3-.5-.8,0-1.2,1.5-1.9,1.9-4.2,1.2-6.6-.7-2.4-2.5-4.2-4.7-4.7-.5,0-.7-.7-.7-1.2s.7-.7,1.2-.7c2.7.8,5.1,3.1,5.9,5.9.8,2.9.3,5.9-1.4,8.3-.2.2-.5.3-.7.3h-.3Z"/>
    <path class="st2" d="M84,34.3c-.2,0-.5,0-.7-.3-.3-.3-.3-.8,0-1.2,2.5-2.4,3.1-5.3,1.9-8.7,0-.2,0-.5-.2-.7-.3-1-.5-1.4-1.2-1.7-.5,0-.7-.7-.5-1.2,0-.5.7-.7,1.2-.5,1.5.5,2,1.7,2.4,2.7,0,.2,0,.3.2.7,1.5,3.9.7,7.6-2.4,10.5-.2,0-.3.2-.7.2v.2Z"/>
    <path class="st2" d="M73.3,116.1h-.8c-4.2-2.2-8.1-2.9-12-2.5-1,0-3.4,0-3.4-2v-.3l2.4-6.8c0-.5.7-.7,1.2-.5.5,0,.7.7.5,1.2l-2.2,6.6h1.5c4.1-.5,8.3.3,12.7,2.5.3,0,.7,0,1,.3s.3.8,0,1.2-.3.3-.7.3h-.2Z"/>
    <path class="st2" d="M48.2,118.5c-.3,0-.8-.3-.8-.7,0-.5.2-1,.7-1,3.4-.8,6.3-2.5,9.3-5.6s.8-.3,1.2,0,.3.8,0,1.2c-3.2,3.2-6.4,5.1-10.2,5.9h-.2v.2Z"/>
    <path class="st2" d="M63.5,49.6h-.2c-.7-.2-1.5-.3-2.2-.7-.7-.2-1.4-.3-2-.5-.5,0-.8-.7-.7-1,0-.5.7-.8,1-.7.7.2,1.5.3,2.2.7.7.2,1.4.3,2,.5.5,0,.8.7.7,1,0,.3-.5.7-.8.7Z"/>
    <path class="st2" d="M48.5,86.9h-.3c-.5-.2-1-.5-1.7-.7-.5-.2-1.2-.5-1.7-.7s-.7-.7-.5-1.2c.2-.5.7-.7,1.2-.5.5.2,1,.5,1.7.7.5.2,1.2.5,1.7.7s.7.7.5,1.2c0,.3-.5.5-.8.5Z"/>
    <path class="st2" d="M71.3,25.7h-.3c-.5-.2-1-.3-1.4-.5-.5,0-1-.3-1.5-.5s-.7-.7-.5-1.2.7-.7,1.2-.5c.5.2,1,.3,1.4.5.5,0,1,.3,1.5.5s.7.7.5,1.2c0,.3-.5.5-.8.5Z"/>
    <path class="st2" d="M85.3,9.7h0c-.5,0-.8-.5-.8-1s0-1,.2-1.7c0-.5.2-1,.2-1.5s.5-.8,1-.8.8.5.8,1,0,1-.2,1.5c0,.5-.2,1-.2,1.5s-.5.8-.8.8l-.2.2Z"/>
    <path class="st2" d="M44.1,91.8h-.5c-.3-.2-.8-.5-1.2-.7-.5-.2-.8-.5-1.4-.7s-.5-.8-.3-1.2c.2-.5.8-.5,1.2-.3.3.2.8.5,1.2.7.5.2.8.5,1.4.7s.5.8.3,1.2c0,.3-.5.5-.8.5l.2-.2Z"/>
    <path class="st2" d="M42.4,93h-.2c-.5,0-.8-.3-1.4-.5-.3,0-.8-.3-1.2-.3-.5,0-.7-.7-.7-1.2s.7-.7,1.2-.7.8.3,1.4.5c.3,0,.8.3,1.2.3.5,0,.7.7.7,1.2s-.5.7-.8.7h-.2Z"/>
    <path class="st2" d="M84.5,25c-.2,0-.3,0-.5-.2l-2.4-1.9c-.3-.3-.5-.8-.2-1.2.3-.3.8-.5,1.2-.2l2.4,1.9c.3.3.5.8.2,1.2-.2.2-.5.3-.7.3Z"/>
    <path class="st2" d="M64,51.3h-.2c-.5,0-.8-.3-1.4-.5-.3,0-.8-.3-1.2-.3-.5,0-.7-.7-.7-1.2s.7-.7,1.2-.7.8.3,1.4.5c.3,0,.8.3,1.2.3.5,0,.7.7.7,1.2s-.5.7-.8.7h-.2Z"/>
    <path class="st2" d="M78.7,93.5c-.2,0-.5,0-.7-.3-.7-.7-1.4-1.5-2-2.2-.3-.3-.3-1,0-1.4.3-.3,1-.3,1.2,0h0c.7.7,1.2,1.4,1.9,2,.3.3.3.8,0,1.2s-.3.3-.7.3l.3.3Z"/>
    <path class="st2" d="M63.1,113h-.5c-.3-.2-.5-.3-.8-.5-.3,0-.5-.3-.8-.5-.5-.3-.5-.8-.3-1.2.2-.5.8-.5,1.2-.3.3.2.5.3.8.5.3,0,.5.3.8.5.5.3.5.8.3,1.2,0,.3-.5.5-.8.5l.2-.2Z"/>
    <path class="st2" d="M81.8,61.1c-.3,0-.5,0-.7-.3s-.5-.7-.7-1c-.2-.3-.5-.7-.7-1s0-1,.2-1.2c.3-.3,1,0,1.2.2.2.3.5.7.7,1,.2.3.5.7.7,1s0,1-.2,1.2h-.5v.2Z"/>
    <path class="st2" d="M61.4,46.9h-.2l-1.9-.3c-.5,0-.8-.5-.7-1,0-.5.5-.8,1-.7l1.9.3c.5,0,.8.5.7,1,0,.5-.5.7-.8.7Z"/>
    <path class="st2" d="M78,90.3c-.2,0-.3,0-.5-.2-.5-.3-.8-.8-1.2-1.2l-.5-.5c-.3-.3-.3-.8,0-1.2s.8-.3,1.2,0l.5.5,1,1c.3.3.5.8,0,1.2-.2.2-.5.3-.7.3h.2Z"/>
    <path class="st2" d="M84.7,26.2c-.2,0-.3,0-.5-.2-.2-.2-.5-.3-.8-.7-.3-.2-.5-.3-.7-.5-.3-.3-.5-.8-.2-1.2.3-.3.8-.5,1.2-.2.2.2.5.3.8.7.3.2.5.3.8.7s.5.8.2,1.2c-.2.2-.5.3-.7.3l-.2-.2Z"/>
    <path class="st2" d="M85.3,19.8c-.2,0-.3,0-.5-.2l-1.5-1.2c-.3-.3-.5-.8,0-1.2.3-.3.8-.5,1.2,0l1.5,1.2c.3.3.5.8,0,1.2-.2.2-.5.3-.7.3v-.2Z"/>
    <path class="st2" d="M62.4,110.2h-.2l-1.9-.3c-.5,0-.8-.5-.7-1,0-.5.5-.8,1-.7l1.9.3c.5,0,.8.5.7,1,0,.5-.5.7-.8.7Z"/>
    <path class="st2" d="M78.7,95.9c-.3,0-.5,0-.7-.3l-1-1.5c-.3-.3-.2-1,.2-1.2.3-.3,1-.2,1.2.2l1,1.5c.3.3.2,1-.2,1.2h-.5v.2Z"/>
    <path class="st2" d="M38.9,95.6h-.5s-.3-.2-.5-.3c-.2,0-.5-.3-.7-.3-.3-.3-.5-.8-.2-1.2.3-.3.8-.5,1.2-.2,0,0,.3.2.5.3.2,0,.5.3.7.3.3.3.5.8.2,1.2-.2.3-.5.3-.7.3v-.2Z"/>
    <path class="st2" d="M40.4,94.6h-.5s-.3-.2-.5-.3c-.2,0-.5-.3-.7-.3-.3-.3-.5-.8-.2-1.2.3-.3.8-.5,1.2-.2,0,0,.3.2.5.3.2,0,.5.3.7.3.3.3.5.8.2,1.2-.2.3-.5.3-.7.3v-.2Z"/>
    <path class="st2" d="M60.7,112.5h-1.4c-.5-.3-.8-.8-.7-1.4,0-.5.5-.8,1-.7h1.4c.5.3.8.8.7,1.4,0,.5-.5.7-.8.7h-.2Z"/>
    <path class="st2" d="M78.6,81.3c-.2,0-.3,0-.5-.2-.5-.3-.8-.8-1.4-1.2-.3-.3-.3-.8,0-1.4.3-.3.8-.3,1.2,0h0l1,1c.3.3.5.8.2,1.2-.2.2-.5.3-.7.3l.2.2Z"/>
    <path class="st2" d="M82.6,59.1c-.3,0-.5,0-.7-.3l-.7-1c-.3-.3,0-1,.2-1.2.3-.3,1,0,1.2.2l.7,1c.3.3,0,1-.2,1.2h-.5v.2Z"/>
    <path class="st2" d="M79.4,80.1c-.3,0-.5,0-.7-.3l-.7-1c-.3-.3,0-1,.2-1.2.3-.3,1,0,1.2.2l.7,1c.3.3,0,1-.2,1.2h-.5v.2Z"/>
    <path class="st2" d="M47.5,105.2c-.3,0-.5,0-.7-.3l-.7-1c-.3-.3,0-1,.2-1.2.3-.3,1,0,1.2.2l.7,1c.3.3,0,1-.2,1.2h-.5v.2Z"/>
    <path class="st2" d="M57,56.6h-.7c-.2-.3-.5-.5-.7-.7-.3-.3-.3-.8,0-1.2s.8-.3,1.2,0c0,0,.2.2.3.3h.3c.3.5.5,1,.2,1.4-.2.3-.5.3-.7.3v-.2Z"/>
    <path class="st2" d="M53.1,68.3c-.2,0-.5,0-.7-.3-.3-.3-.3-.8,0-1.2,0,0,.3-.2.3-.3h0c.3-.3,1-.3,1.2,0s.3.8,0,1.2l-.3.3h0c-.2,0-.3.2-.7.2l.2.2Z"/>
    <path class="st2" d="M59.6,54.2c-.2,0-.5,0-.7-.3-.3-.3-.3-.8,0-1.2,0,0,.2-.2.3-.3h0c.3-.3,1-.3,1.2,0,.3.3.3.8,0,1.2s-.2.2-.3.3h0c-.2,0-.3.2-.7.2l.2.2Z"/>
    <g>
      <path class="st1" d="M40.4,113.6c-.5,0-.8-.3-.8-.8-.8-5.4,2-10,8.3-13.7h.3c.8-.7,1.7-1.2,2.7-1.4,2-.3,4.6-.5,6.3,1.7h.5c.3,0,.5,0,.8-.2.5,0,1,.2,1,.7s-.2,1-.7,1-.5,0-.7.2c-.3,0-.8.2-1.2.3h-.7l-.3-.3c-1-1.7-2.5-1.7-4.7-1.4-.7,0-1.4.7-2.2,1h-.3c-5.8,3.4-8.1,7.3-7.5,12,0,.5-.3,1-.7,1h0l-.2-.2Z"/>
      <path class="st1" d="M77.4,83.4c-.3,0-.5,0-.7-.3-.3-.3-.7-.8-1-1.2-.7-.8-1.4-1.9-2.2-2.5-1.7-1.2-3.4-2.4-5.3-3.6-1-.7-2-1.4-3.1-2-.3-.3-.5-.8-.2-1.2.3-.3.8-.5,1.2-.2,1,.7,2,1.4,3.1,2,1.9,1.2,3.6,2.4,5.3,3.7,1,.8,1.9,1.9,2.5,2.9.3.3.7.8.8,1.2.3.3.3,1,0,1.2,0,0-.3.2-.5.2v-.2Z"/>
      <path class="st1" d="M56.2,93.5c-.2,0-.5,0-.7-.3,0,0-.3-.3-.3-.5h0c-1.7-.8-3.4-1.7-5.3-2.5-1.7-.8-3.6-1.7-5.3-2.7-.5-.2-.7-.8-.3-1.2s.8-.7,1.2-.3c1.7.8,3.6,1.7,5.3,2.5s3.6,1.7,5.3,2.7c.3.2.5.5.7.7v.2c.3.3.3.8,0,1.2s-.3.3-.7.3h.2ZM55.3,92.7h0Z"/>
      <path class="st1" d="M72.1,56.9h-.3c-1.7-.7-3.4-1.5-5.1-2.2-1.7-.7-3.4-1.5-5.1-2.2-.5-.2-.7-.7-.5-1.2s.7-.7,1.2-.5c1.7.7,3.4,1.5,5.1,2.2,1.7.7,3.4,1.5,5.1,2.2.5.2.7.7.5,1.2,0,.3-.5.5-.8.5Z"/>
      <path class="st1" d="M75.5,43.7h-.5c-3.6-2.5-7.3-5.1-11-7.5-.3-.3-.5-.8-.2-1.2s.8-.5,1.2-.2c3.6,2.4,7.5,4.9,11,7.5.3.3.5.8.2,1.2-.2.2-.5.3-.7.3v-.2Z"/>
      <path class="st1" d="M76.3,113.6h-.3c-.5-.2-.7-.7-.5-1.2.2-.3.3-.8.5-1.4,0-.3.2-.5.3-.8-.5-.7-1-1.4-1.5-2h0c-2.4,1.7-5.1,1.9-7.5,1.9s-.8-.3-.8-.8.3-.8.8-.8c2.9,0,5.1-.3,7-2l.7-.7,1.2,1.5c.7.8,1.2,1.5,1.9,2.5l.3.3v.5c-.3.3-.5.8-.7,1.4s-.3.8-.5,1.4c0,.3-.5.5-.8.5v-.2Z"/>
      <path class="st1" d="M77.7,17.9h-.3c-.8-.3-1.5-.7-2.2-1s-1.5-.7-2.2-1c-.5-.2-.7-.7-.5-1.2s.7-.7,1.2-.5c.8.3,1.5.7,2.4,1,.7.3,1.5.7,2.2,1,.5.2.7.7.5,1.2,0,.3-.5.5-.8.5h-.2Z"/>
      <path class="st1" d="M72.3,27.7h-.2c-.7-.2-1.5-.3-2.2-.7-.7-.2-1.4-.3-2.2-.5-.5,0-.8-.7-.7-1,0-.5.7-.8,1-.7.7.2,1.5.3,2.2.7.7.2,1.4.3,2,.5.5,0,.8.7.7,1,0,.3-.5.7-.8.7h.2Z"/>
      <path class="st1" d="M81.1,63.2c-.3,0-.5,0-.7-.3-.5-.7-1-1.4-1.5-2s-1-1.4-1.5-2c-.3-.3-.3-1,0-1.2.3-.3,1-.3,1.2,0,.5.7,1,1.4,1.5,2s1,1.4,1.5,2c.3.3.3,1,0,1.2,0,0-.3.2-.5.2v.2Z"/>
      <path class="st1" d="M62.1,111.3h0c-1,0-2-.2-3.2-.3h-.3c-.5,0-.8-.5-.8-1s.5-.8,1-.8h.3c1,0,2.2.2,3.2.3.5,0,.8.5.8,1s-.5.8-.8.8h-.2Z"/>
      <path class="st1" d="M57.9,72.3h-.3c-.7-.2-1.2-.3-1.7-.5-.5-.2-1.2-.3-1.7-.5-.5,0-.7-.7-.7-1.2s.7-.7,1.2-.7c.5.2,1.2.3,1.7.5.5.2,1.2.3,1.7.5.5,0,.7.7.7,1.2s-.5.7-.8.7Z"/>
      <path class="st1" d="M84.5,20.4h-.5c-.3-.2-.8-.5-1.2-.7s-.8-.5-1.4-.7c-.5-.2-.5-.8-.3-1.2.2-.5.8-.5,1.2-.3s.8.5,1.2.7c.5.2.8.5,1.4.7.5.2.5.8.3,1.2,0,.3-.5.5-.8.5l.2-.2Z"/>
      <path class="st1" d="M67.5,38.4h0c-.7,0-1.4-.3-2-.5h-.5c-.5-.3-.7-.8-.7-1.2,0-.5.7-.7,1.2-.7h.5c.7.3,1.2.5,1.9.5s.8.5.7,1c0,.5-.5.8-.8.8h-.2Z"/>
      <path class="st1" d="M82.3,33.3c-.2,0-.3,0-.5-.2l-1.9-1.4c-.3-.3-.5-.8,0-1.2.3-.3.8-.5,1.2,0l1.9,1.4c.3.3.5.8,0,1.2-.2.2-.5.3-.7.3v-.2Z"/>
      <path class="st1" d="M76.7,5c-.2,0-.5,0-.7-.3-.3-.3-.3-.8,0-1.2l.3-.3h0c.3-.3,1-.3,1.2,0,.3.3.3.8,0,1.2l-.3.3h0c-.2,0-.3.2-.7.2l.2.2Z"/>
    </g>
    <path class="st2" d="M84.8,28.1c-.2,0-.5,0-.7-.2,0,0-.2-.2-.3-.3s0,0,0,0c-.3-.3-.3-1,0-1.2.3-.3.8-.3,1.2,0,0,0,.2.2.3.3s0,0,0,0c.3.3.3,1,0,1.2-.2,0-.3.2-.7.2h.2Z"/>
    <path class="st2" d="M78.6,97.1c-.3,0-.5,0-.7-.3l-.3-.5c-.3-.3-.2-1,.2-1.2.3-.3,1-.2,1.2.2l.3.5c.3.3.2,1-.2,1.2,0,0-.3.2-.5.2Z"/>
  </g>
</svg>