<?xml version="1.0" encoding="UTF-8"?>
<svg id="Layer_1" xmlns="http://www.w3.org/2000/svg" version="1.1" viewBox="0 0 120 120">
  <!-- Generator: Adobe Illustrator 29.8.1, SVG Export Plug-In . SVG Version: 2.1.1 Build 2)  -->
  <defs>
    <style>
      .st0 {
        fill: #fff;
      }

      .st1 {
        fill: #f4d1a8;
      }

      .st2 {
        fill: #caa170;
      }
    </style>
  </defs>
  <path class="st0" d="M86.2,119h-20c-.8,0-1.5-.2-2.4-.2-1.6,0-3.2,0-4.5.2h-2.9c-5.6-.3-6-1.1-12.1-1.1s-4.2,0-7.6-1.5c-.6-.3-1.1-.5-1.5-.8-1.1-.8-1.9-1.9-3.4-7.3-1.1-4-1.3-5.3-.8-6.6.2-.8.6-1.5.8-1.8-2.9-1.5-6-2.9-8.9-4.2-2.3-3.7-4.4-6.3-5.6-8.1-1.1-1.5-1.9-2.4-2.3-4.2-.5-1.9.5-2.7-.2-5-.5-1.5-.8-1.6-1.3-3.4-.5-1.5-.5-2.7-.5-3.6.5-.8,1.1-1.5,1.5-2.1,0-1.5,0-2.6.2-4,.6-.8,1.3-1.6,1.8-2.6,0-1,.2-1.8.3-2.7.5-1,1.1-2.3,2.1-3.9,2.3-3.9,3.6-6,5.6-7.9,2.7-2.3,3.9-1.9,5.3-4,.8-1.1,1.1-2.4,2.6-3.1.8-.5,1.3-.2,2.6-.8s2.3-1.1,2.7-1.5c1.9-1.5,1.6-1.9,3.2-2.9s3.2-1.1,4-1.3c1.5,0,2.7,0,3.6.3.5.2,1.1.5,1.6.3.5,0,.8-.3,1.1-.5.8-.6,3.6-2.3,5.8-1.9.3,0,1.1.2,1.8,0,.5,0,.6-.3.8-.5,1.1-.5,2.3,1,3.9,1.6,2.3,1.1,3.2-.2,6,.6,1.5.5,2.6,1.3,3.2,1.8l3.9,1.5c1.6,0,2.9.3,3.6.6,1.9.8,2.3,1.6,4.5,2.4,1.6.6,1.8.2,3.1.8,1.8,1,2.9,2.6,3.1,2.9.8,1.3.6,1.8,1.5,2.7.8.8,1.8,1.3,1.9,1.5,1.1.5,1.3.2,1.9.6.8.6,1.1,1.6,1.5,2.3.5,1.5.2,2.6,0,3.4,3.7,1.8,5.3,3.9,6,5.5,1.1,2.6,0,3.4,1.3,7.6,1.1,3.7,2.3,4.5,1.9,6.8-.5,2.1-1.8,2.3-1.6,4.2,0,1.9,1.6,2.7,1.3,4.7-.2.8-.5.8-1.1,2.1s-.5,2.6-.5,3.4c0,2.3.5,2.4,0,3.9,0,.5-.5,1.5-1.3,2.4-.6.8-1.1.8-1.6,1.5-.8,1-1.1,1.9-1.1,2.3-.5,1.3-3.4,2.9-13.7,4.8,2.9,4.8,3.6,10,1.1,13.1-.5.6-1.3,1.5-2.4,1.9h.3v-.3Z"/>
  <g>
    <path class="st2" d="M52.6,119.4h0c-.6,0-1.5-.2-2.3-.2-1.5-.2-2.9-.3-4.2-.5-2.1-.2-4.2-.5-6.3-.8-2.1-.5-4.7-1.1-6.1-3.6-1.3-2.1-2.1-4.2-2.6-6.1,0-.3-.2-.6-.3-1.1-.6-2.3-1.3-4.7,0-7.3-.5-.2-1-.5-1.5-.6-1.3-.6-2.6-1.1-3.9-1.8-.3-.2-.5-.6-.3-1.1.2-.3.6-.5,1.1-.3,1.3.6,2.6,1.1,3.9,1.8.8.3,1.5.6,2.3,1l.8.3-.5.8c-1.5,2.3-1,4.5-.3,6.8,0,.3.2.6.3,1.1.5,1.8,1.3,3.7,2.4,5.6,1,1.8,3.1,2.4,5,2.7,1.9.3,4.2.5,6.1.6,1.3,0,2.7.3,4.2.5.6,0,1.6,0,2.4.2.5,0,.8.5.6,1,0,.3-.3.6-.8.6l-.2.3Z"/>
    <path class="st2" d="M88.8,104.5c-.3,0-.8-.3-.8-.6,0-.5.3-.8.6-.8,4.8-.6,8.7-1.9,11.8-4.2v-.5c.3-1,.8-2.1,1.8-2.6,2.3-1.1,2.3-2.9,1.9-5.5-.2-1.6-.3-3.6,1-5.3.6-.8.6-1.8.2-2.9-.6-1.5-1.5-3.7,0-5.8,1.8-2.7.6-5.3-.8-7.6-.2-.3,0-.8.2-1.1.3-.2.8,0,1.1.2,1.6,2.6,3.1,5.8.8,9.4-.8,1.3-.3,2.7.3,4.4.6,1.6.5,3.1-.5,4.4-.8,1.3-1,2.6-.6,4.4.2,2.3.5,5.5-2.9,7.1-.3.2-.6,1.1-1,1.8,0,.2-.2.5-.3.6h0c0,.2-.2.3-.2.3-3.4,2.6-7.4,4-12.8,4.7h0l.2-.2ZM101.1,99.2h0Z"/>
    <path class="st2" d="M76.2,120c-3.4,0-6.9,0-10-.2-.5,0-.8-.3-.8-.8s.3-.8.8-.8c3.1,0,6.6.2,9.8.2h9c1.5,0,.8.3.8.8s-.3.8-.8.8h-9,.2Z"/>
    <path class="st2" d="M13.1,71.7c-.3,0-.6-.2-.8-.5,0-.5,0-.8.5-1,.3,0,1.3-.5,1-2.1-.5-2.3.5-4.2,1.6-5.6h0c0-.3.5-.8.5-1-.3-2.6,1-4.5,2.4-6.3.2-.3.5-.5.6-.8.3-.3.8-.5,1.1-.2s.5.8.2,1.1c-.2.3-.5.6-.6.8-1.3,1.6-2.4,3.1-2.1,5.2h0c0,.6-.3,1.3-1,1.9h0c-1.1,1.6-1.6,2.9-1.3,4.5.3,1.9-.3,3.2-1.9,3.9h-.3.2Z"/>
    <path class="st2" d="M23.1,96.4c-.2,0-.5,0-.5-.2-.2,0-.5-.3-.6-.6-.8-1.3-1.8-2.7-2.7-4.2-1.5-2.1-2.9-4.2-4.2-6.5-.6-1-.6-2.3-.6-3.6v-1.3c0-.5.3-.8.8-.8s.8.3.8.8v1.5c0,1,0,2.1.3,2.7,1.3,2.3,2.7,4.4,4.2,6.5,1,1.5,1.9,2.7,2.9,4.2h0l.2.2c.3.3.3.8,0,1.1,0,0-.3.2-.5.2Z"/>
    <path class="st2" d="M87.2,119.2c-.3,0-.5,0-.6-.3s0-.8.3-1.1c1.5-1,2.3-2.3,2.4-4.5.2-2.6-.3-4.8-1.8-7.6-.2-.3,0-.8.3-1.1.3-.2.8,0,1.1.3,1.5,3.1,2.1,5.6,1.9,8.4-.3,2.7-1.3,4.5-3.2,5.6h-.5v.3Z"/>
    <path class="st2" d="M38.1,39.5c-.2,0-.3,0-.5-.2-.3-.3-.3-.8,0-1.1,1.9-2.4,4.4-4.5,7.7-4.5s2.4.2,3.6.3c.6,0,1.1.2,1.8.3.5,0,.8.5.6.8,0,.5-.5.8-.8.6-.6,0-1.3-.2-1.8-.3-1.1-.2-2.3-.3-3.4-.3-2.6,0-4.5,1.6-6.6,4,0,.2-.3.3-.6.3Z"/>
    <path class="st2" d="M76.8,38.3h-.3c-.5-.2-1-.3-1.5-.5-.8-.2-1.8-.5-2.6-1h-.2c-1.8-1.3-3.2-2.3-5-2.3s-1.1,0-1.6,0h-1.5c-.5,0-.8-.3-.8-.8s.3-.8.8-.8h3.1c2.4,0,4.2,1.1,6,2.3h.2c.5.5,1.3.8,2.1,1,.5,0,1.1.3,1.6.5s.6.6.5,1c0,.3-.5.5-.8.5v.2Z"/>
    <path class="st2" d="M98,54.8h0c-.5,0-.8-.3-.8-.8,0-2.7-.5-4-2.3-4.7-2.4-.6-4-2.3-4.8-4.8,0-.5,0-.8.5-1,.5,0,.8,0,1,.5.6,2.1,1.6,3.2,3.7,3.7,3.6,1,3.4,4.8,3.4,6.1s-.3.8-.8.8l.2.2Z"/>
    <path class="st2" d="M90.6,44.9c-.2,0-.5,0-.5-.2-.3-.3-.8-.8-1.1-1.3-.5-.6-1.1-1.5-1.6-1.6-2.6-.3-4.8-1.3-7.4-3.1-.3-.3-.5-.8,0-1.1.3-.3.8-.5,1.1,0,2.3,1.8,4.2,2.6,6.6,2.7,1.1,0,1.9,1.1,2.7,2.1.3.5.6.8,1,1.1s.3.8,0,1.1-.3.2-.5.2h-.3Z"/>
    <path class="st2" d="M104.6,67.7c-.3,0-.6-.3-.8-.6-.2-1.1-.5-2.3-.5-3.4.3-2.7-.6-4.7-2.7-6.1-.3-.2-.5-.8-.2-1.1.2-.3.8-.5,1.1-.2,2.7,1.8,3.9,4.4,3.6,7.6,0,1,.2,1.9.5,2.9,0,.5-.2.8-.6,1h-.3Z"/>
    <path class="st2" d="M27.9,46.9c-.2,0-.5,0-.5-.2-.3-.3-.3-.8,0-1.1l.6-.6c.5-.3,1-.8,1.1-1.3,1-2.7,2.9-4,5.8-4.4.5,0,.8.3.8.6,0,.5-.3.8-.6.8-2.4.2-3.7,1.1-4.5,3.2-.3.8-1,1.3-1.6,1.9s-.5.3-.6.5-.3.2-.5.2v.3Z"/>
    <path class="st2" d="M51.3,35.3c-.3,0-.5,0-.6-.5-.2-.3,0-.8.3-1.1l1-.5c1-.5,1.8-1.1,2.9-1.3,1.3-.3,2.7-.3,4.2-.3s.8.3.8.8-.3.8-.8.8c-1.3,0-2.6,0-3.9.3-.8.2-1.6.6-2.4,1.1l-1,.5h-.3l-.2.2Z"/>
    <path class="st2" d="M20.5,54.6h-.5c-.3-.3-.5-.8-.2-1.1.3-.5.6-1,1-1.5.3-.5.6-1,1-1.3.3-.5.8-1.1,1.1-1.6s.8-1,1.1-1.6c.3-.3.8-.5,1.1-.2s.5.8.2,1.1c-.3.5-.8,1.1-1.1,1.6s-.8,1-1.1,1.6c-.3.5-.6,1-1,1.5-.3.5-.6.8-1,1.3,0,.2-.5.3-.6.3v-.2Z"/>
    <path class="st2" d="M14.9,78.8c-.2,0-.5,0-.5-.2-1.1-1.1-1.3-2.4-1.5-3.6,0-.6-.2-1.1-.3-1.6-.2-.5,0-.8.5-1s.8,0,1,.5c.3.6.3,1.3.5,1.9.2,1,.3,1.9,1,2.6s.3.8,0,1.1-.3.2-.5.2h-.2Z"/>
    <path class="st2" d="M15.7,78.2c-.3,0-.6-.2-.8-.6,0-.6-.3-1.1-.5-1.8,0-.5-.3-1.1-.5-1.6,0-.5,0-.8.5-1,.5,0,.8,0,1,.5,0,.6.3,1.1.5,1.8,0,.5.3,1.1.5,1.6,0,.5,0,.8-.5,1h-.2v.2Z"/>
    <path class="st2" d="M99.3,98.2h-.3c-.3-.2-.6-.6-.3-1,.2-.5.5-1,.6-1.5s.5-1,.6-1.5c.2-.3.6-.6,1-.3.3.2.6.6.3,1-.2.5-.5,1-.6,1.5s-.5,1-.6,1.5c0,.3-.5.5-.6.5v-.2Z"/>
    <path class="st2" d="M98.5,58.2c-.3,0-.6,0-.6-.5l-1.3-2.6c-.2-.3,0-.8.3-1.1.3-.2.8,0,1.1.3l1.3,2.6c.2.3,0,.8-.3,1.1h-.3l-.2.2Z"/>
    <path class="st2" d="M59.6,119.8v-1.6c.6,0,1.5-.2,2.4-.2s.8.3.8.8-.3.8-.8.8c-.8,0-1.6,0-2.4.2Z"/>
    <path class="st2" d="M21.7,92.2c-.3,0-.6-.2-.8-.5-.2-.5-.3-.8-.5-1.3,0-.5-.3-.8-.5-1.3,0-.5,0-.8.5-1,.5,0,.8,0,1,.5s.3.8.5,1.3c0,.5.3.8.5,1.3,0,.5,0,.8-.5,1h-.3.2Z"/>
    <path class="st2" d="M84.4,43.5h-.3l-2.6-1.3c-.3-.2-.5-.6-.3-1.1.2-.3.6-.5,1.1-.3l2.6,1.3c.3.2.5.6.3,1.1,0,.3-.5.5-.6.5l-.2-.2Z"/>
    <path class="st2" d="M62.3,33.8h-.3c-.5-.2-.8-.3-1.3-.5s-.8-.3-1.3-.5c-.5,0-.6-.6-.5-1,0-.5.6-.6,1-.5.5.2.8.3,1.3.5s.8.3,1.3.5c.5,0,.6.6.5,1,0,.3-.5.5-.8.5h.2Z"/>
    <path class="st2" d="M104,81.3h0c-.5,0-.8-.5-.6-.8,0-.5,0-.8.2-1.3,0-.5,0-.8.2-1.3,0-.5.5-.8.8-.6.5,0,.8.5.6.8,0,.5,0,.8-.2,1.3,0,.5,0,.8-.2,1.3,0,.3-.3.6-.8.6Z"/>
    <path class="st2" d="M16.8,77.9c-.3,0-.8-.3-.8-.6,0-.8-.2-1.8-.2-2.6s.3-.8.8-.8.8.3.8.8c0,.8,0,1.6.2,2.4,0,.5-.3.8-.6.8h-.2Z"/>
    <path class="st2" d="M50.5,36.7h-2.6c-.5,0-.8-.3-.8-.8s.3-.8.8-.8h2.6c.5,0,.8.3.8.8s-.3.8-.8.8Z"/>
    <path class="st2" d="M18.3,78.7c-.5,0-.8-.3-.8-.8v-2.1c0-.5.3-.8.8-.8s.8.3.8.8v2.1c0,.5-.3.8-.8.8Z"/>
    <path class="st2" d="M38.9,40.9c-.3,0-.5,0-.6-.3-.3-.3-.2-.8.2-1.1s.6-.5,1-.8.6-.6,1.1-.8c.3-.3.8-.2,1.1.2.3.3.2.8-.2,1.1s-.6.5-1,.8-.6.6-1.1.8h-.5v.2Z"/>
    <path class="st2" d="M75.1,40.4h-.3c-.3,0-.6-.3-1-.5-.3,0-.6-.3-1.1-.5-.3-.2-.6-.6-.5-1s.6-.6,1-.5c.3,0,.6.3,1,.5.3,0,.6.3,1.1.5.3.2.6.6.5,1,0,.3-.5.5-.8.5h.2Z"/>
    <path class="st2" d="M90.9,49.8c-.3,0-.5,0-.6-.3s-.5-.6-.6-1c-.2-.3-.5-.6-.6-1.1-.2-.3,0-.8.3-1.1.3-.2.8,0,1.1.3.2.3.5.6.6,1,.2.3.5.6.6,1.1.2.3,0,.8-.3,1.1h-.5Z"/>
    <path class="st2" d="M32.6,103.2h-.3c-.5,0-.6-.6-.5-1l.6-1.9c0-.5.6-.6,1-.5.5,0,.6.6.5,1l-.6,1.9c0,.3-.5.5-.8.5h.2Z"/>
    <path class="st2" d="M29.7,47.7c-.2,0-.5,0-.5-.2-.3-.3-.3-.8,0-1.1l1.6-1.6c.3-.3.8-.3,1.1,0s.3.8,0,1.1l-1.6,1.6s-.3.2-.5.2h-.2Z"/>
    <path class="st2" d="M63.3,39.6h-.5c-.2,0-.5-.3-.8-.3s-.6-.3-1-.5-.5-.6-.3-1.1c.2-.3.6-.5,1.1-.3.2,0,.5.3.8.3s.6.3,1,.5.5.6.3,1.1c0,.3-.5.3-.6.3Z"/>
    <path class="st2" d="M23.3,92.7c-.3,0-.6-.3-.8-.6s0-.5-.2-.8c0-.3-.2-.6-.2-1,0-.5.2-.8.6-1,.5,0,.8.2,1,.6,0,.3,0,.5.2.8,0,.3.2.6.2,1,0,.5-.2.8-.6,1h-.2Z"/>
    <path class="st2" d="M22.9,54.8c-.2,0-.3,0-.5-.2-.3-.3-.3-.8,0-1.1.2-.3.5-.5.6-.8.2-.3.5-.6.6-.8.3-.3.8-.3,1.1,0s.3.8,0,1.1c-.2.3-.5.5-.6.8-.2.3-.5.6-.6.8,0,.2-.3.3-.6.3v-.2Z"/>
    <path class="st2" d="M89.1,53.7c-.2,0-.5,0-.5-.2l-1.3-1.3c-.3-.3-.3-.8,0-1.1s.8-.3,1.1,0l1.3,1.3c.3.3.3.8,0,1.1s-.3.2-.5.2h-.2Z"/>
    <g>
      <path class="st1" d="M70.7,86.1h0c-.5,0-.8-.5-.6-1v-.3c0-.6.2-1.5.5-2.3,1.5-5.8,2.9-11.8,4.4-17.6,1.5-5.8,2.9-11.8,4.4-17.6,0-.5.5-.6,1-.6s.6.5.6,1c-1.5,5.8-2.9,11.8-4.4,17.6-1.5,5.8-2.9,11.8-4.4,17.6-.2.6-.3,1.3-.3,1.9v.3c0,.3-.5.6-.8.6l-.3.3Z"/>
      <path class="st1" d="M62.8,74h0c-.5,0-.8-.5-.8-.8l.6-9.5c.3-6.8.6-13.4,1.1-20v-3.6c.2-.5.6-.8,1-.8.5,0,.8.3.8.8v3.6c-.5,6.6-1,13.4-1.3,20l-.6,9.5c0,.5-.3.8-.8.8Z"/>
      <path class="st1" d="M46.7,100.3c-.2,0-.5,0-.6-.3-6.1-6.5-12.4-13.1-18.9-19.5s-5-4.2-7.4-6c-1-.6-1.9-1.5-2.7-2.1-.3-.3-.5-.8,0-1.1.3-.3.8-.5,1.1,0,1,.6,1.8,1.5,2.7,2.1,2.6,1.9,5.3,3.9,7.6,6.1,6.5,6.3,12.8,13.1,19,19.5.3.3.3.8,0,1.1,0,0-.3.2-.5.2h-.3Z"/>
      <path class="st1" d="M50.1,80.6c-.3,0-.6-.2-.8-.5-.8-2.3-1.6-4.7-2.4-6.9-.8-2.3-1.6-4.7-2.4-6.9-1-2.6-1.8-5-2.6-7.6-.8-2.6-1.8-5-2.6-7.6,0-.5,0-.8.5-1,.5,0,.8,0,1,.5,1,2.6,1.8,5.2,2.6,7.6.8,2.6,1.8,5,2.6,7.6.8,2.3,1.6,4.7,2.4,6.9.8,2.3,1.6,4.7,2.4,6.9,0,.5,0,.8-.5,1h-.3.2Z"/>
      <path class="st1" d="M53.4,67.2c-.3,0-.6-.3-.8-.6h0c0-.6-.2-1.1-.2-1.6l-3.2-25.7c0-.5.3-.8.6-.8.5,0,.8.3.8.6l3.2,25.7v1.1h0c0,.6-.2,1.1-.6,1.1h0l.2.2Z"/>
      <path class="st1" d="M79.8,103.7c-.3,0-.5,0-.6-.3-.3-.3,0-.8.2-1.1l22.6-15.2c.3-.3.8,0,1.1.2.3.3,0,.8-.2,1.1l-22.6,15.2h-.5v.2Z"/>
      <path class="st1" d="M52.2,104c-.3,0-.5,0-.6-.5-.3-.8-.8-1.6-1.1-2.3-.6-1.3-1.3-2.6-1.9-3.9-1.3-2.1-2.4-4.4-3.7-6.5s-2.4-4.4-3.7-6.5c-.2-.3,0-.8.3-1.1.3-.2.8,0,1.1.3,1.3,2.1,2.4,4.4,3.7,6.5s2.4,4.4,3.7,6.5c.8,1.3,1.5,2.6,2.1,3.9.3.8.8,1.5,1.1,2.3.2.3,0,.8-.3,1.1h-.3l-.3.2Z"/>
      <path class="st1" d="M78.9,87.9h-.3c-.3-.2-.5-.6-.3-1.1,1.1-1.9,2.1-3.9,3.2-6,1.1-1.9,2.1-4,3.2-6,.6-1.1,1.3-2.4,1.9-3.6,1.9-3.9,4-7.9,7.1-11.3.3-.3.8-.3,1.1,0s.3.8,0,1.1c-2.9,3.2-5,7.3-6.9,11-.6,1.3-1.3,2.4-1.9,3.7-1.1,1.9-2.1,3.9-3.2,6-1.1,1.9-2.1,4-3.2,6,0,.3-.5.5-.6.5v-.3Z"/>
      <path class="st1" d="M84.9,90c-.2,0-.5,0-.6-.2-.3-.3-.3-.8,0-1.1,2.6-2.6,5.2-5.2,7.9-7.6,2.6-2.6,5.2-5,7.7-7.6.3-.3.8-.3,1.1,0s.3.8,0,1.1c-2.6,2.6-5.2,5-7.7,7.6-2.6,2.6-5.3,5.2-7.9,7.6,0,0-.3.2-.5.2Z"/>
      <path class="st1" d="M48.9,110.6c-.2,0-.3,0-.5-.2l-1.3-1c-1.9-1.5-3.9-3.1-5.8-4.2-1.6-1-3.4-1.9-5-2.9-1.1-.6-2.1-1.1-3.2-1.8-.3-.2-.5-.6-.3-1.1s.6-.5,1.1-.3c1.1.6,2.1,1.1,3.2,1.8,1.8,1,3.4,1.9,5.2,2.9,2.1,1.3,4,2.9,6,4.4l1.3,1c.3.3.5.8,0,1.1,0,.2-.3.3-.6.3Z"/>
      <path class="st1" d="M38,67.4c-.3,0-.5,0-.6-.3l-10.8-14.5c-.3-.3-.2-.8.2-1.1.3-.3.8-.2,1.1.2l10.8,14.5c.3.3.2.8-.2,1.1h-.5v.2Z"/>
      <path class="st1" d="M29.7,69.6c-.2,0-.5,0-.6-.3-1.5-1.6-2.9-3.2-4.5-4.8-1.5-1.6-2.9-3.2-4.5-4.8s-.3-.8,0-1.1.8-.3,1.1,0c1.5,1.6,2.9,3.2,4.5,4.8,1.5,1.6,2.9,3.2,4.5,4.8s.3.8,0,1.1c0,0-.3.2-.5.2v.2Z"/>
      <path class="st1" d="M70.7,111.9c-.2,0-.5,0-.6-.3-.3-.3-.2-.8,0-1.1.5-.3,1-.6,1.5-1,2.4-1,4.7-1.9,7.1-2.7,2.3-1,4.7-1.8,6.9-2.7.5,0,.8,0,1,.5,0,.5,0,.8-.5,1-2.3,1-4.7,1.8-6.9,2.7s-4.7,1.9-6.9,2.7c-.3,0-.6.5-1.1.8h-.5l.2.2Z"/>
      <path class="st1" d="M61.5,96.9h0c-.5,0-.8-.5-.6-1,0-.6.2-1.5.3-2.1,0-.6.2-1.5.3-2.1,0-.5.5-.6,1-.6s.8.5.6,1c0,.6-.2,1.5-.3,2.1,0,.6-.2,1.5-.3,2.1,0,.3-.3.6-.8.6h-.2Z"/>
      <path class="st1" d="M76.4,93.9h-.3c-.3-.2-.6-.6-.3-1,.2-.5.5-1,.6-1.5s.5-1,.6-1.5c.2-.3.6-.6,1-.3.3.2.6.6.3,1-.2.5-.5,1-.6,1.5s-.5,1-.6,1.5c0,.3-.5.5-.6.5v-.2Z"/>
      <path class="st1" d="M60.7,110.8h0c-.5,0-.8-.5-.6-.8,0-.8.2-1.6.2-2.4s.3-.8.8-.8.8.3.8.8c0,1,0,1.8-.2,2.6,0,.3-.3.6-.8.6h-.2Z"/>
      <path class="st1" d="M62.3,87.1h0c-.5,0-.8-.5-.6-.8,0-.8.2-1.6.2-2.4s.3-.8.8-.8.8.3.8.8c0,1,0,1.8-.2,2.6,0,.3-.3.6-.8.6h-.2Z"/>
      <path class="st1" d="M71.7,101.1h-.3c-.3-.2-.5-.6-.3-1.1.2-.3.5-.8.6-1.1s.5-.6.6-1,.6-.5,1.1-.3c.3.2.5.6.3,1.1-.2.3-.5.8-.6,1.1s-.5.6-.6,1c0,.3-.5.3-.6.3h-.2Z"/>
      <path class="st1" d="M67.5,95.6h0c-.5,0-.8-.5-.6-1,0-.3,0-.8.2-1.1,0-.3,0-.6.2-1,0-.5.5-.8,1-.6.5,0,.8.5.6,1,0,.3,0,.8-.2,1.1,0,.3,0,.6-.2,1,0,.3-.3.6-.8.6h-.2Z"/>
      <path class="st1" d="M81,94.3h-.5c-.3-.3-.5-.8-.2-1.1.3-.3.6-.8,1-1.1s.5-.6.8-1,.8-.5,1.1-.2c.3.3.5.8.2,1.1-.3.3-.6.8-.8,1.1-.3.3-.5.6-.8,1,0,.2-.3.3-.6.3l-.2-.2Z"/>
      <path class="st1" d="M65.7,100.6c-.2,0-.3,0-.5-.2-.3-.3-.3-.8,0-1.1.2-.3.5-.5.6-.8s.5-.6.6-.8c.3-.3.8-.3,1.1,0s.3.8,0,1.1c-.2.3-.5.5-.6.8s-.5.6-.6.8c0,.2-.3.3-.6.3v-.2Z"/>
      <path class="st1" d="M71.2,110c-.2,0-.5,0-.5-.2-.3-.3-.3-.8,0-1.1l1.6-1.6c.3-.3.8-.3,1.1,0s.3.8,0,1.1l-1.6,1.6s-.3.2-.5.2h-.2Z"/>
      <path class="st1" d="M51.2,106.4c-.3,0-.6,0-.6-.5s-.3-.6-.5-1c-.2-.3-.3-.6-.5-1s0-.8.3-1.1c.3-.2.8,0,1.1.3,0,.3.3.6.5,1,.2.3.3.6.5,1s0,.8-.3,1.1h-.3l-.2.2Z"/>
      <path class="st1" d="M52.2,112.9c-.2,0-.3,0-.5-.2-.3-.3-.6-.5-1-.6-.3-.3-.6-.5-1-.8s-.3-.8,0-1.1.8-.3,1.1,0,.6.5,1,.6c.3.3.6.5,1,.8s.3.8,0,1.1c0,.2-.3.3-.6.3v-.2Z"/>
      <path class="st1" d="M69.1,90.1h-.5c-.3-.2-.5-.6-.3-1.1,0-.2.3-.5.3-.8s.3-.6.5-1c.2-.3.6-.5,1.1-.3.3.2.5.6.3,1.1,0,.2-.3.5-.3.8s-.3.6-.5,1-.5.3-.6.3Z"/>
      <path class="st1" d="M75.6,107.1c-.3,0-.6-.3-.8-.6,0-.5.2-.8.6-1h.2c.5,0,1-.2,1.5-.2s.8.3.8.8-.3.8-.8.8h-1.3l-.2.2Z"/>
      <path class="st1" d="M35.2,77.1c-.3,0-.5,0-.6-.3,0-.2-.3-.5-.5-.6-.2-.3-.5-.5-.6-.8-.2-.3,0-.8.3-1.1.3-.2.8,0,1.1.3,0,.2.3.5.5.6.2.3.5.5.6.8.2.3,0,.8-.3,1.1h-.5Z"/>
    </g>
    <path class="st2" d="M100.4,57.2h-.5c-.3,0-.5-.3-.6-.5-.3,0-.5-.3-.8-.5s-.5-.6-.3-1.1c.2-.3.6-.5,1.1-.3.3,0,.5.3.6.5.3,0,.5.3.8.5s.5.6.3,1.1c0,.3-.5.3-.6.3Z"/>
    <path class="st2" d="M62.3,35.7h-.5c-.2,0-.3-.3-.6-.3s-.5-.3-.6-.5c-.3-.3-.5-.8,0-1.1.3-.3.8-.5,1.1,0,.2,0,.3.3.6.3s.5.3.6.5c.3.3.5.8,0,1.1,0,.2-.3.3-.6.3v-.3Z"/>
    <path class="st2" d="M89.4,51.1h-.5c-.2,0-.3-.3-.6-.3s-.5-.3-.6-.5c-.3-.3-.5-.8,0-1.1.3-.3.8-.5,1.1,0,.2,0,.3.3.6.3s.5.3.6.5c.3.3.5.8,0,1.1,0,.2-.3.3-.6.3v-.3Z"/>
    <path class="st2" d="M87.8,55.8c-.2,0-.5,0-.5-.2l-.8-.8c-.3-.3-.3-.8,0-1.1s.8-.3,1.1,0l.8.8c.3.3.3.8,0,1.1s-.3.2-.5.2h-.2Z"/>
    <path class="st2" d="M51,42.9c-.3,0-.5,0-.6-.3-.3-.3,0-.8.2-1.1,0,0,.3-.2.3-.3,0,0,.3-.2.5-.3.3-.2.8,0,1.1.2.3.3,0,.8-.2,1.1,0,0-.3.2-.3.3,0,0-.3.2-.5.3h-.5v.2Z"/>
    <path class="st2" d="M82.7,45.6h-.3c-.2,0-.5-.2-.6-.3h-.3c-.5,0-.6-.6-.5-1,0-.5.6-.6,1-.5.2,0,.5.2.6.3h.3c.5,0,.6.6.5,1,0,.3-.5.5-.8.5h.2Z"/>
    <path class="st2" d="M98.3,97.6c-.2,0-.5,0-.5-.2-.3-.3-.3-.8,0-1.1l.6-.6c.3-.3.8-.3,1.1,0s.3.8,0,1.1l-.6.6s-.3.2-.5.2h-.2Z"/>
    <path class="st2" d="M25,55.3h-.3c-.5,0-.6-.6-.5-1,0-.2.2-.5.3-.6v-.3c0-.5.6-.6,1-.5.5,0,.6.6.5,1,0,.2-.2.5-.3.6v.3c0,.3-.5.5-.8.5h.2Z"/>
    <path class="st2" d="M63.3,45.6c-.2,0-.5,0-.5-.2l-.5-.5c-.3-.3-.3-.8,0-1.1s.8-.3,1.1,0l.5.5c.3.3.3.8,0,1.1,0,0-.3.2-.5.2h-.2Z"/>
    <path class="st2" d="M73.8,45.9c-.2,0-.5,0-.5-.2l-.5-.5c-.3-.3-.3-.8,0-1.1s.8-.3,1.1,0l.5.5c.3.3.3.8,0,1.1,0,0-.3.2-.5.2h-.2Z"/>
    <path class="st2" d="M73.8,47.7c-.2,0-.5,0-.5-.2l-.5-.5c-.3-.3-.3-.8,0-1.1s.8-.3,1.1,0l.5.5c.3.3.3.8,0,1.1,0,0-.3.2-.5.2h-.2Z"/>
    <path class="st2" d="M31.8,49c-.2,0-.5,0-.5-.2-.3-.3-.3-.8,0-1.1l.5-.5c.3-.3.8-.3,1.1,0s.3.8,0,1.1l-.5.5s-.3.2-.5.2h-.2Z"/>
    <path class="st2" d="M33.1,50.3c-.2,0-.5,0-.5-.2-.3-.3-.3-.8,0-1.1l.5-.5c.3-.3.8-.3,1.1,0s.3.8,0,1.1l-.5.5s-.3.2-.5.2h-.2Z"/>
    <path class="st2" d="M97.2,75.1c-.2,0-.5,0-.5-.2-.3-.3-.3-.8,0-1.1l.5-.5c.3-.3.8-.3,1.1,0s.3.8,0,1.1l-.5.5s-.3.2-.5.2h-.2Z"/>
    <path class="st2" d="M82.7,107.9c-.3,0-.6,0-.6-.5v-.2s-.2-.3-.3-.5c-.2-.3,0-.8.3-1.1.3-.2.8,0,1.1.3v.2s.2.3.3.5c.2.3,0,.8-.3,1.1h-.3l-.2.2Z"/>
    <path class="st2" d="M84.4,107.4c-.3,0-.6,0-.6-.5s-.3-.6-.3-1,.3-.8.8-.8.8.3.8.8v.3c.2.3,0,.8-.3,1.1,0,0-.2,0-.3,0ZM84.9,106.1h0Z"/>
    <path class="st2" d="M44.6,100.6c-.2,0-.5,0-.5-.2l-.5-.5c-.3-.3-.3-.8,0-1.1s.8-.3,1.1,0l.5.5c.3.3.3.8,0,1.1,0,0-.3.2-.5.2h-.2Z"/>
    <path class="st2" d="M55.2,77.4c-.2,0-.5,0-.5-.2-.3-.3-.3-.8,0-1.1l.5-.5c.3-.3.8-.3,1.1,0s.3.8,0,1.1l-.5.5s-.3.2-.5.2h-.2Z"/>
    <path class="st2" d="M34.4,96.9c-.2,0-.5,0-.5-.2l-.5-.5c-.3-.3-.3-.8,0-1.1s.8-.3,1.1,0l.5.5c.3.3.3.8,0,1.1,0,0-.3.2-.5.2h-.2Z"/>
    <path class="st2" d="M25,92.7c-.2,0-.5,0-.5-.2l-.5-.5c-.3-.3-.3-.8,0-1.1s.8-.3,1.1,0l.5.5c.3.3.3.8,0,1.1s-.3.2-.5.2h-.2Z"/>
    <path class="st2" d="M32.3,63.3c-.2,0-.5,0-.5-.2l-.5-.5c-.3-.3-.3-.8,0-1.1s.8-.3,1.1,0l.5.5c.3.3.3.8,0,1.1s-.3.2-.5.2h-.2Z"/>
  </g>
</svg>