<?xml version="1.0" encoding="UTF-8"?>
<svg id="Layer_1" xmlns="http://www.w3.org/2000/svg" version="1.1" viewBox="0 0 120 120">
  <!-- Generator: Adobe Illustrator 29.8.1, SVG Export Plug-In . SVG Version: 2.1.1 Build 2)  -->
  <defs>
    <style>
      .st0 {
        fill: #fff;
      }

      .st1 {
        fill: #f4d1a8;
      }

      .st2 {
        fill: #caa170;
      }
    </style>
  </defs>
  <path class="st0" d="M49.7,59.4c.3-1.5.5-3.2.8-4.7,0-.3-.3-.9-.3-1.5,0-1.2.6-1.8.9-3.2.5-1.7-.3-1.8,0-4,0-1.2.3-1.4.9-3.7.5-1.8.3-1.8.8-4,.6-2.7.8-2.7,1.7-6.3.8-3.1.6-2.7,1.1-4.6.8-2.9,1.2-2.4,2-5.3.3-1.4.8-2.6,1.7-3.8.5-.6.9-1.1,1.2-1.4,0-.3.3-.8.3-1.1.8,0,1.8-.3,2.6-.5.6,1.4,1.1,3.1,1.5,4.7.3,1.2.6,2.3.9,3.2.3,2,.6,4.1.8,6.4,0,1.8.3,3.8.3,5.5-.3,4-.6,8.1-.9,12,0,.5-.3,1.4-.3,2.3s.5,1.7.6,1.8c.5.9.9,3.2.3,8.8,2.6,0,5.5-.6,8.8-1.5.9-.3,1.8-.6,2.7-.9,1.8-.3,3.5-.5,5.3-.8,1.2-.5,2.3-.6,2.9-.8,1.1,0,1.7,0,2.7-.3,1.1-.3,1.2-.5,2-.8,2.1-.8,2.7.3,5.5,0,1.4-.3,1.5-.6,2.7-.6h2.6c.8,0,1.2,0,2-.3,2.9-.5,4.4-.8,5-.6,1.4.3,2,.9,3.4.8.5,0,.8-.3,1.1-.3h4.3l1.7,1.8c-.3.6-.8,1.5-1.5,2.3s-1.5.9-3.7,1.8c-3.2,1.4-2.7,1.5-3.8,1.8-1.5.3-2.7,0-3.8,1.1-.5.3-.8.6-.9.9-1.1.3-2.3.8-3.7,1.1-1.2.3-2.6.5-3.7.5-.5.5-1.2,1.1-2.4,1.7s-1.2.3-2.7.8c-1.5.3-2.7.9-5.3,2.1-1.1.5-1.8.8-2.3,1.1l-2.1.3c-1.4.8-2.7,1.4-4.1,2.3-1.1,0-2.3.3-3.5.6-1.5.5-2.7.9-3.8,1.5,1.7,3.5,3.8,7.5,6.7,11.6,2.1,3.2,4.3,5.8,6.3,8.2,0,.5-.3.9-.3,1.4,1.8,3.1,3.4,5.5,4.6,7.2,1.5,2.3,2.9,4,3.8,6.9,0,.3,1.4,4.1.8,4.4-.3,0-.6,0-.8-.3-1.8-1.2-2.3-.8-4.7-2-3.4-1.8-2.7-3.1-6.3-4.9-.8-.5-1.8-.9-3.1-2.1s-.8-1.1-1.7-2c-1.1-1.1-1.8-1.2-3.1-2.7-.3-.5-.8-.9-.8-1.7s.3-.6.3-.8c-1.4-.9-2.7-2-4.3-3.2-2-1.7-3.7-3.2-5.2-4.7-.6-1.2-1.4-2.1-2-2.7-1.2-1.1-2.1-1.2-3.2-2.3s-1.1-1.4-1.2-1.8c-.5.6-.9,1.2-1.4,1.8-.6,0-1.2.3-1.8.3,0,.3,0,.8-.3,1.4-.5,1.1-1.1,1.7-1.7,2.1-.9.9-.3.5-2.6,3.1-2.4,2.7-4.3,4.4-7.3,7.6s-3.7,4.3-6.6,7.2-1.2,1.2-2.1,2.1c-2.7,3.1-3.4,4.6-5.5,6.3-1.2,1.1-1.4.8-2.6,2-.5.5-.8.8-1.2.8-.8,0-1.4-.9-1.8-1.5.8-2.7,1.8-5.6,2.6-8.4.9-.9,1.5-1.8,2-2.6,1.2-1.8,1.1-2.3,2.9-5.6s1.2-1.8,1.5-2.9c.3-.9.3-1.5.8-2.3s1.1-1.2,1.4-1.7c.3-.6.6-1.2.8-1.4,1.7-2.9,3.1-3.8,4.3-6.3,0-.3.3-.5.5-1.2.3-.6.8-1.8,1.2-2.6,1.1-2.3,1.8-2.3,2.9-4.4s.8-1.7.8-2.3c-1.4-1.4-2.7-2.1-3.8-2.4-.8-.3-1.2-.3-2.3-.6-1.7-.5-2.7-.8-4.1-1.4-4.3-1.8-4.6-2.6-6.3-2.4-.8,0-1.4.3-2.3,0-.8-.3-1.1-.8-1.8-1.4-.6-.5-1.4-1.2-2.7-1.7l-.8.3c-1.2-.3-2.9-.9-5-1.7-2.4-.8-4.7-1.7-7.3-2.4-3.7-1.2-4.6-1.4-5.8-2.4-.6-.6-2.6-2.3-2-3.8.3-.9,1.4-1.5,1.8-1.7,0,.3.3.6.8.8s1.1,0,1.2,0c.8-.3,2.7-.3,8.8,0,.3,0,.8-.3,1.1-.3,1.4,0,6.6.5,10.5.9,1.5,0,2.3.3,3.2.6,2.3.6,2.4,1.2,4,1.2s2-.6,3.5-.3c.3,0,.8.3,1.7.6,1.5.5,1.4.6,1.8.8,1.4.3,1.7-.5,3.2-.3,1.5,0,1.5.8,2.9.8s1.2-.5,2.1-.3c.9,0,1.7.3,2,.6l.6.3h.3Z"/>
  <g>
    <path class="st2" d="M26.5,119.4c-.3,0-.5,0-.6-.3-.3-.3-.3-.9,0-1.2.5-.3.9-.8,1.4-1.1.5-.3.9-.6,1.2-.9.6-.6,1.4-1.4,2-2.3.3-.5.8-.8,1.1-1.2.5-.5.8-.9,1.1-1.4.5-.5.8-.9,1.2-1.4.3-.3.6-.6.9-.9.2,0,.3-.3.6-.5.9-.9,1.8-2,2.7-2.9s1.8-2,2.7-2.9c0-.2.3-.3.3-.5,0,0,.2-.3.3-.5.3-.5.8-.5,1.2-.3.5.3.5.8.3,1.2,0,.2-.3.3-.5.5,0,0-.2.3-.3.5h0c-.9,1.1-1.8,2.1-2.7,3.1-.9,1.1-1.8,2-2.7,3.1-.3.3-.5.5-.8.6s-.5.5-.6.6c-.5.5-.8.9-1.2,1.4s-.8.9-1.2,1.4c-.3.5-.8.8-1.1,1.2-.8.8-1.4,1.7-2.1,2.3-.5.5-.9.8-1.4,1.1-.5.3-.9.6-1.2.9-.2,0-.3.2-.6.2v.3Z"/>
    <path class="st2" d="M25.1,120h-.2c-.8,0-1.1-.8-1.4-1.2,0,0-.2-.3-.3-.5l-2-.5,1.7-1.1h0c.5-1.2.8-2.6,1.1-3.8.5-1.4.8-2.7,1.2-4.1h0c0-.2.2-.3.2-.3h0v-.3c1.5-1.2,2.3-2.9,3.1-4.7l.3-.6c.2-.5.8-.6,1.2-.5s.6.8.5,1.2l-.3.6c-.8,1.8-1.7,3.7-3.4,5.2v.2c-.5,1.2-.8,2.6-1.1,3.8-.3,1.4-.8,2.6-1.2,4,0,0,.2.3.3.5,0,0,0,.2.2.3,0,0,.2,0,.3-.2.3-.3.9-.3,1.2,0s.3.9,0,1.2c-.5.5-1.1.6-1.5.6l.2.2Z"/>
    <path class="st2" d="M42.8,102.2c-.2,0-.5,0-.6-.2-.3-.3-.5-.9,0-1.2.6-.8,1.2-1.4,1.8-2s1.2-1.2,1.8-1.8c1.8-1.8,3.7-3.7,5.2-5.6.3-.5.8-.9,1.2-1.2.9-.9,1.8-1.8,2-3.2,0-.8.8-.9,1.2-1.1h.3c.5-.2.9,0,1.1.6,0,.5,0,.9-.6,1.1h-.5c-.3,1.7-1.4,2.7-2.3,3.8-.5.5-.8.8-1.1,1.1-1.7,2.1-3.5,4-5.3,5.8-.6.6-1.2,1.2-1.8,1.8-.6.6-1.2,1.2-1.7,2-.2.2-.5.3-.6.3l-.2-.2ZM55.8,86.6h0Z"/>
    <path class="st2" d="M50.3,55.6c-.3,0-.6-.2-.8-.5-.6-1.2-.3-2.4,0-3.4,0-.2,0-.5.2-.6,0-.5.2-.9.3-1.4.2-.6.3-1.1.3-1.5-.3-2.1.3-4.1.8-6.1.3-1.1.6-2,.8-2.9.2-1.2.5-2.3.8-3.5s.8-2.4.8-3.7.5-.9.9-.8c.5,0,.8.5.8.9,0,1.4-.5,2.7-.9,4.1-.3,1.1-.6,2.1-.8,3.2-.2,1.1-.5,2.1-.8,3.1-.5,1.8-1.1,3.7-.8,5.3,0,.9,0,1.7-.3,2.3,0,.5-.2.8-.3,1.1,0,.3,0,.6-.2.8-.2.8-.5,1.5,0,2.1.2.5,0,.9-.5,1.2h-.5l.2.2Z"/>
    <path class="st2" d="M72.6,76.4h-.2s-.6,0-.9-.3-.3-.9,0-1.2c.3-.3.6-.3.9-.2h.3c2-1.1,4-1.8,6.4-2h0s.3-.3.6-.3c.3-.2.8-.5,1.2-.8,1.2-.8,2.6-1.7,4.4-1.2.5,0,.8.5.8,1.1s-.5.8-1.1.8c-1.2-.2-2.1.5-3.2,1.1-.5.3-.9.6-1.5.9h-.3c-.2.2-.6.5-1.1.5-2,0-3.8.8-5.8,1.7l-.8.3.2-.3ZM72.6,74.9h0ZM78.8,72.7h0Z"/>
    <path class="st2" d="M93,116h-.3c-.5,0-.8-.3-1.2-.5-.9-.3-2-.6-2.9-1.1-1.7-.8-2.7-1.8-4-2.9-.9-.9-1.7-1.7-2.7-2.3-.5-.3-.6-.8-.3-1.2s.8-.6,1.2-.3c1.2.8,2.1,1.7,3.1,2.6s2,2,3.4,2.6c.9.5,1.8.6,2.7.9.5,0,.9.3,1.2.5.5.2.8.6.6,1.1,0,.3-.5.6-.8.6Z"/>
    <path class="st2" d="M39.9,87.2h-.2c-.5,0-.8-.6-.6-1.1.5-2.1,1.7-4,2.7-5.6.9-1.4,1.7-2.6,2.1-4-.5-.3-1.1-.6-1.5-1.1-.5-.3-.9-.6-1.5-.9-.5,0-1.2-.2-1.8-.5-.3,0-.8-.3-1.2-.5-.3,0-.8-.3-1.1-.5-.8-.3-1.5-.5-2.3-.8-1.2-.3-2.4-.8-3.5-1.2-.3,0-.5-.2-.8-.3-.9-.5-1.7-.8-2.7-.8s-1.8,0-2.4-.6c-.3-.3-.8-.9-.8-2.1s.5-.9.9-.9.9.5.9.9,0,.6.3.8c.2.2.6.3,1.1.2,1.5,0,2.6.5,3.7.9.2,0,.5.2.6.3,1.1.5,2.1.8,3.4,1.2.8.3,1.5.5,2.3.8.3,0,.8.3,1.2.5.3,0,.8.3,1.1.5.8.3,1.2.5,1.7.5h.5c.5.5,1.1.9,1.5,1.2.8.5,1.4.9,2.1,1.4l.5.3v.6c-.6,1.8-1.7,3.5-2.7,5-1.1,1.7-2.1,3.2-2.6,5,0,.5-.5.8-.9.8h.2Z"/>
    <path class="st2" d="M66.2,33.4h0c-.5,0-.8-.5-.8-1.1v-4.1c0-2-.2-3.8-.9-5.5-.2-.5,0-.9.5-1.2.5-.2.9,0,1.2.5.8,2,.9,4.1,1.1,6.1v4.4c0,.5-.5.8-.9.8l-.2.2Z"/>
    <path class="st2" d="M82,108.9h-.3c-1.5-.5-3.4-1.4-4.4-3.5l-.3-.3c-1.7-.9-3.1-2.4-4.3-4.6h0v-.5c0-.3,0-.6.3-.9v-.2c.2-.5.8-.6,1.2-.5s.6.8.5,1.2v.3c.9,1.7,2,2.7,3.4,3.5.5.2.9.6,1.1,1.1.6,1.2,1.7,2,3.4,2.6.5.2.8.6.5,1.1,0,.3-.5.6-.8.6h-.2Z"/>
    <path class="st2" d="M80.8,91.3c-.3,0-.6,0-.8-.3-.3-.5-.6-.9-.9-1.2-.3-.5-.5-.8-.8-1.2l-2.7-3.8c-.3-.5-.6-.9-.9-1.2-.3-.5-.5-.8-.8-1.2h0c0-.2-.8-2-.8-2-.2-.5,0-.9.5-1.1s.9,0,1.1.5l.6,1.7c.3.5.5.8.8,1.2s.5.8.8,1.2l2.7,3.8c.3.5.6.9.9,1.2.3.5.5.8.8,1.2s.2.9-.2,1.2c-.2,0-.3.2-.5.2l.2-.2Z"/>
    <path class="st2" d="M25.1,56.7h-3.2c-2.4-.3-5-.5-7.5-.8-.5,0-.8-.5-.8-1.1s.5-.8,1.1-.8c2.4.3,4.9.6,7.3.8h3.1c.5,0,.9.5.9.9s-.5.9-.9.9Z"/>
    <path class="st2" d="M65.4,61.3v-5.9c0-.8.5-.9.9-.9s.9.5.9.9v4c.6,0,1.2-.2,1.7-.3,1.7-.3,3.4-.5,4.9-.8.5,0,.9.2,1.1.8,0,.5-.2.9-.8,1.1-1.7.3-3.2.6-5,.9-.9,0-1.8.3-2.7.5h-1.1l.2-.2Z"/>
    <path class="st2" d="M4.1,56.5c-.6,0-1.2-.2-1.7-1.1-.3-.5,0-.9.3-1.2.5-.3.9,0,1.2.3h9.6c.5,0,.9.5.9.9s-.5.9-.9.9H3.9l.2.2Z"/>
    <path class="st2" d="M50,60.4h-.2c-.3,0-.6-.2-.9-.3-.5-.2-1.1-.5-1.4-.3-1.4.5-2.4,0-3.5,0-.6-.2-1.4-.3-2-.3h-1.2c-.5,0-.9-.2-1.1-.6,0-.5.2-.9.6-1.1h1.7c.8,0,1.7,0,2.4.3.9.3,1.8.5,2.6.2.9-.3,1.7,0,2.4.3.3,0,.5.2.8.3.5,0,.8.6.6,1.1,0,.5-.5.6-.9.6v-.2Z"/>
    <path class="st2" d="M84.5,97.7h-.2c-.5,0-.8-.6-.6-1.1,0-.2,0-.5.3-.6v-.2c-1.1-1.4-2.3-2.9-3.4-4.3-.3-.3-.3-.9,0-1.2.3-.3.9-.3,1.2,0,1.2,1.5,2.4,3.1,3.7,4.6.5.5.2,1.2,0,1.8v.5c0,.5-.5.6-.9.6l-.2-.2ZM84.2,96.1h0Z"/>
    <path class="st2" d="M90.1,56.7c-.5,0-.8-.3-.9-.8,0-.5.3-.9.8-1.1.5,0,.8-.2,1.2-.3.8-.2,1.7-.5,2.6-.5s1.4,0,1.8.2h.9c.5,0,.8.5.8.9s-.5.8-.9.8-.6,0-1.1-.2c-.6,0-1.1-.2-1.5-.2s-1.5.2-2.3.3c-.5,0-.9.2-1.4.3h-.2l.2.5Z"/>
    <path class="st2" d="M106.1,64c-.5,0-.8-.3-.9-.6,0-.5,0-.9.6-1.1.5,0,.9-.2,1.4-.3.9-.2,1.7-.5,2.4-.8.6-.3,1.1-.5,1.7-.8,1.1-.6,2.1-1.1,3.4-1.4,1.5-.5,2.4-1.4,3.2-2.7,0,0-.3-.3-.5-.5-.2-.2-.3-.5-.6-.6h-3.8c-.5,0-.9-.5-.9-.9s.5-.9.9-.9h4.6l.3.3c.3.3.6.6.9.9.3.3.5.6.8.9l.5.5-.3.6c-.9,1.8-2.1,3.5-4.6,4.1-1.1.3-2,.8-2.9,1.2l-1.8.9c-.9.3-1.8.6-2.7.8-.5,0-.9.2-1.2.3,0,0-.2,0-.3,0Z"/>
    <path class="st2" d="M56.9,55.2h0c-.5,0-.9-.5-.8-.9l.3-5.9c0-.5.5-.9.9-.8.5,0,.9.5.8.9l-.3,5.9c0,.5-.5.8-.9.8Z"/>
    <path class="st2" d="M102.5,55.6c-.3,0-.6-.2-.8-.5-.2-.5,0-.9.3-1.2s.8-.2.9-.2c.5,0,1.1-.2,1.7-.3,1.2-.2,2.6-.5,3.8-.5s1.7.2,2.4.5c.3,0,.8.2,1.1.3.5,0,.8.6.8,1.1s-.6.8-1.1.8-.9-.2-1.2-.3c-.6-.2-1.4-.3-2-.3-1.2,0-2.3.2-3.7.5-.6,0-1.2.2-2,.3h-.8l.5-.2Z"/>
    <path class="st2" d="M64.2,91.8c-.3,0-.6-.2-.8-.5-.6-1.2-1.7-2-2.7-2.7-.9-.8-2-1.4-2.7-2.4l-.2.2-.5.6c-.3.3-.9.5-1.2,0s-.5-.9,0-1.2l.5-.6c.3-.3.6-.8.9-1.2l.9-1.1.6,1.4c.6,1.2,1.7,2.1,2.9,2.9,1.2.9,2.6,1.8,3.4,3.4.2.5,0,.9-.5,1.2s-.3,0-.5,0l-.2.2Z"/>
    <path class="st2" d="M32,100.3h-.5c-.5-.3-.5-.8-.3-1.2.3-.6.6-1.2.8-1.8.5-1.2.9-2.4,2.1-3.5.5-.3.9-.3,1.2,0s.3.9,0,1.2c-.8.6-1.1,1.5-1.5,2.6-.3.8-.6,1.5-1.1,2.3-.2.3-.5.5-.8.5Z"/>
    <path class="st2" d="M63.9,18.7c-.3,0-.8-.3-.8-.6-.2-.5-.3-1.1-.5-1.7h-.5c-.5,0-.9.2-1.4.3-.5,0-.9-.3-1.1-.8,0-.5.3-.9.8-1.1.5,0,.8,0,1.2-.2.5,0,.9-.2,1.4-.3h.8l.2.6c.2,1.1.5,1.7.6,2.4.2.5,0,.9-.6,1.1s-.2,0-.3,0l.2.2Z"/>
    <path class="st2" d="M89,70.6h-.2c-.3,0-.6,0-.9-.3h-.2c-.5-.2-.6-.8-.5-1.2s.8-.6,1.2-.5c0,0,.2,0,.3.2h0l3.5-1.5c.5-.2.9,0,1.2.5.2.5,0,.9-.5,1.2l-4,1.8-.2-.2Z"/>
    <path class="st2" d="M93.8,114.2c-.3,0-.8-.3-.8-.6s-.2-.6-.3-.9c0-.3-.2-.6-.3-.9-.3-.9-.8-1.7-1.1-2.6-.2-.5,0-.9.5-1.2.5-.2.9,0,1.2.5.5.9.8,1.8,1.2,2.7,0,.3.3.8.3,1.2s0,.6.3.9c.2.5,0,.9-.6,1.1h-.3l-.2-.2Z"/>
    <path class="st2" d="M90.4,107.3c-.3,0-.6-.2-.8-.5l-2.4-4.3c-.3-.5,0-.9.3-1.2.5-.3.9,0,1.2.3l2.4,4.3c.3.5,0,.9-.3,1.2s-.3,0-.5,0v.2Z"/>
    <path class="st2" d="M73.8,80.6c-.3,0-.6,0-.8-.5-.6-1.1-1.2-2.1-1.7-3.1l-.5-.8v-3.1c0-.5.5-.9.9-.9s.9.5.9.9v2.9c.6.9,1.2,2,1.8,3.1.3.5,0,.9-.3,1.2h-.5v.2Z"/>
    <path class="st2" d="M75,59.8c-.3,0-.6-.2-.8-.5-.2-.5,0-.9.5-1.2h.3c1.4-.8,2.7-1.4,4.4-1.1.5,0,.8.5.8,1.1s-.5.8-1.1.8c-1.2-.2-2.3.3-3.5.9h-.3c0,.2-.3.2-.3.2v-.2Z"/>
    <path class="st2" d="M80.2,58.4c-.5,0-.8-.3-.9-.8,0-.5.3-.9.8-1.1l4.3-.8c.5,0,.9.3,1.1.8,0,.5-.3.9-.8,1.1l-4.3.8h-.2Z"/>
    <path class="st2" d="M35.2,94.2h-.5c-.5-.3-.5-.8-.3-1.2l3.8-5.8c.3-.5.8-.5,1.2-.3.5.3.5.8.3,1.2l-3.8,5.8c-.2.3-.5.5-.8.5v-.2Z"/>
    <path class="st2" d="M97.9,66.6c-.5,0-.8-.3-.9-.8,0-.5.3-.9.8-1.1h.9c2.1-.5,4.1-.8,6.1-1.5.5-.2.9,0,1.2.5.2.5,0,.9-.5,1.2-2.1.9-4.4,1.2-6.6,1.5h-.9l-.2.2Z"/>
    <path class="st2" d="M45.7,90.1c-.2,0-.5,0-.6-.2-.3-.3-.5-.9,0-1.2l2.7-3.5c.3-.3.9-.5,1.2,0,.3.3.5.9,0,1.2l-2.7,3.5c-.2.2-.5.3-.6.3v-.2Z"/>
    <path class="st2" d="M21,67.7h-.3l-3.8-1.4c-.5-.2-.8-.6-.5-1.1.2-.5.6-.8,1.1-.5l3.8,1.4c.5.2.8.6.5,1.1,0,.3-.5.6-.8.6v-.2Z"/>
    <path class="st2" d="M55.9,27.7h-.3c-.5,0-.8-.6-.6-1.1l1.1-3.8c0-.5.6-.8,1.1-.6.5,0,.8.6.6,1.1l-1.1,3.8c0,.5-.5.6-.9.6h.2Z"/>
    <path class="st2" d="M73.3,100c-.2,0-.5,0-.6-.2l-3.5-2.7c-.3-.3-.5-.9,0-1.2.3-.3.9-.5,1.2,0l3.5,2.7c.3.3.5.9,0,1.2-.2.2-.5.3-.6.3v-.2Z"/>
    <path class="st2" d="M6.5,63.1l-1.4-.9c-.3-.3-.8-.5-1.4-.8-1.2-.6-2.9-1.4-3.4-3.5,0-.5.2-.9.6-1.1.5,0,.9.2,1.1.6.3,1.2,1.1,1.7,2.4,2.3h.3c.3-.2.6-.2.9,0h1.5l-.6,1.2v1.8l-.2.3Z"/>
    <path class="st2" d="M69.8,97.4l-.5-.5c-.6-.6-1.2-1.1-1.8-1.7-1.1-1.1-2.3-2-3.4-3.1-.6-.3-.6-1.1-.6-1.2,0-.5.3-.8.8-1.1h.5c0-.2.5,0,.5,0,.3,0,.5.3.8.5.3,0,.5.3.8.5.5.2.6.8.5,1.2,0,0-.2.3-.3.3.6.6,1.2,1.2,2,1.8.5.5.9.8,1.2,1.2.3-.2.8,0,1.1.2.3.3.3.9,0,1.2-.2.2-.5.3-.6.5l-.6.5-.2-.3Z"/>
    <path class="st2" d="M56.7,48.2c-.3,0-.6,0-.8-.5-.3-.5,0-.9.3-1.2.3-.2.3-.5.3-1.1s0-1.1.3-1.7c.2-.5.8-.6,1.2-.5.5.2.6.8.5,1.2v.9c0,.8,0,1.8-1.2,2.6h-.5l-.2.2Z"/>
    <path class="st2" d="M14.3,65.4h-.3c-.5-.2-1.1-.5-1.5-.6-1.5-.6-3.1-1.2-4.6-1.4-.5,0-.8-.5-.8-.9s.5-.8.9-.8c1.8.2,3.5.9,5,1.5.5.2.9.5,1.5.6.5.2.6.6.5,1.1,0,.3-.5.6-.8.6v-.2Z"/>
    <path class="st2" d="M34.4,102.5h-.5c-.5-.3-.5-.8-.3-1.2l2.1-3.2c.3-.5.8-.5,1.2-.3s.5.8.3,1.2l-2.1,3.2c-.2.3-.5.5-.8.5v-.2Z"/>
    <path class="st2" d="M65.9,51.5c-.3,0-.5,0-.6-.3-.9-1.1-.8-2.3-.5-3.1h0v-.9c.3-2,.5-4.1.6-6.1,0-2,.3-4.1.5-6.1,0-.5.5-.8.9-.8s.9.5.8.9c-.2,2-.3,4.1-.5,6.1,0,1.7-.3,3.5-.5,5.2h.8l-.5,1.2c0,.3-.2.5-.3.8-.5.9-.5,1.4,0,1.8.3.3.3.9,0,1.2-.2,0-.3.2-.6.2l-.2-.2Z"/>
    <path class="st2" d="M57.3,23h-.3c-.5-.2-.8-.6-.6-1.1l1.1-3.2c0-.5.6-.8,1.1-.6.5.2.8.6.6,1.1l-1.1,3.2c0,.3-.5.6-.8.6Z"/>
    <path class="st2" d="M30,103.7h-.5c-.5-.3-.6-.8-.3-1.2s.6-1.1.8-1.5c.3-.5.6-1.1.8-1.5.3-.5.8-.6,1.2-.3.5.3.6.8.3,1.2s-.6,1.1-.8,1.5c-.3.5-.5,1.1-.8,1.5-.2.3-.5.5-.8.5v-.2Z"/>
    <path class="st2" d="M37.2,99c-.2,0-.3,0-.5-.2-.5-.3-.5-.8-.2-1.2l3.2-4.6c.3-.5.8-.5,1.2-.2.5.3.5.8.2,1.2l-3.2,4.6c-.2.3-.5.3-.8.3Z"/>
    <path class="st2" d="M56.1,63h0c-.5,0-.8-.5-.8-1.1s.2-1.7.3-2.4c0-.8.2-1.7.3-2.4,0-.5.5-.8,1.1-.8s.8.5.8,1.1-.2,1.7-.3,2.4c0,.8-.2,1.7-.3,2.4,0,.5-.5.8-.9.8h-.2Z"/>
    <path class="st2" d="M94.4,68.4c-.6,0-1.2-.3-1.8-.6-.5-.2-.6-.8-.5-1.2s.8-.6,1.2-.5c.3.2.8.3,1.1.3h.3s.3,0,.5-.2c.5-.2.9,0,1.1.6.2.5,0,.9-.6,1.1h-.3c-.3,0-.6.3-1.1.3l.2.2Z"/>
    <path class="st2" d="M65.2,22.5c-.3,0-.8-.2-.8-.6-.2-.5-.3-.9-.5-1.4s-.3-.9-.5-1.4c-.2-.5,0-.9.5-1.1s.9,0,1.1.5.3.9.5,1.4.3.9.5,1.4c.2.5,0,.9-.5,1.1h-.3v.2Z"/>
    <path class="st2" d="M72.3,66.8c-.3,0-.8-.3-.8-.6-.2-.5,0-.9.6-1.1s1.1-.3,1.5-.6,1.1-.5,1.5-.6c.5-.2.9,0,1.1,0,.5,0,.9.5.9.9s-.5.9-.9.9h-.6c-.5.2-.9.3-1.4.5-.6.2-1.1.5-1.7.6,0,0-.2,0-.3,0Z"/>
    <path class="st2" d="M72.3,67.7c-.3,0-.6-.2-.8-.5,0-.3-.3-.5-.3-.5,0,0-.3,0-.5.2-.5.3-.8.3-1.1.3h-.3c-.5,0-.9,0-1.1-.6,0-.5,0-.9.6-1.1h1.1c.6-.5,1.4-.6,2-.5.6.2,1.1.6,1.4,1.4.2.5,0,.9-.5,1.2h-.6Z"/>
    <path class="st2" d="M87.8,102.6c-.3,0-.6,0-.8-.3-.3-.5-.6-.8-.8-1.2-.3-.3-.5-.8-.8-1.2s-.2-.9.2-1.2c.5-.3.9-.2,1.2.2.3.5.6.8.8,1.2.3.5.5.8.8,1.2s.2.9-.2,1.2c-.2,0-.3.2-.5.2Z"/>
    <path class="st2" d="M36.6,64.8h-.3c-.3,0-.6-.3-.9-.5-.9-.3-1.7-.8-2.4-.5-.5,0-.9-.2-1.1-.6,0-.5.2-.9.6-1.1,1.4-.3,2.4.2,3.5.6.3,0,.6.3.9.3.5.2.8.6.5,1.1,0,.3-.5.6-.8.6Z"/>
    <path class="st2" d="M86.7,71.3c-.6,0-1.2-.3-1.4-.6,0,0-.2,0-.3-.2-.5-.3-.6-.8-.3-1.2.3-.5.8-.6,1.2-.3,0,0,.3.2.3.3,0,0,.3.3.5.3h0c.3-.3.9-.3,1.2,0s.3.9,0,1.2-.9.6-1.4.6l.2-.2Z"/>
    <path class="st2" d="M49.7,59.8h-.2c-.5,0-.8-.6-.8-1.1l.8-3.5c0-.5.6-.8,1.1-.8s.8.6.8,1.1l-.8,3.5c0,.5-.5.8-.9.8Z"/>
    <path class="st2" d="M97.3,56.1c-.5,0-.8-.3-.9-.8,0-.5.3-.9.8-1.1.3,0,.8-.2,1.1-.3,1.2-.3,2.4-.6,3.8,0,.5.3.6.8.3,1.2-.2.5-.8.6-1.2.3-.8-.5-1.5-.3-2.6,0-.5,0-.9.2-1.4.3h0l.2.3Z"/>
    <path class="st2" d="M58.8,19.2c-.2,0-.5,0-.6-.3-.3-.3-.3-.9,0-1.2.2-.2.5-.5.6-.6.2-.3.5-.5.6-.8.3-.3.9-.3,1.2,0,.3.3.3.9,0,1.2-.2.2-.5.5-.6.6-.2.3-.5.5-.6.8-.2.2-.5.3-.6.3Z"/>
    <path class="st2" d="M24.5,68.9h-.5c-.5-.3-.9-.6-1.4-.8-.5-.3-.9-.6-1.4-.9-.5-.3-.6-.8-.3-1.2s.8-.6,1.2-.3.9.6,1.4.8c.5.3.9.6,1.4.9.5.3.6.8.3,1.2-.2.3-.5.5-.8.5v-.2Z"/>
    <path class="st2" d="M40.5,66.5c-.5,0-.8-.3-.9-.8v-.6c-.6,0-1.2-.3-1.8-.5h-.3c-.5-.3-.8-.8-.6-1.2,0-.5.6-.8,1.1-.6h.3c.6.3.9.5,1.4.5s.8,0,1.2.5.3.9.3,1.2v.3c0,.5-.2.9-.8,1.1h-.2l.3.2ZM40.1,65.2h0Z"/>
    <path class="st2" d="M91.9,61.7c-.3,0-.6-.2-.8-.6-.2-.5,0-.9.5-1.1.3,0,.6-.2.9-.3.3,0,.6-.2.8-.3.5-.2.9,0,1.1.5s0,.9-.5,1.1c-.3,0-.6.2-.9.3-.3,0-.6.2-.8.3h-.3v.2Z"/>
    <path class="st2" d="M71.6,76.2h-.3c-1.8-.6-1.8-2-1.8-3.2s.5-.9.9-.9.9.5.9.9c0,1.1,0,1.2.8,1.5.5.2.8.6.5,1.1,0,.3-.5.6-.8.6h-.2Z"/>
    <path class="st2" d="M70.4,91.6c-.3,0-.5,0-.6-.3l-.8-.9c-.3-.3-.6-.6-.8-1.1-.3-.3-.3-.9,0-1.2s.9-.3,1.2,0c.3.3.6.8.9,1.1l.8.9c.3.3.3.9,0,1.2-.2,0-.3.2-.6.2l-.2.2Z"/>
    <path class="st2" d="M67.1,68.4l-1.8-.3h-2c-.5,0-.9-.5-.9-.9s.5-.9.9-.9.2,0,.3,0c0-.5,0-.8.5-.9s.9,0,1.2.5c0,.2.3.6.8,1.2l1.1,1.5v-.2Z"/>
    <path class="st2" d="M108,58.4h-.5l-1.7-1.1c-.5-.3-.5-.8-.3-1.2s.8-.5,1.2-.3l1.7,1.1c.5.3.5.8.3,1.2-.2.3-.5.5-.8.5v-.2Z"/>
    <path class="st2" d="M32.6,58.7c-.5,0-.8-.3-.9-.8,0-.5.3-.9.8-.9,1.1,0,2.1-.3,3.2-.3s.9.5.9.9-.5.9-.9.9c-1.1,0-2,0-3.1.3h0v-.2Z"/>
    <path class="st2" d="M76.7,64.6c-.5,0-.8-.3-.9-.8,0-.5.3-.9.8-.9l4.3-.3c.5,0,.9.3.9.8s-.3.9-.8.9l-4.3.3h0Z"/>
    <path class="st2" d="M87.2,57.3h-1.4c-.5,0-.9-.5-.9-.9s.5-.9.9-.9h1.4c.5,0,.9.5.9.9s-.5.9-.9.9Z"/>
    <path class="st2" d="M65.9,55.6c-.5,0-.9-.5-.9-.9v-1.7l.3-1.4c0-.5.6-.8,1.1-.6.5,0,.8.6.6,1.1l-.3,1.4v1.2c0,.5-.5.9-.9.9h.2Z"/>
    <path class="st2" d="M55.2,31.1c-.3,0-.8-.3-.8-.6v-.3c0-.3-.3-.6-.3-1.1h0c0-.5.2-.8.3-.9,0-.2,0-.3.2-.5,0-.5.6-.8,1.1-.6.5,0,.8.6.6,1.1,0,.3-.2.5-.3.8v.6s0,.3.2.5c0,.5,0,.9-.6,1.1h-.3Z"/>
    <path class="st2" d="M26.3,57.6c-.3,0-.8-.3-.8-.6-.2-.5,0-.9.6-1.1l1.1-.3c.5-.2.9,0,1.1.6.2.5,0,.9-.6,1.1l-1.1.3h-.3Z"/>
    <path class="st2" d="M21.2,62.2c-.3,0-.6-.2-.8-.5-.2-.5-.3-.8-.5-1.2,0-.3-.3-.8-.5-1.1-.2-.5,0-.9.5-1.2.5-.2.9,0,1.2.5.2.5.3.8.5,1.2,0,.3.3.8.5,1.1.2.5,0,.9-.5,1.2h-.5Z"/>
    <path class="st2" d="M65.7,43.7c-.2,0-.5,0-.6-.3l-.9-.9c-.3-.3-.3-.9,0-1.2s.9-.3,1.2,0l.9.9c.3.3.3.9,0,1.2s-.5.3-.6.3Z"/>
    <path class="st2" d="M19,66.3h-.3c-.5-.2-.8-.6-.6-1.1h0v-.6c0-.5.5-.9.9-.9s.9.5.9.9,0,.8-.2,1.1h0c0,.6-.5.8-.8.8v-.2Z"/>
    <path class="st2" d="M60.1,87.2h-.5c-.2,0-.3-.2-.3-.3-.2,0-.3-.2-.3-.3-.2-.5,0-.9.5-1.2.3-.2.6-.3,1.1-.3h1.7l-.9,1.4c-.2.3-.3.5-.3.5-.2.3-.5.5-.8.5l-.2-.2Z"/>
    <path class="st2" d="M83.7,71.2c-.2,0-.5,0-.6-.3-.3-.3-.3-.9,0-1.2l.3-.3c.3-.3.9-.3,1.2,0s.3.9,0,1.2l-.3.3c-.2.2-.5.3-.6.3Z"/>
    <path class="st2" d="M64.6,59.8c-.2,0-.5,0-.6-.3-.3-.3-.3-.9,0-1.2l.3-.3c.3-.3.9-.3,1.2,0s.3.9,0,1.2l-.3.3c-.2.2-.5.3-.6.3Z"/>
    <path class="st2" d="M64.6,53.2c-.2,0-.5,0-.6-.3l-.3-.3c-.3-.3-.3-.9,0-1.2s.9-.3,1.2,0l.3.3c.3.3.3.9,0,1.2s-.5.3-.6.3Z"/>
    <path class="st2" d="M49.1,94.5c-.5,0-.6-.2-.9-.3h0c-.5-.3-.6-.8-.5-1.2.2-.5.8-.6,1.2-.5h.2c.5,0,.9.5.9.9s-.5.9-.9.9v.2Z"/>
    <path class="st2" d="M21.5,66.6c-.2,0-.5,0-.6-.3-.3-.3-.3-.9,0-1.2l.3-.3c.3-.3.9-.3,1.2,0s.3.9,0,1.2l-.3.3c-.2.2-.5.3-.6.3Z"/>
    <path class="st2" d="M64.6,60.8c-.2,0-.5,0-.6-.3-.3-.3-.3-.9,0-1.2l.3-.3c.3-.3.9-.3,1.2,0,.3.3.3.9,0,1.2l-.3.3c-.2.2-.5.3-.6.3Z"/>
    <path class="st2" d="M28,57.6c-.2,0-.5,0-.6-.3-.3-.3-.3-.9,0-1.2l.3-.3c.3-.3.9-.3,1.2,0s.3.9,0,1.2l-.3.3c-.2.2-.5.3-.6.3Z"/>
    <path class="st2" d="M72.7,98.8c-.3,0-.6-.2-.8-.5-.2-.5,0-.9.5-1.2h0c.2-.2.5-.3.9-.3s.9.5.9.9-.3.8-.8.9h-.8v.2Z"/>
    <path class="st2" d="M91,68.8c-.5,0-.6-.2-.9-.3h0c-.5-.3-.6-.8-.5-1.2s.8-.6,1.2-.5h.2c.5,0,.9.5.9.9s-.5.9-.9.9v.2Z"/>
    <path class="st2" d="M57,57c-.2,0-.5,0-.6-.3l-.3-.3c-.3-.3-.3-.9,0-1.2s.9-.3,1.2,0l.3.3c.3.3.3.9,0,1.2s-.5.3-.6.3Z"/>
    <path class="st2" d="M72.6,73.2c-.2,0-.5,0-.6-.3l-.3-.3c-.3-.3-.3-.9,0-1.2s.9-.3,1.2,0l.3.3c.3.3.3.9,0,1.2-.2.2-.5.3-.6.3Z"/>
    <path class="st2" d="M10.2,63.3h-.5c-.5-.2-.6-.8-.5-1.2v-.2c0-.5.5-.9.9-.9s.9.5.9.9-.2.6-.3.9h0c-.2.5-.5.6-.8.6l.2-.2Z"/>
    <path class="st2" d="M24.2,63.3c-.2,0-.5,0-.6-.3l-.3-.3c-.3-.3-.3-.9,0-1.2s.9-.3,1.2,0l.3.3c.3.3.3.9,0,1.2s-.5.3-.6.3Z"/>
    <g>
      <path class="st1" d="M33.5,106.6c-.2,0-.5,0-.6-.2-.3-.3-.5-.9,0-1.2.6-.6,1.2-1.4,1.7-2.1.9-1.1,1.7-2.3,2.7-3.4,2-2,3.5-4.3,5-6.7.6-.9,1.2-1.8,1.8-2.7s.8-.5,1.2-.3c.5.3.5.8.3,1.2-.6.9-1.2,1.8-1.7,2.7-1.5,2.4-3.1,4.9-5.3,7-.9.9-1.7,2-2.6,3.1-.6.8-1.2,1.5-1.8,2.3-.2.2-.5.3-.6.3h-.2Z"/>
      <path class="st1" d="M57.9,66.9h-2.3v-.9c0-.5,0-1.1-.2-1.7,0-.3,0-.8-.2-1.2,0-.5.3-.9.8-.9s.9.3.9.8v-1.1h0v-.9c0-.5.2-1.1.2-1.5l1.1-9.6c0-.5.5-.8.9-.8s.8.5.8.9l-1.1,9.5c0,.5,0,1.1-.2,1.7v.8c0,1.1,0,2-.3,3.1,0,.5-.2.8-.3,1.1v.9h-.2Z"/>
      <path class="st1" d="M74.4,67.4h0c-.6,0-.9-.5-1.2-.8h0c-.3-.5-.3-1.1,0-1.4s.9-.3,1.2,0l.2.2v.2c1.4-.3,2.9-.6,4.3-.9,1.5-.3,3.2-.8,4.7-1.1.5,0,.9.2,1.1.6,0,.5-.2.9-.6,1.1-1.5.3-3.2.8-4.7,1.1s-3.1.8-4.6,1.1h-.3Z"/>
      <path class="st1" d="M59.1,49.2c-.5,0-.8-.3-.9-.8v-10.2c0-2,.3-4,.5-5.9,0-.9.2-2,.3-2.9,0-.5.5-.8.9-.8s.9.5.8.9c0,.9-.2,2-.3,2.9-.2,2-.3,3.8-.5,5.8v9.8c0,.5-.3.9-.8,1.1h0v.2Z"/>
      <path class="st1" d="M64.6,84.9c-.3,0-.6,0-.8-.5s-.3-.5-.6-.8c-.3-.5-.6-.9-.9-1.4s-.8-.9-1.2-1.4c-.9-.9-2-2-1.7-3.8,0-.5.5-.8,1.1-.8s.8.5.8,1.1c0,.9.3,1.5,1.2,2.4.6.5,1.1,1.1,1.5,2s.5.6.8,1.1c.2.3.5.6.6.8.3.5.2.9-.3,1.2,0,0-.3,0-.5,0Z"/>
      <path class="st1" d="M39.2,66.3h-.9c-.5,0-1.1-.2-1.5-.2-2,0-4-.6-5.8-1.2-1.2-.5-2.4-.8-3.7-.9-.5,0-.8-.5-.8-1.1s.5-.8,1.1-.8c1.4.2,2.7.6,4,1.1,1.8.6,3.5,1.1,5.2,1.1s1.2,0,1.8.2h.8c.5,0,.8.5.8,1.1s-.5.8-.9.8Z"/>
      <path class="st1" d="M42.2,91.8h-.3c-.5-.2-.6-.8-.5-1.2.8-1.8,1.8-3.2,3.2-4.4.3-.2.5-.6.6-1.1,0-.3.3-.6.5-.9.3-.5.8-.6,1.2-.3s.6.8.3,1.2c0,.3-.3.5-.3.8-.3.6-.6,1.2-1.1,1.7-1.1.9-2,2.3-2.7,3.8,0,.3-.5.5-.8.5h-.2Z"/>
      <path class="st1" d="M90.7,63.4c-.6,0-1.1-.3-1.4-.6l-.3-.2h-3.1c-.6,0-.9-.5-.9-.9s.5-.9.9-.9h3.2c.6,0,1.1.3,1.4.6,0,0,.2.2.3.2l.2-.2c.3-.3.9-.5,1.2,0,.3.3.5.9,0,1.2-.6.6-1.1.8-1.5.8Z"/>
      <path class="st1" d="M64.2,69.5c-.5,0-.9,0-1.2-.2h-1.4v-.9c0-.9.3-1.7.3-2.3s.6-.8,1.1-.8.8.5.8.9-.2.9-.3,1.5h.8c1.4-.6,2.7-.8,4.1-.9,1.5,0,3.1-.3,4.3-1.2.5-.3.9-.2,1.2.2.3.5.2.9-.2,1.2-1.7,1.2-3.4,1.4-5.2,1.5-1.2,0-2.4.2-3.5.8-.3,0-.6.2-.8.2Z"/>
      <path class="st1" d="M51.8,81.4h-.3c-.5,0-.8-.6-.6-1.1.2-.8.6-1.4.9-2l.5-.9h-.3c-.5-.2-.6-.8-.5-1.1.2-.6.5-1.1.6-1.8v-.6h.8c.2,0,.8,0,1.1.3h.2v.3c.6,1.8-.3,3.4-.9,4.6-.3.6-.6,1.1-.8,1.7,0,.3-.5.6-.8.6h.2Z"/>
      <path class="st1" d="M68.4,86.1c-.5,0-.8-.3-.9-.8,0-.8-.8-1.2-1.4-1.8-.6-.5-1.1-.9-1.5-1.7-.3-.5,0-.9.3-1.2.5-.3.9,0,1.2.3.3.5.8.8,1.2,1.2.8.6,1.7,1.5,2,2.7,0,.5-.2.9-.8,1.1h-.2v.2Z"/>
      <path class="st1" d="M62.7,78.2c-.3,0-.6,0-.8-.5-.2-.3-.5-.8-.8-1.1v-.2c0,.2,0,.3-.2.5-.2.5-.8.6-1.2.5s-.6-.8-.5-1.2c0-.2.2-.5.3-.6,0-.3.2-.6.3-.9l.3-.5h1.5l.3.5c.3.3.5.8.8,1.1s.5.8.8,1.1c.3.5.2.9-.3,1.2h-.5l-.2.2Z"/>
      <path class="st1" d="M106.1,59.8h-.2c-.8,0-1.4-.5-1.8-1.1-.3-.5-.2-.9.3-1.2.5-.3.9-.2,1.2.3,0,.2.3.3.6.3.5,0,1.1-.3,1.5-.8.3-.3.9-.5,1.2,0,.3.3.5.9,0,1.2-.8.9-1.8,1.4-2.7,1.4l-.2-.2Z"/>
      <path class="st1" d="M93.3,62.7c-.6,0-1.4-.3-1.8-.5-.2,0-.3,0-.5-.2h-.3c-.5.3-.9.2-1.2-.3-.3-.5-.2-.9.3-1.2.2,0,.5-.3.6-.5.2,0,.3-.2.5-.3l1.4-.9v1.5c.5.2.9.3,1.2.3.9,0,2-.2,2.9-.5l.3,1.7c-1.1.3-2.1.5-3.4.5v.3Z"/>
      <path class="st1" d="M20.7,61.6h-.2c-.8-.2-1.7-.3-2.4-.5s-1.5-.3-2.4-.5c-.5,0-.8-.6-.6-1.1s.6-.8,1.1-.6c.8.2,1.7.3,2.4.5s1.5.3,2.4.5c.5,0,.8.6.6,1.1,0,.5-.5.8-.9.8v-.2Z"/>
      <path class="st1" d="M46.3,67.2h-.2c-.5,0-.9-.2-1.4-.3-.5,0-.9-.2-1.5-.3-.5,0-.8-.6-.6-1.1,0-.5.6-.8,1.1-.6.5,0,.9.2,1.4.3.5,0,.9.2,1.5.3.5,0,.8.6.6,1.1,0,.5-.5.6-.9.6Z"/>
      <path class="st1" d="M84.3,106.4c-.3,0-.5,0-.6-.3l-3.4-3.7c-.2-.3,0-.8,0-1.2v-.5c0-.5.5-.9.9-.9s.9.5.9.9v.8l3.1,3.4c.3.3.3.9,0,1.2-.2,0-.3.2-.6.2l-.3.2ZM82,101.8h0Z"/>
      <path class="st1" d="M32,63h-.5l-4.7-.8c0,.3-.5.6-.9.6s-.9-.5-.9-.9v-1.8l6.4,1.1c.3-.3.9,0,1.2.2h.2v.8c0,.5-.5.9-.9.9h.2Z"/>
      <path class="st1" d="M71.2,90.3c-.3,0-.6,0-.8-.5-.3-.5-.6-.9-.9-1.4s-.6-.9-.9-1.4,0-.9.3-1.2c.5-.3.9,0,1.2.3.3.5.6.9.9,1.4s.6.9.9,1.4,0,.9-.3,1.2h-.5v.2Z"/>
      <path class="st1" d="M14.9,60.5c-.5,0-.9,0-1.4-.5-.3-.3-.6-.6-.8-1.1h0c-.3,0-.5.2-.6.2-.5,0-.9-.2-1.1-.6,0-.5.2-.9.6-1.1.2,0,.3,0,.5-.2.3,0,.6-.2,1.1-.3h.9c0-.2,0,.8,0,.8,0,.5.2.6.3.8h.2v-.8c.3-.5.8-.6,1.2-.3.6.3.9.9.9,1.5s-.5.9-1.1,1.1h-.9l.2.5Z"/>
      <path class="st1" d="M43.1,67.2h-.8c-.5,0-.9-.2-1.2-.2h-1.8c-.5,0-.9-.5-.9-.9s.5-.9.9-.9h1.8c.6,0,1.1,0,1.5.3h.6c.5,0,.8.5.8,1.1s-.5.8-.9.8v-.2Z"/>
      <path class="st1" d="M72.9,93.2c-.9,0-1.5-.6-2-.9,0,0-.2,0-.3-.2-.3-.3-.5-.9,0-1.2l.2-.2c-.3-.3-.3-.8,0-1.1.3-.5.8-.5,1.2-.2.8.6,1.7,1.2,2.6,2l.9.8-.9.6c-.6.5-1.1.6-1.5.6l-.2-.3Z"/>
      <path class="st1" d="M77.8,97.6c-.3,0-.5,0-.8-.3l-1.7-2.1c-.3-.5-.2-.9.2-1.2.5-.3.9-.3,1.2.2l1.7,2.1c.3.5.2.9-.2,1.2-.2,0-.3.2-.6.2h.2Z"/>
      <path class="st1" d="M98,61.7c-.2,0-.5,0-.6-.2-.3-.3-.5-.9,0-1.2.8-.9,1.7-1.2,3.1-1.2s2-.3,3.2-.6c.3,0,.6,0,.9-.2.5,0,.9.2,1.1.6,0,.5-.2.9-.6,1.1-.3,0-.6,0-.8.2-1.2.3-2.3.6-3.7.6s-1.4.2-1.7.6c-.2.2-.5.3-.6.3h-.3Z"/>
      <path class="st1" d="M31.4,108.4h0c-.5,0-.8-.5-.8-1.1l.3-2.4c0-.5.5-.8,1.1-.8s.8.5.8,1.1l-.3,2.4c0,.5-.5.8-.9.8h-.2Z"/>
      <path class="st1" d="M49.2,81.7h-.5c-.5-.3-.5-.8-.3-1.2l1.4-2.1c.3-.5.8-.5,1.2-.3.5.3.5.8.3,1.2l-1.4,2.1c-.2.3-.5.5-.8.5v-.2Z"/>
      <path class="st1" d="M74.7,95.6c-.3,0-.6,0-.8-.5l-1.4-2.1c-.3-.5-.2-.9.3-1.2.5-.3.9-.2,1.2.3l1.4,2.1c.3.5.2.9-.3,1.2h-.5v.2Z"/>
      <path class="st1" d="M53.5,70.1h-3.4c-.5,0-.9-.5-.9-.9s.5-.9.9-.9h1.1v-.2c0-.5.5-.9.9-.9s.9.5.9.9v.5l.3,1.5h.2ZM53,68.1h0Z"/>
      <path class="st1" d="M49.1,70h-.3c-1.4-.6-2.1-1.8-2.7-2.9-.2-.5-.5-.8-.8-1.1-.3-.5-.2-.9.2-1.2.5-.3.9-.2,1.2.2.3.5.6.9.8,1.4.5.9,1.1,1.8,1.8,2.1.5.2.6.8.5,1.2,0,.3-.5.5-.8.5l.2-.2Z"/>
      <path class="st1" d="M45.1,68c-1.7,0-2.3-.8-2.4-1.7h-.5c-.5-.2-.8-.6-.6-1.1,0-.5.6-.8,1.1-.6h.3c.6,0,1.2.3,1.2,1.1s0,.5.8.5.9.5.9.9-.5.9-.9.9h.2ZM43,66.5h0Z"/>
      <path class="st1" d="M24.5,61.6h-.5c-.2,0-.5-.2-.6-.3-.3,0-.5-.2-.8-.3-.5-.2-.6-.8-.5-1.2.2-.5.8-.6,1.2-.5.2,0,.5.2.6.3.3,0,.5.2.8.3.5.2.6.8.5,1.2-.2.3-.5.5-.8.5Z"/>
      <path class="st1" d="M30.2,109.3c-.3,0-.6,0-.8-.3-.3-.5-.2-.9.2-1.2.5-.3.8-.6,1.2-.8.3-.3.8-.5,1.2-.8s.9-.2,1.2.2.2.9-.2,1.2c-.5.3-.8.6-1.2.8-.3.3-.8.5-1.2.8-.2,0-.3.2-.5.2Z"/>
      <path class="st1" d="M79.7,100.6c-.3,0-.6-.2-.8-.5-.2-.3-.3-.8-.5-1.1,0-.3-.3-.6-.5-.9-.2-.5,0-.9.5-1.2.5-.2.9,0,1.2.5.2.3.3.8.5,1.1,0,.3.3.6.5.9.2.5,0,.9-.5,1.2h-.5Z"/>
      <path class="st1" d="M11.6,59.6h-.3c-.5,0-.8-.2-1.2-.3-.5,0-.9-.2-1.2-.3-.5,0-.8-.6-.6-1.1,0-.5.6-.8,1.1-.6.5,0,.8.2,1.2.3.5,0,.9.2,1.2.3.5,0,.8.6.6,1.1,0,.5-.5.6-.9.6h.2Z"/>
      <path class="st1" d="M83.9,64.9c-.3,0-.8-.3-.8-.6-.2-.5,0-.9.6-1.1s.8-.2,1.1-.3c.3,0,.6-.2.9-.3.5,0,.9,0,1.1.6.2.5,0,.9-.6,1.1-.3,0-.8.2-1.1.3-.3,0-.6.2-.9.3s-.2,0-.3,0Z"/>
      <path class="st1" d="M57.9,71.6h-2.6v-.6c-.8-1.5-.3-2.6,1.1-3.4h.9c1.8,1.1,1.1,2.7.8,3.4l-.3.5.2.2ZM56.5,69.8h.2v-.3s-.2.2-.2.3Z"/>
    </g>
  </g>
</svg>