<?xml version="1.0" encoding="UTF-8"?>
<svg id="Layer_1" xmlns="http://www.w3.org/2000/svg" version="1.1" viewBox="0 0 120 120">
  <!-- Generator: Adobe Illustrator 29.8.1, SVG Export Plug-In . SVG Version: 2.1.1 Build 2)  -->
  <defs>
    <style>
      .st0 {
        fill: #fff;
      }

      .st1 {
        fill: #f4d1a8;
      }

      .st2 {
        fill: #caa170;
      }
    </style>
  </defs>
  <path class="st0" d="M93,118.8h-25.2c-1,0-1.8-.2-3-.2-2,0-4.1,0-5.7.2h-3.7c-7.1-.4-7.5-1.4-15.2-1.4s-5.3,0-9.5-1.8c-.8-.4-1.4-.6-1.8-1-1.4-1-2.4-2.4-4.3-9.1-1.4-5.1-1.6-6.7-1-8.3.2-1,.8-1.8,1-2.2-3.7-1.8-7.5-3.7-11.2-5.3-2.8-4.7-5.5-7.9-7.1-10.1-1.4-1.8-2.4-3-2.8-5.3-.6-2.4.6-3.5-.2-6.3-.6-1.8-1-2-1.6-4.3-.6-1.8-.6-3.5-.6-4.5.6-1,1.4-1.8,1.8-2.6,0-1.8,0-3.2.2-5.1.8-1,1.6-2,2.2-3.2,0-1.2.2-2.2.4-3.5.6-1.2,1.4-2.8,2.6-4.9,2.8-4.9,4.5-7.5,7.1-9.9,3.5-2.8,4.9-2.4,6.7-5.1,1-1.4,1.4-3,3.2-3.9,1-.6,1.6-.2,3.2-1s2.8-1.4,3.5-1.8c2.4-1.8,2-2.4,4.1-3.7s4.1-1.4,5.1-1.6c1.8,0,3.5,0,4.5.4.6.2,1.4.6,2,.4.6,0,1-.4,1.4-.6,1-.8,4.5-2.8,7.3-2.4.4,0,1.4.2,2.2,0,.6,0,.8-.4,1-.6,1.4-.6,2.8,1.2,4.9,2,2.8,1.4,4.1-.2,7.5.8,1.8.6,3.2,1.6,4.1,2.2l4.9,1.8c2,0,3.7.4,4.5.8,2.4,1,2.8,2,5.7,3,2,.8,2.2.2,3.9,1,2.2,1.2,3.7,3.2,3.9,3.7,1,1.6.8,2.2,1.8,3.5,1,1,2.2,1.6,2.4,1.8,1.4.6,1.6.2,2.4.8,1,.8,1.4,2,1.8,2.8.6,1.8.2,3.2,0,4.3,4.7,2.2,6.7,4.9,7.5,6.9,1.4,3.2,0,4.3,1.6,9.5,1.4,4.7,2.8,5.7,2.4,8.5-.6,2.6-2.2,2.8-2,5.3,0,2.4,2,3.5,1.6,5.9-.2,1-.6,1-1.4,2.6s-.6,3.2-.6,4.3c0,2.8.6,3,0,4.9,0,.6-.6,1.8-1.6,3-.8,1-1.4,1-2,1.8-1,1.2-1.4,2.4-1.4,2.8-.6,1.6-4.3,3.7-17.3,6.1,3.7,6.1,4.5,12.6,1.4,16.4-.6.8-1.6,1.8-3,2.4h.4v-.4Z"/>
  <g>
    <path class="st2" d="M50.7,119.2h0c-.8,0-1.8-.2-2.8-.2-1.8-.2-3.7-.4-5.3-.6-2.6-.2-5.3-.6-7.9-1-2.6-.6-5.9-1.4-7.7-4.5-1.6-2.6-2.6-5.3-3.2-7.7,0-.4-.2-.8-.4-1.4-.8-2.8-1.6-5.9,0-9.1-.6-.2-1.2-.6-1.8-.8-1.6-.8-3.2-1.4-4.9-2.2-.4-.2-.6-.8-.4-1.4.2-.4.8-.6,1.4-.4,1.6.8,3.2,1.4,4.9,2.2,1,.4,1.8.8,2.8,1.2l1,.4-.6,1c-1.8,2.8-1.2,5.7-.4,8.5,0,.4.2.8.4,1.4.6,2.2,1.6,4.7,3,7.1,1.2,2.2,3.9,3,6.3,3.5,2.4.4,5.3.6,7.7.8,1.6,0,3.5.4,5.3.6.8,0,2,0,3,.2.6,0,1,.6.8,1.2,0,.4-.4.8-1,.8l-.2.4Z"/>
    <path class="st2" d="M96.2,100.5c-.4,0-1-.4-1-.8,0-.6.4-1,.8-1,6.1-.8,11-2.4,14.8-5.3v-.6c.4-1.2,1-2.6,2.2-3.2,2.8-1.4,2.8-3.7,2.4-6.9-.2-2-.4-4.5,1.2-6.7.8-1,.8-2.2.2-3.7-.8-1.8-1.8-4.7,0-7.3,2.2-3.5.8-6.7-1-9.5-.2-.4,0-1,.2-1.4.4-.2,1,0,1.4.2,2,3.2,3.9,7.3,1,11.8-1,1.6-.4,3.5.4,5.5.8,2,.6,3.9-.6,5.5-1,1.6-1.2,3.2-.8,5.5.2,2.8.6,6.9-3.7,8.9-.4.2-.8,1.4-1.2,2.2,0,.2-.2.6-.4.8h0c0,.2-.2.4-.2.4-4.3,3.2-9.3,5.1-16,5.9h0l.2-.2ZM111.6,93.8h0Z"/>
    <path class="st2" d="M80.4,120c-4.3,0-8.7,0-12.6-.2-.6,0-1-.4-1-1s.4-1,1-1c3.9,0,8.3.2,12.4.2h11.4c1.8,0,1,.4,1,1s-.4,1-1,1h-11.4.2Z"/>
    <path class="st2" d="M1,59.3C.6,59.3.2,59.1,0,58.7,0,58.1,0,57.7.6,57.5c.4,0,1.6-.6,1.2-2.6-.6-2.8.6-5.3,2-7.1h0c0-.4.6-1,.6-1.2-.4-3.2,1.2-5.7,3-7.9.2-.4.6-.6.8-1,.4-.4,1-.6,1.4-.2s.6,1,.2,1.4c-.2.4-.6.8-.8,1-1.6,2-3,3.9-2.6,6.5h0c0,.8-.4,1.6-1.2,2.4h0c-1.4,2-2,3.7-1.6,5.7.4,2.4-.4,4.1-2.4,4.9h-.4.2Z"/>
    <path class="st2" d="M13.6,90.4c-.2,0-.6,0-.6-.2-.2,0-.6-.4-.8-.8-1-1.6-2.2-3.5-3.5-5.3-1.8-2.6-3.7-5.3-5.3-8.1-.8-1.2-.8-2.8-.8-4.5v-1.6c0-.6.4-1,1-1s1,.4,1,1v1.8c0,1.2,0,2.6.4,3.5,1.6,2.8,3.5,5.5,5.3,8.1,1.2,1.8,2.4,3.5,3.7,5.3h0l.2.2c.4.4.4,1,0,1.4,0,0-.4.2-.6.2Z"/>
    <path class="st2" d="M94.2,119c-.4,0-.6,0-.8-.4s0-1,.4-1.4c1.8-1.2,2.8-2.8,3-5.7.2-3.2-.4-6.1-2.2-9.5-.2-.4,0-1,.4-1.4.4-.2,1,0,1.4.4,1.8,3.9,2.6,7.1,2.4,10.6-.4,3.5-1.6,5.7-4.1,7.1h-.6v.4Z"/>
    <path class="st2" d="M32.5,18.7c-.2,0-.4,0-.6-.2-.4-.4-.4-1,0-1.4,2.4-3,5.5-5.7,9.7-5.7s3,.2,4.5.4c.8,0,1.4.2,2.2.4.6,0,1,.6.8,1,0,.6-.6,1-1,.8-.8,0-1.6-.2-2.2-.4-1.4-.2-2.8-.4-4.3-.4-3.2,0-5.7,2-8.3,5.1,0,.2-.4.4-.8.4Z"/>
    <path class="st2" d="M81.2,17.3h-.4c-.6-.2-1.2-.4-1.8-.6-1-.2-2.2-.6-3.2-1.2h-.2c-2.2-1.6-4.1-2.8-6.3-2.8s-1.4,0-2,0h-1.8c-.6,0-1-.4-1-1s.4-1,1-1h3.9c3,0,5.3,1.4,7.5,2.8h.2c.6.6,1.6,1,2.6,1.2.6,0,1.4.4,2,.6s.8.8.6,1.2c0,.4-.6.6-1,.6v.2Z"/>
    <path class="st2" d="M107.8,38h0c-.6,0-1-.4-1-1,0-3.5-.6-5.1-2.8-5.9-3-.8-5.1-2.8-6.1-6.1,0-.6,0-1,.6-1.2.6,0,1,0,1.2.6.8,2.6,2,4.1,4.7,4.7,4.5,1.2,4.3,6.1,4.3,7.7s-.4,1-1,1l.2.2Z"/>
    <path class="st2" d="M98.4,25.6c-.2,0-.6,0-.6-.2-.4-.4-1-1-1.4-1.6-.6-.8-1.4-1.8-2-2-3.2-.4-6.1-1.6-9.3-3.9-.4-.4-.6-1,0-1.4.4-.4,1-.6,1.4,0,2.8,2.2,5.3,3.2,8.3,3.5,1.4,0,2.4,1.4,3.5,2.6.4.6.8,1,1.2,1.4s.4,1,0,1.4-.4.2-.6.2h-.4Z"/>
    <path class="st2" d="M116.1,54.2c-.4,0-.8-.4-1-.8-.2-1.4-.6-2.8-.6-4.3.4-3.5-.8-5.9-3.5-7.7-.4-.2-.6-1-.2-1.4.2-.4,1-.6,1.4-.2,3.5,2.2,4.9,5.5,4.5,9.5,0,1.2.2,2.4.6,3.7,0,.6-.2,1-.8,1.2h-.4Z"/>
    <path class="st2" d="M19.7,28.1c-.2,0-.6,0-.6-.2-.4-.4-.4-1,0-1.4l.8-.8c.6-.4,1.2-1,1.4-1.6,1.2-3.5,3.7-5.1,7.3-5.5.6,0,1,.4,1,.8,0,.6-.4,1-.8,1-3,.2-4.7,1.4-5.7,4.1-.4,1-1.2,1.6-2,2.4s-.6.4-.8.6-.4.2-.6.2v.4Z"/>
    <path class="st2" d="M49.1,13.4c-.4,0-.6,0-.8-.6-.2-.4,0-1,.4-1.4l1.2-.6c1.2-.6,2.2-1.4,3.7-1.6,1.6-.4,3.5-.4,5.3-.4s1,.4,1,1-.4,1-1,1c-1.6,0-3.2,0-4.9.4-1,.2-2,.8-3,1.4l-1.2.6h-.4l-.2.2Z"/>
    <path class="st2" d="M10.4,37.8h-.6c-.4-.4-.6-1-.2-1.4.4-.6.8-1.2,1.2-1.8.4-.6.8-1.2,1.2-1.6.4-.6,1-1.4,1.4-2s1-1.2,1.4-2c.4-.4,1-.6,1.4-.2s.6,1,.2,1.4c-.4.6-1,1.4-1.4,2s-1,1.2-1.4,2c-.4.6-.8,1.2-1.2,1.8-.4.6-.8,1-1.2,1.6,0,.2-.6.4-.8.4v-.2Z"/>
    <path class="st2" d="M3.2,68.2c-.2,0-.6,0-.6-.2-1.4-1.4-1.6-3-1.8-4.5,0-.8-.2-1.4-.4-2-.2-.6,0-1,.6-1.2s1,0,1.2.6c.4.8.4,1.6.6,2.4.2,1.2.4,2.4,1.2,3.2s.4,1,0,1.4-.4.2-.6.2h-.2Z"/>
    <path class="st2" d="M4.3,67.4c-.4,0-.8-.2-1-.8,0-.8-.4-1.4-.6-2.2,0-.6-.4-1.4-.6-2,0-.6,0-1,.6-1.2.6,0,1,0,1.2.6,0,.8.4,1.4.6,2.2,0,.6.4,1.4.6,2,0,.6,0,1-.6,1.2h-.2v.2Z"/>
    <path class="st2" d="M109.4,92.6h-.4c-.4-.2-.8-.8-.4-1.2.2-.6.6-1.2.8-1.8s.6-1.2.8-1.8c.2-.4.8-.8,1.2-.4.4.2.8.8.4,1.2-.2.6-.6,1.2-.8,1.8s-.6,1.2-.8,1.8c0,.4-.6.6-.8.6v-.2Z"/>
    <path class="st2" d="M108.4,42.3c-.4,0-.8,0-.8-.6l-1.6-3.2c-.2-.4,0-1,.4-1.4.4-.2,1,0,1.4.4l1.6,3.2c.2.4,0,1-.4,1.4h-.4l-.2.2Z"/>
    <path class="st2" d="M59.5,119.8v-2c.8,0,1.8-.2,3-.2s1,.4,1,1-.4,1-1,1c-1,0-2,0-3,.2Z"/>
    <path class="st2" d="M11.8,85.1c-.4,0-.8-.2-1-.6-.2-.6-.4-1-.6-1.6,0-.6-.4-1-.6-1.6,0-.6,0-1,.6-1.2.6,0,1,0,1.2.6s.4,1,.6,1.6c0,.6.4,1,.6,1.6,0,.6,0,1-.6,1.2h-.4.2Z"/>
    <path class="st2" d="M90.7,23.8h-.4l-3.2-1.6c-.4-.2-.6-.8-.4-1.4.2-.4.8-.6,1.4-.4l3.2,1.6c.4.2.6.8.4,1.4,0,.4-.6.6-.8.6l-.2-.2Z"/>
    <path class="st2" d="M62.9,11.6h-.4c-.6-.2-1-.4-1.6-.6s-1-.4-1.6-.6c-.6,0-.8-.8-.6-1.2,0-.6.8-.8,1.2-.6.6.2,1,.4,1.6.6s1,.4,1.6.6c.6,0,.8.8.6,1.2,0,.4-.6.6-1,.6h.2Z"/>
    <path class="st2" d="M115.3,71.3h0c-.6,0-1-.6-.8-1,0-.6,0-1,.2-1.6,0-.6,0-1,.2-1.6,0-.6.6-1,1-.8.6,0,1,.6.8,1,0,.6,0,1-.2,1.6,0,.6,0,1-.2,1.6,0,.4-.4.8-1,.8Z"/>
    <path class="st2" d="M5.7,67c-.4,0-1-.4-1-.8,0-1-.2-2.2-.2-3.2s.4-1,1-1,1,.4,1,1c0,1,0,2,.2,3,0,.6-.4,1-.8,1h-.2Z"/>
    <path class="st2" d="M48.1,15.3h-3.2c-.6,0-1-.4-1-1s.4-1,1-1h3.2c.6,0,1,.4,1,1s-.4,1-1,1Z"/>
    <path class="st2" d="M7.5,68c-.6,0-1-.4-1-1v-2.6c0-.6.4-1,1-1s1,.4,1,1v2.6c0,.6-.4,1-1,1Z"/>
    <path class="st2" d="M33.5,20.5c-.4,0-.6,0-.8-.4-.4-.4-.2-1,.2-1.4s.8-.6,1.2-1,.8-.8,1.4-1c.4-.4,1-.2,1.4.2.4.4.2,1-.2,1.4s-.8.6-1.2,1-.8.8-1.4,1h-.6v.2Z"/>
    <path class="st2" d="M79,19.9h-.4c-.4,0-.8-.4-1.2-.6-.4,0-.8-.4-1.4-.6-.4-.2-.8-.8-.6-1.2s.8-.8,1.2-.6c.4,0,.8.4,1.2.6.4,0,.8.4,1.4.6.4.2.8.8.6,1.2,0,.4-.6.6-1,.6h.2Z"/>
    <path class="st2" d="M98.8,31.7c-.4,0-.6,0-.8-.4s-.6-.8-.8-1.2c-.2-.4-.6-.8-.8-1.4-.2-.4,0-1,.4-1.4.4-.2,1,0,1.4.4.2.4.6.8.8,1.2.2.4.6.8.8,1.4.2.4,0,1-.4,1.4h-.6Z"/>
    <path class="st2" d="M25.6,98.9h-.4c-.6,0-.8-.8-.6-1.2l.8-2.4c0-.6.8-.8,1.2-.6.6,0,.8.8.6,1.2l-.8,2.4c0,.4-.6.6-1,.6h.2Z"/>
    <path class="st2" d="M21.9,29.1c-.2,0-.6,0-.6-.2-.4-.4-.4-1,0-1.4l2-2c.4-.4,1-.4,1.4,0s.4,1,0,1.4l-2,2s-.4.2-.6.2h-.2Z"/>
    <path class="st2" d="M64.1,18.9h-.6c-.2,0-.6-.4-1-.4s-.8-.4-1.2-.6-.6-.8-.4-1.4c.2-.4.8-.6,1.4-.4.2,0,.6.4,1,.4s.8.4,1.2.6.6.8.4,1.4c0,.4-.6.4-.8.4Z"/>
    <path class="st2" d="M13.8,85.7c-.4,0-.8-.4-1-.8s0-.6-.2-1c0-.4-.2-.8-.2-1.2,0-.6.2-1,.8-1.2.6,0,1,.2,1.2.8,0,.4,0,.6.2,1,0,.4.2.8.2,1.2,0,.6-.2,1-.8,1.2h-.2Z"/>
    <path class="st2" d="M13.4,38c-.2,0-.4,0-.6-.2-.4-.4-.4-1,0-1.4.2-.4.6-.6.8-1,.2-.4.6-.8.8-1,.4-.4,1-.4,1.4,0s.4,1,0,1.4c-.2.4-.6.6-.8,1-.2.4-.6.8-.8,1,0,.2-.4.4-.8.4v-.2Z"/>
    <path class="st2" d="M96.6,36.6c-.2,0-.6,0-.6-.2l-1.6-1.6c-.4-.4-.4-1,0-1.4s1-.4,1.4,0l1.6,1.6c.4.4.4,1,0,1.4s-.4.2-.6.2h-.2Z"/>
    <g>
      <path class="st1" d="M73.5,77.4h0c-.6,0-1-.6-.8-1.2v-.4c0-.8.2-1.8.6-2.8,1.8-7.3,3.7-14.8,5.5-22.1,1.8-7.3,3.7-14.8,5.5-22.1,0-.6.6-.8,1.2-.8s.8.6.8,1.2c-1.8,7.3-3.7,14.8-5.5,22.1-1.8,7.3-3.7,14.8-5.5,22.1-.2.8-.4,1.6-.4,2.4v.4c0,.4-.6.8-1,.8l-.4.4Z"/>
      <path class="st1" d="M63.5,62.2h0c-.6,0-1-.6-1-1l.8-12c.4-8.5.8-16.8,1.4-25.2v-4.5c.2-.6.8-1,1.2-1,.6,0,1,.4,1,1v4.5c-.6,8.3-1.2,16.8-1.6,25.2l-.8,12c0,.6-.4,1-1,1Z"/>
      <path class="st1" d="M43.2,95.2c-.2,0-.6,0-.8-.4-7.7-8.1-15.6-16.4-23.7-24.6s-6.3-5.3-9.3-7.5c-1.2-.8-2.4-1.8-3.5-2.6-.4-.4-.6-1,0-1.4.4-.4,1-.6,1.4,0,1.2.8,2.2,1.8,3.5,2.6,3.2,2.4,6.7,4.9,9.5,7.7,8.1,7.9,16,16.4,24,24.6.4.4.4,1,0,1.4,0,0-.4.2-.6.2h-.4Z"/>
      <path class="st1" d="M47.5,70.5c-.4,0-.8-.2-1-.6-1-2.8-2-5.9-3-8.7-1-2.8-2-5.9-3-8.7-1.2-3.2-2.2-6.3-3.2-9.5-1-3.2-2.2-6.3-3.2-9.5,0-.6,0-1,.6-1.2.6,0,1,0,1.2.6,1.2,3.2,2.2,6.5,3.2,9.5,1,3.2,2.2,6.3,3.2,9.5,1,2.8,2,5.9,3,8.7,1,2.8,2,5.9,3,8.7,0,.6,0,1-.6,1.2h-.4.2Z"/>
      <path class="st1" d="M51.8,53.6c-.4,0-.8-.4-1-.8h0c0-.8-.2-1.4-.2-2l-4.1-32.3c0-.6.4-1,.8-1,.6,0,1,.4,1,.8l4.1,32.3v1.4h0c0,.8-.2,1.4-.8,1.4h0l.2.2Z"/>
      <path class="st1" d="M84.8,99.5c-.4,0-.6,0-.8-.4-.4-.4,0-1,.2-1.4l28.4-19.1c.4-.4,1,0,1.4.2.4.4,0,1-.2,1.4l-28.4,19.1h-.6v.2Z"/>
      <path class="st1" d="M50.1,99.9c-.4,0-.6,0-.8-.6-.4-1-1-2-1.4-2.8-.8-1.6-1.6-3.2-2.4-4.9-1.6-2.6-3-5.5-4.7-8.1s-3-5.5-4.7-8.1c-.2-.4,0-1,.4-1.4.4-.2,1,0,1.4.4,1.6,2.6,3,5.5,4.7,8.1s3,5.5,4.7,8.1c1,1.6,1.8,3.2,2.6,4.9.4,1,1,1.8,1.4,2.8.2.4,0,1-.4,1.4h-.4l-.4.2Z"/>
      <path class="st1" d="M83.8,79.6h-.4c-.4-.2-.6-.8-.4-1.4,1.4-2.4,2.6-4.9,4.1-7.5,1.4-2.4,2.6-5.1,4.1-7.5.8-1.4,1.6-3,2.4-4.5,2.4-4.9,5.1-9.9,8.9-14.2.4-.4,1-.4,1.4,0s.4,1,0,1.4c-3.7,4.1-6.3,9.1-8.7,13.8-.8,1.6-1.6,3-2.4,4.7-1.4,2.4-2.6,4.9-4.1,7.5-1.4,2.4-2.6,5.1-4.1,7.5,0,.4-.6.6-.8.6v-.4Z"/>
      <path class="st1" d="M91.3,82.2c-.2,0-.6,0-.8-.2-.4-.4-.4-1,0-1.4,3.2-3.2,6.5-6.5,9.9-9.5,3.2-3.2,6.5-6.3,9.7-9.5.4-.4,1-.4,1.4,0s.4,1,0,1.4c-3.2,3.2-6.5,6.3-9.7,9.5-3.2,3.2-6.7,6.5-9.9,9.5,0,0-.4.2-.6.2Z"/>
      <path class="st1" d="M46.1,108.2c-.2,0-.4,0-.6-.2l-1.6-1.2c-2.4-1.8-4.9-3.9-7.3-5.3-2-1.2-4.3-2.4-6.3-3.7-1.4-.8-2.6-1.4-4.1-2.2-.4-.2-.6-.8-.4-1.4s.8-.6,1.4-.4c1.4.8,2.6,1.4,4.1,2.2,2.2,1.2,4.3,2.4,6.5,3.7,2.6,1.6,5.1,3.7,7.5,5.5l1.6,1.2c.4.4.6,1,0,1.4,0,.2-.4.4-.8.4Z"/>
      <path class="st1" d="M32.3,53.8c-.4,0-.6,0-.8-.4l-13.6-18.3c-.4-.4-.2-1,.2-1.4.4-.4,1-.2,1.4.2l13.6,18.3c.4.4.2,1-.2,1.4h-.6v.2Z"/>
      <path class="st1" d="M21.9,56.7c-.2,0-.6,0-.8-.4-1.8-2-3.7-4.1-5.7-6.1-1.8-2-3.7-4.1-5.7-6.1s-.4-1,0-1.4,1-.4,1.4,0c1.8,2,3.7,4.1,5.7,6.1,1.8,2,3.7,4.1,5.7,6.1s.4,1,0,1.4c0,0-.4.2-.6.2v.2Z"/>
      <path class="st1" d="M73.5,109.9c-.2,0-.6,0-.8-.4-.4-.4-.2-1,0-1.4.6-.4,1.2-.8,1.8-1.2,3-1.2,5.9-2.4,8.9-3.5,2.8-1.2,5.9-2.2,8.7-3.5.6,0,1,0,1.2.6,0,.6,0,1-.6,1.2-2.8,1.2-5.9,2.2-8.7,3.5s-5.9,2.4-8.7,3.5c-.4,0-.8.6-1.4,1h-.6l.2.2Z"/>
      <path class="st1" d="M61.9,91h0c-.6,0-1-.6-.8-1.2,0-.8.2-1.8.4-2.6,0-.8.2-1.8.4-2.6,0-.6.6-.8,1.2-.8s1,.6.8,1.2c0,.8-.2,1.8-.4,2.6,0,.8-.2,1.8-.4,2.6,0,.4-.4.8-1,.8h-.2Z"/>
      <path class="st1" d="M80.6,87.1h-.4c-.4-.2-.8-.8-.4-1.2.2-.6.6-1.2.8-1.8s.6-1.2.8-1.8c.2-.4.8-.8,1.2-.4.4.2.8.8.4,1.2-.2.6-.6,1.2-.8,1.8s-.6,1.2-.8,1.8c0,.4-.6.6-.8.6v-.2Z"/>
      <path class="st1" d="M60.9,108.4h0c-.6,0-1-.6-.8-1,0-1,.2-2,.2-3s.4-1,1-1,1,.4,1,1c0,1.2,0,2.2-.2,3.2,0,.4-.4.8-1,.8h-.2Z"/>
      <path class="st1" d="M62.9,78.6h0c-.6,0-1-.6-.8-1,0-1,.2-2,.2-3s.4-1,1-1,1,.4,1,1c0,1.2,0,2.2-.2,3.2,0,.4-.4.8-1,.8h-.2Z"/>
      <path class="st1" d="M74.7,96.3h-.4c-.4-.2-.6-.8-.4-1.4.2-.4.6-1,.8-1.4s.6-.8.8-1.2.8-.6,1.4-.4c.4.2.6.8.4,1.4-.2.4-.6,1-.8,1.4s-.6.8-.8,1.2c0,.4-.6.4-.8.4h-.2Z"/>
      <path class="st1" d="M69.4,89.4h0c-.6,0-1-.6-.8-1.2,0-.4,0-1,.2-1.4,0-.4,0-.8.2-1.2,0-.6.6-1,1.2-.8.6,0,1,.6.8,1.2,0,.4,0,1-.2,1.4,0,.4,0,.8-.2,1.2,0,.4-.4.8-1,.8h-.2Z"/>
      <path class="st1" d="M86.5,87.7h-.6c-.4-.4-.6-1-.2-1.4.4-.4.8-1,1.2-1.4s.6-.8,1-1.2,1-.6,1.4-.2c.4.4.6,1,.2,1.4-.4.4-.8,1-1,1.4-.4.4-.6.8-1,1.2,0,.2-.4.4-.8.4l-.2-.2Z"/>
      <path class="st1" d="M67.2,95.6c-.2,0-.4,0-.6-.2-.4-.4-.4-1,0-1.4.2-.4.6-.6.8-1s.6-.8.8-1c.4-.4,1-.4,1.4,0s.4,1,0,1.4c-.2.4-.6.6-.8,1s-.6.8-.8,1c0,.2-.4.4-.8.4v-.2Z"/>
      <path class="st1" d="M74.1,107.4c-.2,0-.6,0-.6-.2-.4-.4-.4-1,0-1.4l2-2c.4-.4,1-.4,1.4,0s.4,1,0,1.4l-2,2s-.4.2-.6.2h-.2Z"/>
      <path class="st1" d="M48.9,103c-.4,0-.8,0-.8-.6s-.4-.8-.6-1.2c-.2-.4-.4-.8-.6-1.2s0-1,.4-1.4c.4-.2,1,0,1.4.4,0,.4.4.8.6,1.2.2.4.4.8.6,1.2s0,1-.4,1.4h-.4l-.2.2Z"/>
      <path class="st1" d="M50.1,111.1c-.2,0-.4,0-.6-.2-.4-.4-.8-.6-1.2-.8-.4-.4-.8-.6-1.2-1s-.4-1,0-1.4,1-.4,1.4,0,.8.6,1.2.8c.4.4.8.6,1.2,1s.4,1,0,1.4c0,.2-.4.4-.8.4v-.2Z"/>
      <path class="st1" d="M71.4,82.4h-.6c-.4-.2-.6-.8-.4-1.4,0-.2.4-.6.4-1s.4-.8.6-1.2c.2-.4.8-.6,1.4-.4.4.2.6.8.4,1.4,0,.2-.4.6-.4,1s-.4.8-.6,1.2-.6.4-.8.4Z"/>
      <path class="st1" d="M79.6,103.8c-.4,0-.8-.4-1-.8,0-.6.2-1,.8-1.2h.2c.6,0,1.2-.2,1.8-.2s1,.4,1,1-.4,1-1,1h-1.6l-.2.2Z"/>
      <path class="st1" d="M28.8,66c-.4,0-.6,0-.8-.4,0-.2-.4-.6-.6-.8-.2-.4-.6-.6-.8-1-.2-.4,0-1,.4-1.4.4-.2,1,0,1.4.4,0,.2.4.6.6.8.2.4.6.6.8,1,.2.4,0,1-.4,1.4h-.6Z"/>
    </g>
    <path class="st2" d="M110.8,41h-.6c-.4,0-.6-.4-.8-.6-.4,0-.6-.4-1-.6s-.6-.8-.4-1.4c.2-.4.8-.6,1.4-.4.4,0,.6.4.8.6.4,0,.6.4,1,.6s.6.8.4,1.4c0,.4-.6.4-.8.4Z"/>
    <path class="st2" d="M62.9,14h-.6c-.2,0-.4-.4-.8-.4s-.6-.4-.8-.6c-.4-.4-.6-1,0-1.4.4-.4,1-.6,1.4,0,.2,0,.4.4.8.4s.6.4.8.6c.4.4.6,1,0,1.4,0,.2-.4.4-.8.4v-.4Z"/>
    <path class="st2" d="M97,33.3h-.6c-.2,0-.4-.4-.8-.4s-.6-.4-.8-.6c-.4-.4-.6-1,0-1.4.4-.4,1-.6,1.4,0,.2,0,.4.4.8.4s.6.4.8.6c.4.4.6,1,0,1.4,0,.2-.4.4-.8.4v-.4Z"/>
    <path class="st2" d="M95,39.2c-.2,0-.6,0-.6-.2l-1-1c-.4-.4-.4-1,0-1.4s1-.4,1.4,0l1,1c.4.4.4,1,0,1.4s-.4.2-.6.2h-.2Z"/>
    <path class="st2" d="M48.7,23c-.4,0-.6,0-.8-.4-.4-.4,0-1,.2-1.4,0,0,.4-.2.4-.4,0,0,.4-.2.6-.4.4-.2,1,0,1.4.2.4.4,0,1-.2,1.4,0,0-.4.2-.4.4,0,0-.4.2-.6.4h-.6v.2Z"/>
    <path class="st2" d="M88.5,26.4h-.4c-.2,0-.6-.2-.8-.4h-.4c-.6,0-.8-.8-.6-1.2,0-.6.8-.8,1.2-.6.2,0,.6.2.8.4h.4c.6,0,.8.8.6,1.2,0,.4-.6.6-1,.6h.2Z"/>
    <path class="st2" d="M108.2,91.8c-.2,0-.6,0-.6-.2-.4-.4-.4-1,0-1.4l.8-.8c.4-.4,1-.4,1.4,0s.4,1,0,1.4l-.8.8s-.4.2-.6.2h-.2Z"/>
    <path class="st2" d="M16,38.6h-.4c-.6,0-.8-.8-.6-1.2,0-.2.2-.6.4-.8v-.4c0-.6.8-.8,1.2-.6.6,0,.8.8.6,1.2,0,.2-.2.6-.4.8v.4c0,.4-.6.6-1,.6h.2Z"/>
    <path class="st2" d="M64.1,26.4c-.2,0-.6,0-.6-.2l-.6-.6c-.4-.4-.4-1,0-1.4s1-.4,1.4,0l.6.6c.4.4.4,1,0,1.4,0,0-.4.2-.6.2h-.2Z"/>
    <path class="st2" d="M77.3,26.8c-.2,0-.6,0-.6-.2l-.6-.6c-.4-.4-.4-1,0-1.4s1-.4,1.4,0l.6.6c.4.4.4,1,0,1.4,0,0-.4.2-.6.2h-.2Z"/>
    <path class="st2" d="M77.3,29.1c-.2,0-.6,0-.6-.2l-.6-.6c-.4-.4-.4-1,0-1.4s1-.4,1.4,0l.6.6c.4.4.4,1,0,1.4,0,0-.4.2-.6.2h-.2Z"/>
    <path class="st2" d="M24.6,30.7c-.2,0-.6,0-.6-.2-.4-.4-.4-1,0-1.4l.6-.6c.4-.4,1-.4,1.4,0s.4,1,0,1.4l-.6.6s-.4.2-.6.2h-.2Z"/>
    <path class="st2" d="M26.2,32.3c-.2,0-.6,0-.6-.2-.4-.4-.4-1,0-1.4l.6-.6c.4-.4,1-.4,1.4,0s.4,1,0,1.4l-.6.6s-.4.2-.6.2h-.2Z"/>
    <path class="st2" d="M106.8,63.6c-.2,0-.6,0-.6-.2-.4-.4-.4-1,0-1.4l.6-.6c.4-.4,1-.4,1.4,0s.4,1,0,1.4l-.6.6s-.4.2-.6.2h-.2Z"/>
    <path class="st2" d="M88.5,104.8c-.4,0-.8,0-.8-.6v-.2s-.2-.4-.4-.6c-.2-.4,0-1,.4-1.4.4-.2,1,0,1.4.4v.2s.2.4.4.6c.2.4,0,1-.4,1.4h-.4l-.2.2Z"/>
    <path class="st2" d="M90.7,104.2c-.4,0-.8,0-.8-.6s-.4-.8-.4-1.2.4-1,1-1,1,.4,1,1v.4c.2.4,0,1-.4,1.4,0,0-.2,0-.4,0ZM91.3,102.5h0Z"/>
    <path class="st2" d="M40.6,95.6c-.2,0-.6,0-.6-.2l-.6-.6c-.4-.4-.4-1,0-1.4s1-.4,1.4,0l.6.6c.4.4.4,1,0,1.4,0,0-.4.2-.6.2h-.2Z"/>
    <path class="st2" d="M54,66.4c-.2,0-.6,0-.6-.2-.4-.4-.4-1,0-1.4l.6-.6c.4-.4,1-.4,1.4,0s.4,1,0,1.4l-.6.6s-.4.2-.6.2h-.2Z"/>
    <path class="st2" d="M27.8,91c-.2,0-.6,0-.6-.2l-.6-.6c-.4-.4-.4-1,0-1.4s1-.4,1.4,0l.6.6c.4.4.4,1,0,1.4,0,0-.4.2-.6.2h-.2Z"/>
    <path class="st2" d="M16,85.7c-.2,0-.6,0-.6-.2l-.6-.6c-.4-.4-.4-1,0-1.4s1-.4,1.4,0l.6.6c.4.4.4,1,0,1.4s-.4.2-.6.2h-.2Z"/>
    <path class="st2" d="M25.2,48.8c-.2,0-.6,0-.6-.2l-.6-.6c-.4-.4-.4-1,0-1.4s1-.4,1.4,0l.6.6c.4.4.4,1,0,1.4s-.4.2-.6.2h-.2Z"/>
  </g>
</svg>