<?xml version="1.0" encoding="UTF-8"?>
<svg id="Layer_1" xmlns="http://www.w3.org/2000/svg" version="1.1" viewBox="0 0 120 120">
  <!-- Generator: Adobe Illustrator 29.8.1, SVG Export Plug-In . SVG Version: 2.1.1 Build 2)  -->
  <defs>
    <style>
      .st0 {
        fill: #fff;
      }

      .st1 {
        fill: #f4d1a8;
      }

      .st2 {
        fill: #caa170;
      }
    </style>
  </defs>
  <path class="st0" d="M42.4,114.1c.2.3.2.6.3,1,0,1.8-2.1,3.2-3.5,3.7-.6.2-1.1.5-1.8.3-1-.2-1.8-1.1-2.1-2.1-.5-1.4.5-2.7.6-2.9,0-.2-1.8-2.7-.6-4.9.3-.6.8-1.1,1.3-1.4-1.1-1-1.4-1.9-1.4-2.6-.2-1.9,1.4-2.9,1-4.9-.2-1.3-.8-1.3-.8-2.6s0-.8.5-2.9c.2-.8.5-1.8,1-2.9-1-.6-1.4-1.3-1.8-1.8-1.4-2.6-.6-6.1,2.1-9.1v-1.3c-.8-1-2.6-3-2.6-5.9s.6-3.7,1-4.5c.6-1.4,1-1.8,2.1-3.7,1-1.6,1.4-2.9,1.8-3.7,0-1-.2-2.1-.3-3.2-.6-1.3-1.4-3-1.8-5.6s0-4.5.5-6.9c.6-3,1.6-5.3,2.1-6.7.2-.6.8-1.8,1.8-3.4.5-1,2.1-3.8,5.1-7.3,1.9-2.2,4.9-5.3,9.1-8.3,1-1.1,1.8-2.2,2.6-3.4,1.3-3.7,1.8-5.7,2.1-6.9,0-.3.5-2.1,1.1-4.5h0v-1.3c0-.3.2-.6.5-1.4.2-.5.2-.8.3-.8.5-.8,1.3-1,1.8-1.1,2.1-.6,4.3-.2,5.1,0,.3.2,1,.6,1.4,1.6.6,1.4,0,2.9,0,2.9,1.6.6,2.9,1.3,3.7,1.6,2.6,1,3.5,1.4,4.3,2.4.6.8,1,1.8,1.3,2.4v4.1c.5,1,1.1,2.2,2.2,3.7,1.8,2.4,3,2.7,3.7,4.1.6,1.3.6,3.4-1.4,7,.2,1.1.5,2.2.6,3.4.5,3,1.6,13.6-5.3,22.8s-4.9,5.3-7,6.5c-1,1-1.9,1.9-2.9,2.9.2,1.1,1,4.5-.6,8-2.1,4.9-6.9,6.5-7.7,6.9,0,1.6-.5,2.9-.8,3.8-.6,2.1-1.1,3.7-2.7,5.3-1.1,1-2.2,1.4-2.9,1.8-.2.3-.6.6-.8,1,0,.5,1,3.4-.6,6.1-1.4,2.6-3.7,3.4-4.3,3.5,0,.6,0,1.6-.3,2.7-1,2.6-3.4,3.5-3.8,3.7,0,.5.2,1,0,1.8-.3,1.9-2.1,2.9-2.6,2.9h-.3Z"/>
  <g>
    <path class="st2" d="M72.6,64.8h-.5c-.3-.3-.5-.8-.2-1.1.3-.3.5-.8,1-1.1,4.8-3.2,8-7.3,10.1-13.1,1.6-4.5,1.9-9.3,1-14.7,0-.5.2-1,.6-1s1,.2,1,.6c1,5.7.6,10.7-1.1,15.5-2.1,5.9-5.7,10.5-10.7,13.9-.2,0-.3.3-.5.6-.2.3-.5.3-.6.3Z"/>
    <path class="st2" d="M41.1,37h-.3c-.5-.2-.6-.6-.5-1.1,2.4-4.9,5.9-9.1,11-13.1l3.4-2.7c.3-.3,1-.2,1.1,0,.3.3.2,1,0,1.1l-3.4,2.7c-4.8,3.8-8.3,7.8-10.5,12.4,0,.3-.5.5-.8.5v.2Z"/>
    <path class="st2" d="M38.7,59.5c-.3,0-.6,0-.8-.5-2.2-4-2.6-8.3-1.3-13.2.3-1.4.8-2.7,1.3-4.1.3-.8.5-1.6.8-2.2,0-.5.6-.6,1.1-.5.5,0,.6.6.5,1.1-.3.8-.5,1.6-.8,2.4-.5,1.3-1,2.6-1.3,4-1.1,4.6-.8,8.5,1.1,12.1.2.5,0,1-.3,1.1h-.5l.2-.2Z"/>
    <path class="st2" d="M57.9,18h-.2c-.5,0-.6-.6-.6-1.1.5-1.8,1.1-3.7,1.6-5.4s1.1-3.5,1.6-5.3c0-.3.2-.8.2-1.3v-.8c.5-2.9,1.6-3.7,4.3-4h2.7c.5,0,.8.3.8.8s-.3.8-.8.8h-2.6c-1.9.2-2.2.5-2.7,2.6v.6c0,.5,0,1.1-.3,1.6-.5,1.8-1,3.5-1.6,5.3-.5,1.8-1.1,3.5-1.6,5.4,0,.3-.5.6-.8.6v.2Z"/>
    <path class="st2" d="M55,93.4l-1.4-.5c-.5,0-.8-.6-.6-1.1,0-.5.6-.6,1.1-.6l1,.3c1.9-.6,3.4-2.1,4.1-4.1.5-1.3.8-2.7,1.1-4.3,0-.5.2-1.1.3-1.8v-.5h.6c5.4-1.4,9.3-8.3,7.7-13.7,0-.5,0-1,.6-1.1.5,0,1,0,1.1.6,1.8,6.2-2.2,13.7-8.3,15.8,0,.3,0,.8-.2,1.1-.3,1.6-.6,3.2-1.3,4.6-1.1,2.6-2.9,4.3-5.6,5.1h-.2l-.2.2Z"/>
    <path class="st2" d="M84.2,31.9h-.3c-.5-.2-.6-.6-.5-1.1,0-.3.3-.6.5-1,.3-.8.6-1.6,1-2.4.6-2.1,0-3.8-1.6-5.3-.2-.2-.5-.5-.6-.6-.6-.6-1.3-1.3-1.9-2.1-.6-.8-1.1-1.8-1.4-2.6v-.5c-.5-.5-.3-1,0-1.1.5-.2,1,0,1.1.3v.5c.6.8,1,1.6,1.4,2.2s1.1,1.3,1.8,1.8c.2.2.5.5.6.6,2.1,1.9,2.9,4.3,2.1,7-.3,1-.6,1.8-1,2.6,0,.3-.3.6-.5,1,0,.3-.5.5-.8.5l.2.2Z"/>
    <path class="st2" d="M45,110.1l-4.1-.3c-.5,0-.8-.5-.8-1s.5-.8,1-.8l3.8.3c2.6-1.1,3.7-2.7,3.5-5.4v-.6l.6-.2c4-1.3,4.6-4.3,4.5-8.5h-2.6c-.5,0-.8-.5-.6-1s.5-.8,1-.6h1c.8,0,1.9,0,2.7.8h.2v.5c.2,4.1-.3,8.5-5.1,10.2,0,3-1.6,5.3-4.8,6.5h-.2Z"/>
    <path class="st2" d="M37.6,120h0c-1.1-.2-2.1-.8-2.6-1.9-.5-1.1-.5-2.6,0-3.8-1.3-3.2-1.3-4.6.5-6.5,0,0,0-.2-.2-.3-.3-.5-.6-1.1-1-1.8v-.3c-.2,0,0-.3,0-.3.2-1,.5-1.9.8-2.9.3-1.1.5-1.8,0-2.6-1.1-1.9-.5-3.7,0-5.1,0-.5.3-.8.3-1.3s0-.8.2-1.1v-.6c0-.5.5-.8,1-.6.5,0,.8.5.6,1,0,.2,0,.5-.2.6v.8h0c0,.6-.3,1.3-.5,1.8-.5,1.4-.8,2.6-.2,3.8.8,1.4.5,2.7.2,4-.3.8-.5,1.6-.6,2.4.3.5.6,1,.8,1.4.2.3.3.6.5.8l.3.6-.5.5c-1.6,1.4-1.8,2.1-.3,5.6v.6c-.5.8-.6,1.9-.2,2.6.2.3.5.8,1.3,1,.5,0,.8.5.6,1,0,.5-.5.6-.8.6l-.2.2Z"/>
    <path class="st2" d="M79.6,12.9c-.3,0-.8-.3-.8-.6-.5-2.2-2.2-3-4.3-3.8-.3,0-.5-.2-.8-.3-1.3-.5-2.7-1.1-4-1.6-.8-.3-1.8-.6-2.6-1-1.9-.8-2.9-2.2-3-4.6,0-.5.3-.8.8-1,.5,0,.8.3,1,.8,0,1.6.6,2.6,1.9,3.2.8.3,1.8.6,2.6,1,1.4.5,2.7,1.1,4,1.6.3,0,.5.2.8.3,2.1,1,4.6,1.9,5.3,5.1,0,.5-.2,1-.6,1h-.2Z"/>
    <path class="st2" d="M37,80.4c-.2,0-.5,0-.6-.3-2.7-3-3.4-7-1.9-11.2.5-1.6,1.6-3.2,2.4-4.8.5-.6.8-1.4,1.3-2.1,0-.3,0-.5.2-.6h0c.2-.5.8-.6,1.1-.5.5.2.6.8.3,1.1s0,0,0,.2h0v.3c-.5.8-1,1.6-1.4,2.2-1,1.4-1.8,2.9-2.2,4.3-1,2.6-1.4,6.2,1.6,9.4.3.3.3,1,0,1.3-.2,0-.3.2-.6.2v.5Z"/>
    <path class="st2" d="M35.9,92.6h-.3c-1.1-1.1-1.9-2.6-2.1-4.3-.3-2.7.8-5.6,2.7-8,.3-.3.8-.5,1.3,0s.5.8,0,1.1c-1.6,1.9-2.6,4.5-2.2,6.7,0,.8.3,1.9,1.1,2.6.6,0,1.3-.2,1.9-.2s.8.3.8.8-.3.8-.8.8-1.4,0-2.1.2h-.3v.3Z"/>
    <path class="st2" d="M39.4,119.7c-.3,0-.5,0-.6-.3-.3-.3-.2-1,.2-1.1s.6-.5,1-.6c.5-.3,1-.5,1.3-.8,1-1,1.1-1.4.6-2.1-.2-.5,0-1,.3-1.1.5-.2,1,0,1.1.3,1.3,2.1-.3,3.7-1,4.1-.5.5-1.1.8-1.6,1.1-.3.2-.6.3-.8.5h-.5Z"/>
    <path class="st2" d="M70.2,6.7h0c-.5,0-.8-.5-.8-1v-.5c.3-1.8.3-2.6-1-3.4-.5-.2-.5-.8-.3-1.1.2-.5.8-.5,1.1-.3,2.4,1.3,2.1,3.4,1.9,4.9v.5c0,.5-.5.8-1,.8Z"/>
    <path class="st2" d="M41.4,114.7h-.2c-.5,0-.8-.5-.8-1s.5-.8,1-.8c.8,0,1.4-.3,1.9-.8.6-.6,1-1.8.8-2.9,0-.5.3-1,.8-1s1,.3,1,.8c.2,1.6-.3,3.2-1.3,4.3-.8.8-1.9,1.3-3,1.3h-.2Z"/>
    <path class="st2" d="M44,58.4h-.2l-1.4-.3v-.6c-.2-1.1-.2-2.2-.2-3.4s.3-.8.8-.8.8.3.8.8v2.6h.3c.5.2.8.6.6,1.1,0,.3-.5.6-.8.6Z"/>
    <path class="st2" d="M70.2,64.1h-.3c-.5-.2-1.1-.5-1.8-.6-.6-.2-1.3-.5-1.8-.6-.5-.2-.6-.6-.5-1.1s.6-.6,1.1-.5c.6.2,1.1.5,1.8.6.6.2,1.1.5,1.8.6.5.2.6.6.5,1.1,0,.3-.5.5-.8.5Z"/>
    <path class="st2" d="M69.8,65.3h-.2l-3.7-1c-.5,0-.6-.6-.6-1.1s.6-.6,1.1-.6l3.7,1c.5,0,.6.6.6,1.1s-.5.6-.8.6h-.2Z"/>
    <path class="st2" d="M81.8,32.9h-.5c-.5-.2-.5-.8-.3-1.1.2-.3.5-.8.6-1.3s.5-.8.6-1.3.8-.5,1.1-.3c.5.2.5.8.3,1.1-.2.3-.5.8-.6,1.3s-.5.8-.6,1.3c0,.3-.5.5-.8.5l.2-.2Z"/>
    <path class="st2" d="M42.1,79.1h-2.9c-.5,0-.8-.3-.8-.8s.3-.8.8-.8h2.9c.5,0,.8.3.8.8s-.3.8-.8.8Z"/>
    <path class="st2" d="M36.5,77.6c-.3,0-.8-.3-.8-.6,0-.5.2-1,.6-1s1-.3,1.4-.3,1-.3,1.4-.5c.5,0,1,.2,1,.6s-.2,1-.6,1-1,.3-1.4.3-1,.3-1.4.5h-.2Z"/>
    <path class="st2" d="M38.1,78.4c-.5,0-.8-.3-.8-.8s.3-1,.8-1,.8,0,1.3-.2c.5,0,1-.2,1.4-.2s1,.3,1,.8-.3,1-.8,1-.8,0-1.3.2c-.5,0-1,.2-1.4.2h-.2Z"/>
    <path class="st2" d="M63.1,80.1h-.2l-2.1-.6c-.5,0-.6-.6-.6-1.1s.6-.6,1.1-.6l2.1.6c.5,0,.6.6.6,1.1s-.5.6-.8.6h-.2Z"/>
    <path class="st2" d="M41,60.3c-.5,0-.8-.3-.8-.8s.3-.8.8-.8h2.4c.5,0,.8.3.8.8s-.3.8-.8.8h-2.4Z"/>
    <path class="st2" d="M40.2,57.3c-.5,0-.8-.3-.8-.8s.3-.8.8-.8,1.4,0,2.1-.2c.5,0,1,.2,1,.6s-.2,1-.6,1-1.6.2-2.2.2h-.2Z"/>
    <path class="st2" d="M49.7,100.2h-.5c-.5-.3-.5-.8-.3-1.1,0-.2.3-.5.5-.6.2-.3.5-.6.6-1.1s.8-.6,1.1-.3c.5.2.6.8.3,1.1s-.5,1-.8,1.3c0,.2-.3.5-.3.6s-.5.5-.8.5l.2-.3Z"/>
    <path class="st2" d="M59.8,83h-.3c-.5,0-1-.2-1.6-.2s-.8-.3-.8-.8.3-.8.8-.8,1.3,0,1.8.2h.3c.5,0,.8.5.6,1,0,.5-.5.6-.8.6Z"/>
    <path class="st2" d="M52.9,95.9h-1.9c-.5,0-.8-.3-.8-.8s.3-.8.8-.8h1.9c.5,0,.8.3.8.8s-.3.8-.8.8Z"/>
    <path class="st2" d="M78,19.1c-.5,0-.8-.3-.8-.8v-1.9c0-.5.3-.8.8-.8s.8.3.8.8v1.9c0,.5-.3.8-.8.8Z"/>
    <path class="st2" d="M36.2,76.1c-.3,0-.8-.3-.8-.6,0-.5.2-1,.6-1s.5,0,.8-.2c.3,0,.6-.2,1-.3.5,0,1,.2,1,.6s-.2,1-.6,1-.5,0-.8.2c-.3,0-.6.2-1,.3h-.2Z"/>
    <path class="st2" d="M41.3,55.9h-1.6c-.6,0-.8-.3-.8-.8s.3-.8.8-.8h1.8c.5,0,.8.5.6,1,0,.5-.5.6-.8.6Z"/>
    <path class="st2" d="M64.1,7.2c-.2,0-.5,0-.6-.3-.3-.3-.3-.8,0-1.3l1.1-1.1c.3-.3.8-.3,1.3,0,.3.3.3.8,0,1.3l-1.1,1.1c-.2.2-.3.3-.6.3Z"/>
    <path class="st2" d="M36.2,74.4c-.5,0-.8-.3-.8-.8s.3-.8.8-.8.8,0,1.1-.2l.5,1.6c-.5,0-1,.3-1.6.3v-.2Z"/>
    <path class="st2" d="M80.5,32.2h-.5c-.3-.3-.5-.8-.3-1.1h0c.2-.3.5-.6.6-1.1s.6-.6,1.1-.3c.5.2.6.8.3,1.1-.3.5-.5.8-.6,1.3-.2.3-.5.3-.8.3l.2-.2Z"/>
    <path class="st2" d="M64.4,79.5h-.2l-1.3-.3c-.5,0-.8-.6-.6-1.1,0-.5.6-.6,1.1-.6l1.3.3c.5,0,.8.6.6,1.1,0,.3-.5.6-.8.6h-.2Z"/>
    <path class="st2" d="M38.6,101h-1.3c-.5,0-.8-.3-.8-.8s.3-.8.8-.8h1.3c.5,0,.8.3.8.8s-.3.8-.8.8Z"/>
    <path class="st2" d="M45.9,108h-1c-.5,0-.8-.3-.8-.8s.3-.8.8-.8h1c.5,0,.8.3.8.8s-.3.8-.8.8Z"/>
    <path class="st2" d="M45.6,59.8h-1c-.5,0-.8-.3-.8-.8s.3-.8.8-.8h1c.5,0,.8.3.8.8s-.3.8-.8.8Z"/>
    <path class="st2" d="M55.3,92.2h-.3l-.6-.3c-.5-.2-.6-.8-.3-1.1s.8-.6,1.1-.3l.6.3c.5.2.6.8.3,1.1,0,.3-.5.5-.8.5v-.2Z"/>
    <path class="st2" d="M59.2,83.9h-.6c-.5,0-.8-.3-.8-.8s.3-.8.8-.8h.6c.5,0,.8.3.8.8s-.3.8-.8.8Z"/>
    <path class="st2" d="M46.2,107.2c-.5,0-.8-.3-.8-.8s.3-.8.8-.8.3,0,.3,0c.5-.2,1,0,1.1.3.2.5,0,1-.3,1.1-.5.2-.8.2-1.1.2Z"/>
    <g>
      <path class="st1" d="M79.1,51.2h-.3c-.5-.2-.6-.8-.3-1.1,1.8-3.4,2.4-6.9,1.9-10.5,0-.5.3-1,.8-1s1,.3,1,.8c.6,4,0,7.8-2.1,11.6,0,.3-.5.5-.8.5l-.2-.3Z"/>
      <path class="st1" d="M40,50.3h0c-.5,0-.8-.5-.8-1s0-1.4.2-2.2c0-1.4.2-3,.5-4.5.5-1.8,1.1-3.2,1.9-4.8.3-.5.5-1.1.8-1.6.2-.5.6-.6,1.1-.5.5.2.6.6.5,1.1-.3.5-.5,1.1-.8,1.6-.6,1.4-1.4,2.9-1.8,4.5-.3,1.3-.3,2.9-.5,4.1,0,.8,0,1.4-.2,2.2,0,.5-.5.8-.8.8l-.2.2Z"/>
      <path class="st1" d="M60.9,64.1h-.2c-.5,0-.8-.2-1.3-.3-1-.3-1.9-.5-2.9-.6h-4.1c-.6,0-.8-.3-.8-.8s.3-.8.8-.8h4.5c1.1,0,2.2.3,3.2.6.3,0,.8.2,1.1.3.5,0,.8.6.6,1,0,.3-.5.6-.8.6h-.2Z"/>
      <path class="st1" d="M61.2,75.6h-.3c-.5,0-.6-.6-.6-1.1.3-1.1.6-2.2,1.1-3.4.3-1.1.8-2.2,1.1-3.4,0-.5.6-.6,1.1-.6s.6.6.6,1.1c-.3,1.1-.6,2.2-1.1,3.4-.3,1.1-.8,2.2-1.1,3.4,0,.3-.5.6-.8.6Z"/>
      <path class="st1" d="M68.3,18.2c-.3,0-.6-.2-.8-.6-.2-.5,0-1,.5-1.1,1.3-.5,2.6-1,3.7-1.4,1.3-.5,2.6-1,3.8-1.4.5,0,1,0,1.1.5s0,1-.5,1.1c-1.3.5-2.6,1-3.7,1.4-1.3.5-2.6,1-3.8,1.4h-.3v.2Z"/>
      <path class="st1" d="M53.7,90.3h-.5c-.3-.3-.5-.8-.3-1.1,1.1-1.8,1.8-3.5,1.8-5.4s.5-.8,1-.8.8.5.8,1c0,2.2-.8,4.3-2.1,6.2-.2.3-.5.5-.8.5l.2-.3Z"/>
      <path class="st1" d="M49.3,103.6h-1.3c-.8,0-1.4-.2-2.2-.3-.8,0-1.6-.2-2.2-.3-.5,0-.8-.5-.6-1s.5-.8,1-.6c.8,0,1.4.2,2.2.3.8,0,1.4.2,2.2.3.5,0,.8,0,1.1.3h.3c.5,0,.8.6.6,1,0,.3-.5.6-.8.6l-.3-.3Z"/>
      <path class="st1" d="M41.3,61.4c-.5,0-.8-.3-.8-.8s.3-.8.8-.8c1.6,0,3.2,0,4.8-.2.5,0,.8.3,1,.8,0,.5-.3.8-.8,1-1.8,0-3.4.2-4.9.2v-.2Z"/>
      <path class="st1" d="M43.7,70.9h-.3c-.5,0-.6-.6-.5-1.1l1.4-4.1c0-.5.6-.6,1.1-.5.5,0,.6.6.5,1.1l-1.4,4.1c0,.3-.5.6-.8.6v-.2Z"/>
      <path class="st1" d="M49.1,94.8c-.5,0-.8-.3-.8-.8s.3-.8.8-.8h3.8c.5,0,1,.3,1,.8s-.3,1-.8,1h-4v-.2Z"/>
      <path class="st1" d="M67.6,12.8c-.3,0-.6-.2-.8-.5-.2-.5,0-1,.3-1.1l4.6-2.6c.5-.2,1,0,1.1.3.2.5,0,1-.3,1.1l-4.6,2.6h-.5l.2.2Z"/>
      <path class="st1" d="M69.1,66.7h-.3c-.5-.2-1-.5-1.6-.6-.5-.2-1.1-.5-1.6-.6-.5-.2-.6-.6-.5-1.1s.6-.6,1.1-.5c.5.2,1,.5,1.6.6.6.2,1.1.5,1.6.6.5.2.6.6.5,1.1,0,.3-.5.5-.8.5Z"/>
      <path class="st1" d="M61.1,82.3c-.2,0-.3,0-.5-.2,0,0-.2,0-.3-.2-.3-.2-.6-.5-.8-.5-1.3-.2-2.6-.5-4-.6l.3-1.8v.8-.8c1.3.2,2.7.5,4,.6.6,0,1.1.5,1.6.8h.3c.3.5.5,1,.2,1.4-.2.2-.5.3-.6.3h-.2Z"/>
      <path class="st1" d="M64.4,10.1l-1-1.4c1.3-.8,2.6-1.6,3.8-2.2.5-.2,1,0,1.1.3.2.5,0,1-.3,1.1-1.3.6-2.4,1.4-3.7,2.2ZM63.9,9.4h0Z"/>
      <path class="st1" d="M49.4,79.9h-2.6c-.5,0-.8-.3-.8-.8s.3-.8.8-.8h2.6c.5,0,.8.3.8.8s-.3.8-.8.8Z"/>
      <path class="st1" d="M62.3,23.3c-.3,0-.6-.2-.8-.6,0-.5,0-1,.5-1.1s.6-.2,1-.3c.3,0,.6-.2,1-.3.5,0,1,0,1.1.5,0,.5,0,1-.5,1.1-.3,0-.6.2-1,.3-.3,0-.6.2-1,.3s-.2,0-.3,0v.2Z"/>
      <path class="st1" d="M43.7,111.5c-.5,0-.8-.3-.8-.8s0-.8.5-1.1,1-.2,1.3,0h1c.3.3.5.8.2,1.1-.3.5-1,.5-1.3.5,0,.2-.3.3-.6.3h-.2Z"/>
      <path class="st1" d="M38.6,81.5c-.5,0-.8-.3-.8-.6,0-.5.2-1,.6-1h1.4c.5-.3,1,0,1,.5s-.2,1-.6,1h-1.4v.2h-.2Z"/>
      <path class="st1" d="M39.7,54.6h-.3c-.5,0-.6-.6-.5-1.1,0-.2.2-.5.3-.6v-1.9c0-.5.3-.8.8-.8s.8.3.8.8v2.1c0,.2-.2.5-.3.6,0,0,0,.3-.2.3,0,.3-.5.6-.8.6h.2Z"/>
      <path class="st1" d="M58.8,67.8h-.2c-.5,0-.8-.6-.6-1.1l.3-1.3c0-.5.6-.8,1.1-.6.5,0,.8.6.6,1.1l-.3,1.3c0,.3-.5.6-.8.6h-.2Z"/>
    </g>
    <path class="st2" d="M36.8,105c-.3,0-.6-.2-.8-.6h0c-.3-.3-.3-.8,0-1.3.3-.3.8-.3,1.3,0,.2.2.5.5.5,1s-.3.8-.8.8l-.2.2ZM36,104.2h0Z"/>
    <path class="st2" d="M37.1,103.9c-.3,0-.6-.2-.8-.6h0c-.3-.3-.3-.8,0-1.3.3-.3.8-.3,1.3,0,.2.2.5.5.5,1s-.3.8-.8.8l-.2.2ZM36.3,103.1h0Z"/>
    <path class="st2" d="M37.6,79.5c-.5,0-.8-.3-.8-.8s.2-.6.6-.8c.3-.3.8-.3,1.1,0s.3.8,0,1.1-.5.5-1,.5ZM37.6,77.7h0Z"/>
    <path class="st2" d="M37,96.7c-.3,0-.6-.2-.8-.6-.3-.3-.3-.8,0-1.1s.8-.3,1.1,0,.5.5.5,1-.3.8-.8.8ZM36.2,95.7h0Z"/>
    <path class="st2" d="M39.7,94c-.5,0-.8-.3-.8-.8s.2-.6.6-.8h0c.3-.3.8-.3,1.3,0s.3.8,0,1.3c-.2.2-.5.5-1,.5l-.2-.2ZM39.7,92.2h0Z"/>
    <path class="st2" d="M41.6,49.1c-.3,0-.6-.2-.8-.6h0c-.3-.3-.3-.8,0-1.3s.8-.3,1.3,0c.2.2.5.5.5,1s-.3.8-.8.8l-.2.2ZM40.6,48.4h0Z"/>
    <path class="st2" d="M37.8,69.4c-.5,0-.8-.3-.8-.8s.2-.6.6-.8c.3-.3.8-.3,1.1,0s.3.8,0,1.1-.5.5-1,.5ZM37.8,67.8h0Z"/>
    <path class="st2" d="M67.8,67.7c-.5,0-.8-.3-.8-.8s.2-.6.6-.8h0c.3-.3.8-.3,1.3,0,.5.3.3.8,0,1.3s-.5.5-1,.5l-.2-.2ZM67.8,65.9h0Z"/>
    <path class="st2" d="M78,32.4c-.3,0-.5,0-.6-.3-.3-.3,0-1,.2-1.1h.3c.3-.5,1-.3,1.1,0,.3.3,0,1-.2,1.1h-.3c0,.3-.3.3-.5.3Z"/>
    <path class="st2" d="M38.3,67c-.3,0-.6-.2-.8-.6-.3-.3-.3-.8,0-1.1s.8-.3,1.1,0c.2.2.5.5.5,1s-.3.8-.8.8ZM37.5,66.1h0Z"/>
    <path class="st2" d="M38.4,70.9c-.3,0-.6-.2-.8-.6-.3-.3-.3-.8,0-1.1s.8-.3,1.1,0,.5.5.5,1-.3.8-.8.8ZM37.6,70.1h0Z"/>
    <path class="st2" d="M36.8,110.6c-.3,0-.6-.2-.8-.6-.3-.3-.3-.8,0-1.1s.8-.3,1.1,0,.5.5.5,1-.3.8-.8.8ZM36,109.8h0Z"/>
    <path class="st2" d="M72.6,22.2c-.3,0-.5,0-.6-.3v-.3c-.5-.3-.3-1,0-1.1.3-.3,1,0,1.1.2v.3c.5.3.3,1,0,1.1h-.5v.2Z"/>
    <path class="st2" d="M44.3,109.6c-.5,0-.8-.3-.8-.8v-.5c0-.5.3-.8.8-.8s.8.3.8.8v.5c0,.5-.3.8-.8.8Z"/>
    <path class="st2" d="M45.1,109.1c-.5,0-.8-.3-.8-.8v-.5c0-.5.3-.8.8-.8s.8.3.8.8v.5c0,.5-.3.8-.8.8Z"/>
  </g>
</svg>