<?xml version="1.0" encoding="UTF-8"?>
<svg id="Layer_2" xmlns="http://www.w3.org/2000/svg" version="1.1" viewBox="0 0 418.8 417.8">
  <!-- Generator: Adobe Illustrator 29.8.1, SVG Export Plug-In . SVG Version: 2.1.1 Build 2)  -->
  <defs>
    <style>
      .st0 {
        fill: #8b7355;
      }
    </style>
  </defs>
  <g id="Layer_1-2">
    <path class="st0" d="M208.6,0c169.2-.7,269.8,190.9,171.6,329.6-87.6,123.9-274.5,115.7-351.3-15C-52.8,175.6,48.4.7,208.6,0ZM193.6,10.5C59.8,19.5-26.1,161.5,25.5,285.2c60.4,144.9,257.7,166.5,347.6,37.3C469.4,183.9,360.8-.7,193.6,10.5Z"/>
    <path class="st0" d="M130.4,289.7c2.5-.5,6.4-3.8,7.3-6.2l.2-103.9c-9.6-23.4-33.9,2.2-43.5,12.7-13.4,14.6-25.5,32.5-35.6,49.4-1.2.2-.7-1-.7-1.9-2.5-48.2,44.6-101.4,81.5-127.6,16.5-11.7,34.9-21.6,54.2-27.8-12,12-25.6,26.6-23,45.1,1,7.6,7.7,17.9,16.3,12.6v127c0,.3,2.9,3.6,3.4,4.1,13.9,13.7,35.7,4.7,46.7-8v-110.6c-1.8-8.2-7.9-14-13.4-19.9,8.2,0,16.9,1.8,23.5,6.7,18.1-21.6,47.8-38.2,75.1-44.9,1-.2,1.5.1,1.1,1.1-.3.7-5.5,6-6.7,7.5-9.8,12.8-18.8,26.3-27.6,39.8v119.6c6.3,14.8,20.1,6.1,29.3-.5,8-5.7,15.1-13.1,23.4-18.6,0,3.5-2.9,8.4-4.8,11.7-15.1,27.7-40,51.3-65.7,69.2l-29.1-23.2-29.4,30.7c-.6.7-1.3.7-2.2.7-6.9,0-21.3-3.5-28.4-5.4-17.6-4.7-38.7-14.1-52.7-26-2.4-2-11.5-10.9-12.4-13.1s1.7-.4,1.9-.4c3.2,0,8.4.5,11.2,0h0Z"/>
  </g>
</svg>