<?xml version="1.0" encoding="UTF-8"?>
<svg id="Layer_2" xmlns="http://www.w3.org/2000/svg" version="1.1" viewBox="0 0 58 349.6">
  <!-- Generator: Adobe Illustrator 29.8.1, SVG Export Plug-In . SVG Version: 2.1.1 Build 2)  -->
  <defs>
    <style>
      .st0 {
        fill: #b6b866;
      }

      .st1 {
        fill: #828040;
      }
    </style>
  </defs>
  <g id="Layer_1-2">
    <g>
      <path class="st1" d="M17.7,0c-3.3,11.6-3.7,23.4-1.7,35.2,2.3,13.1,9.5,26.1,15.7,37.8.5.9,3,3,4,5,17.2,32.2,26.3,64.6,4.4,97.9-1.9,2.9-5.2,7.9-8.4,9.1-.1,1.4-1.2,4.2-2,5.3-.6.9-2,.6-2,.7-15.8,23-17.3,37.8-10.5,65l5.5,16c2.7-4.5-.7-5.1-.8-5.5-5.7-25.1-8.4-46.1,6.8-68.5,1.6-2.4,3.8-4.3,5-6,12.5-17.5,22.4-28.4,24-51.5,2-28.7-7.7-46.4-20-70.5-.8-1.5-2.1-3.2-3-5-5.3-10.2-11.1-19.4-13.5-31S19.8,11.7,20.7,0C20.7,0,17.7,0,17.7,0Z"/>
      <path class="st0" d="M35.7,0c11.8,21,14,45-1,65,.9,1.8,2.2,3.5,3,5,2.4.5,2.1-1.2,2.8-2.6,5.9-11,11.1-27.3,10.2-39.8-.8-9.9-5.6-18.5-9-27.5h-6Z"/>
      <path class="st0" d="M28.7,198c1.8,1,1.7,2.8,2,4.5,6,26.2,8.4,59.5-3.9,84.2-7.7,15.5-31,34-26.2,53.3h2c-2.5-18.9,20.4-33,28.8-47.7,16.1-28.2,10.8-70.3,2.2-100.3-1.2,1.7-3.4,3.6-5,6h0Z"/>
      <path class="st0" d="M27.7,191c0,0,1.4.3,2-.7.8-1.1,1.9-4,2-5.3.6-6.8-8-26.4-9.9-34.6-6.7-28.4-2.3-44.8,11.1-69.8.8-1.4.4-3.2,2.8-2.6-1-2-3.5-4.1-4-5-8.2,10.9-15.4,26.2-17.7,39.8-4.7,27.4,8,52.2,13.7,78.2Z"/>
      <path class="st0" d="M.7,340c.5,1.8,1,3.9,2.1,5.4s2.6,1.3,2.9,1.6c.2.1-.1,4.1,2,2,2.1-2.1-1.9-1.8-2-2-.2-.2.3-1.6,0-2.2-1-1.6-2.5-1.9-2.9-4.8H.7Z"/>
    </g>
  </g>
</svg>