<?xml version="1.0" encoding="UTF-8"?>
<svg id="Layer_2" data-name="Layer 2" xmlns="http://www.w3.org/2000/svg" viewBox="0 0 140.07 345.85">
  <defs>
    <style>
      .cls-1 {
        fill: #475d1c;
      }

      .cls-2 {
        fill: #b6b866;
      }

      .cls-3 {
        fill: #3e4d16;
      }

      .cls-4 {
        fill: #828040;
      }
    </style>
  </defs>
  <g id="Layer_1-2" data-name="Layer 1">
    <g>
      <path class="cls-4" d="M71.99,0c-4.69,9.38-7.47,17.84-10,28-1.14,4.59-3.57,8.21-2,13-2.45,6.69-2,14-2,21-.26-.16-4.77-.77-6-1-.2-21.36,4.25-42.98,16-61h4Z"/>
      <path class="cls-1" d="M51.99,61c1.23.23,5.74.84,6,1,.13.08.03,1.4.62,1.89,5.75,4.76,9.18,10.34,11.66,17.33,1.1,3.1,7.64,25.75,6.71,26.78l-4.99-2c-1.66-2.95-6.64-5.58-10-6-.14-.26.14-.74,0-1l-1-1c-1.3-1.6-4.33-3.41-5.99-5.5-1.33-1.68-3.08-7.95-4.99-6.49-.43.33-3.12,7.62-4.6,9.91-7.27,11.24-16.49,21.54-19.42,35.08-1.44.21-1.54-2.75-1.7-3.79-.34-2.2,0-4.39-.28-6.21,2.72.01,2.8-1.19,3.06-3.46.75-6.6,4.16-16.66,7.54-23.44,1.71-3.43,19.67-28.87,18.39-30.1l-28.63,7.92c-6.33-.31-12.41.16-18.37.07,14.93-9.64,28-14.34,46-11Z"/>
      <path class="cls-1" d="M133.99,183c-5.01-.03-10.17.02-15.28-.2-5.45-1.08-12.63-4.49-17.69-5.4-7.59-1.37.46,6.59.87,7.4,3.54,6.83,12.68,20.59,14.55,26.24,1.47,4.44-.13,11.18,3.55,14.95-.24,1.88.18,4.06,0,6-.79,1.13-7.27-14.32-7.96-15.53-4.16-7.25-10.65-13.14-14.02-20.99-1.71-1.2-2.8,3.64-3.01,4.52-2.58,1.69-4.53,4.16-7,6-.22.16-1.21-.15-1.64.35l-10.86,8.65c-.78.15-.58-.88-.5-1.49,1.24-8.95,8.9-32.04,16-37.51.25-.19,1.59.32,2.2-.07,1.06-.69,2.12-2.65,3.8-2.93,12.79-2.13,26.99,1.86,37,10Z"/>
      <path class="cls-4" d="M91.99,254c.28,1.51.84,3.85,1,5,1.39,9.95,1,19.96,1,30-.47-.33-4.72-2.9-5-3,.93-18.12-2.65-36.14-9.01-53-3.1,1.9-5.67,4.88-8.93,6.55-22.85,11.66-40.69-13.65-18.74-21.74,10.85-4,19.46-1.99,28.16,5.19,1.81-.41,7.22-14.27,7.52-17,2.47-1.84,4.42-4.31,7-6-1.04,4.39-1.39,8.63-3.24,13.26-1.18,2.97-7.63,13.93-7.69,15.2-.13,2.57,3.31,7.75,4.21,10.75,1.37,4.56,2.84,10.13,3.72,14.78ZM60.76,221.25c-21.7,2.69-9.69,22.77,9.13,13.15,13.23-6.77.4-14.33-9.13-13.15Z"/>
      <path class="cls-1" d="M85.99,286c.33.02.67-.04,1,0,.64.08,1.55-.16,2,0,.28.1,4.53,2.67,5,3,6.01,4.17,13.65,18.29,16.24,25.29.64,1.74,1.44,3.15-.24,4.71-4.35-3.08-11.47-3.64-17-8-.12-.09.17-1.25-.3-1.68-1.34-1.22-3.27-2.15-4.69-3.32-.6,3.1-2.29,5.66-2.01,9-6.37,2.77-9.68,27.58-11.01,29-2.11,2.25-2.66-5.09-2.99-6,2.34-8.29,2.82-16.93,5.27-25.23,2.22-7.51,6.52-15.2,8.73-22.76-1.95-1.85-23.47,11.14-29.49,10-1.07-.2,1.07-2.9.49-4.01.23-.15.76.15,1,0h2s-1-1-1-1c10.39-6.77,13.18-9.97,27-9Z"/>
      <path class="cls-3" d="M5.99,72c5.96.09,12.04-.38,18.37-.07l28.63-7.92c1.28,1.22-16.68,26.66-18.39,30.1-3.38,6.78-6.8,16.84-7.54,23.44-.26,2.27-.34,3.47-3.06,3.46-2.16-13.64-5.43-17.04,2.2-30.3.92-1.61,8.55-10.99,7.8-11.69-11.42-2.21-22.77-.88-33.99-5.02.34-2.06,4.43-2.01,5.99-1.99Z"/>
      <path class="cls-3" d="M133.99,183c2.01.01,6.77-.08,5.99,2.99l-27.99,3.01c-.85.91,5.93,8.13,6.82,9.67,5.97,10.32,2.54,16.81,1.18,27.32-3.67-3.77-2.08-10.51-3.55-14.95-1.87-5.65-11.01-19.41-14.55-26.24-.42-.8-8.47-8.76-.87-7.4,5.05.91,12.24,4.32,17.69,5.4,5.11.22,10.27.17,15.28.2Z"/>
      <path class="cls-3" d="M56.99,296c.57,1.11-1.56,3.8-.49,4.01,6.02,1.13,27.53-11.86,29.49-10-2.21,7.57-6.51,15.25-8.73,22.76-2.45,8.3-2.93,16.94-5.27,25.23-2.13-5.87-5.52-10.82-5.03-17.48.45-6.14,4.8-12,7.03-17.51l-28.99.98,9.66-5.34c.75-1.17,1.12-1.84,2.33-2.65Z"/>
      <path class="cls-2" d="M61.99,28c-.32,7.7,1.57,16.66,8.65,20.85,10.3,6.11,7.45-3.12,12.37-5.35,7.22-3.28,10.34,5.08,3.34,9.36-3.27,2-6.47.44-5.17,6.42,1.16,5.33,8.42,7.7,12.04,10.76,10.13,8.59,20.71,32.27,5.32,40-12.84,6.45-15.57-9.94-9.88-11.88,8.23-2.82,9.31,8.73.34,6.84.92,6.41,7.8,3.89,10.86.36,7.35-8.49,2.14-21.99-4.35-29.37-5.56-6.33-13.57-7.43-17.04-15.97-.63-1.54-.1-4.04-.62-4.85-.37-.57-6.3-1.91-7.84-2.67-5.27-2.59-8.16-5.86-10-11.5-1.57-4.79.86-8.41,2-13ZM86.99,48.01c-3.87-1.56-4.55-.76-6,2.98l6-2.98Z"/>
      <path class="cls-4" d="M61.99,100c3.36.42,8.34,3.05,10,6,.06.1-.83.67.05,2.27,11.15,20.25,23.15,41.13,24.95,64.73-1.68.28-2.73,2.24-3.8,2.93-.61.4-1.96-.12-2.2.07-.06-18.69-8.84-35.72-17-52-1.21-2.41-2.49-7.47-5-7-1.32-4.64-4.63-12.67-7-17Z"/>
      <path class="cls-2" d="M68.99,117c2.51-.47,3.79,4.59,5,7-1.39,4.18.41,8.76-.02,13.49-.46,5.08-2.26,8.68-5.47,12.52-1.46,1.74-6.1,4.84-6.3,5.19-.63,1.13-.1,4.69-.65,6.86-2.49,9.89-9.37,11.27-18.23,12.86-1.84.33-3.52-.59-4.85-.44-4.84.55-4.17,9.85-.97,12.49,4.03,3.33,4.69-.94,5.13-1.02,5.97-1.02,8.75,5.55.85,6.05-6.5.42-12.04-4.97-11.45-11.4,1.16-12.56,6.47-7.7,14.38-8.71,7.62-.98,12.73-7.32,12.59-14.9-28.77-.09-6.06-32.86,2.49-5.01,11.86-8.57,11.16-22.19,7.5-35ZM58,154c1.58-4.83-4.99-13.69-9.1-8.58s4.01,10.33,9.1,8.58Z"/>
      <path class="cls-2" d="M91.99,254l18.54,15.96c5.32,11.43,18.28,14.59,18.54,28.54.22,11.86-11.22,12.48-12.09,18.04-.83,5.26,3.04,4.63,7.03,4.46,1.01,6.62-4.74,5.46-9.01,3-7.25-16.15,13.02-14.19,10.57-28.03-.81-4.59-3.42-9.08-7.08-11.96-.88,2.54-1.01,5.24-2.3,7.69-8.79,16.78-27.45-10.39-3.2-12.19-5.01-8.25-13.2-13.8-19.99-20.51-.16-1.15-.72-3.49-1-5ZM111.7,282.15c-11.98.73-7.5,14.72-.7,11.38,3.44-1.7,4.63-11.61.7-11.38Z"/>
      <path class="cls-4" d="M85.99,315c-.27-3.33,1.41-5.9,2.01-9,1.42,1.17,3.36,2.1,4.69,3.32.47.43.18,1.59.3,1.68-1.8,1.01-.96,3.62-.74,5.22,1.56,11.17,6.4,25.28,18.73,27.8-3.24,4.87-11.83-1.09-14.97-4.54-4.45-4.89-9.5-17.97-10.03-24.47Z"/>
      <path class="cls-3" d="M58.99,295l1,.99h-2c.35-.22.62-.74,1-.99Z"/>
      <path class="cls-4" d="M61.99,99c-.17-.31-.71-.64-1-1l1,1Z"/>
    </g>
  </g>
</svg>